<mxfile host="Electron" modified="2023-09-23T07:44:29.359Z" agent="Mozilla/5.0 (Macintosh; Intel Mac OS X 10_15_7) AppleWebKit/537.36 (KHTML, like Gecko) draw.io/21.7.5 Chrome/114.0.5735.289 Electron/25.8.1 Safari/537.36" etag="Dox2LKpe6fU-mKnsFL9f" version="21.7.5" type="device" pages="9">
  <diagram name="processmonitor" id="MxAyD-h96NCAy5Cewilq">
    <mxGraphModel dx="2116" dy="658" grid="1" gridSize="10" guides="1" tooltips="1" connect="1" arrows="1" fold="1" page="1" pageScale="1" pageWidth="850" pageHeight="1100" math="0" shadow="0">
      <root>
        <mxCell id="9L5ItLAH6DIfm2swKhLY-0" />
        <mxCell id="9L5ItLAH6DIfm2swKhLY-1" parent="9L5ItLAH6DIfm2swKhLY-0" />
        <mxCell id="5teicKQhq4fRq5Rh-lRX-1" value="" style="rounded=0;whiteSpace=wrap;html=1;" vertex="1" parent="9L5ItLAH6DIfm2swKhLY-1">
          <mxGeometry x="-840" y="240" width="770" height="440" as="geometry" />
        </mxCell>
        <mxCell id="5teicKQhq4fRq5Rh-lRX-24" value="" style="rounded=0;whiteSpace=wrap;html=1;fillColor=#dae8fc;strokeColor=#6c8ebf;" vertex="1" parent="9L5ItLAH6DIfm2swKhLY-1">
          <mxGeometry x="-670" y="270" width="180" height="380" as="geometry" />
        </mxCell>
        <mxCell id="5teicKQhq4fRq5Rh-lRX-25" value="Nad Proxy/Nad Manager" style="text;html=1;strokeColor=none;fillColor=none;align=center;verticalAlign=middle;whiteSpace=wrap;rounded=0;" vertex="1" parent="9L5ItLAH6DIfm2swKhLY-1">
          <mxGeometry x="-670" y="270" width="150" height="20" as="geometry" />
        </mxCell>
        <mxCell id="5teicKQhq4fRq5Rh-lRX-26" value="" style="rounded=0;whiteSpace=wrap;html=1;fillColor=#ffffff;gradientColor=none;" vertex="1" parent="9L5ItLAH6DIfm2swKhLY-1">
          <mxGeometry x="-640" y="310" width="120" height="330" as="geometry" />
        </mxCell>
        <mxCell id="5teicKQhq4fRq5Rh-lRX-27" value="Process monitor" style="text;html=1;strokeColor=none;fillColor=none;align=center;verticalAlign=middle;whiteSpace=wrap;rounded=0;" vertex="1" parent="9L5ItLAH6DIfm2swKhLY-1">
          <mxGeometry x="-640" y="312.16" width="90" height="20" as="geometry" />
        </mxCell>
        <mxCell id="5teicKQhq4fRq5Rh-lRX-28" style="edgeStyle=orthogonalEdgeStyle;rounded=0;orthogonalLoop=1;jettySize=auto;html=1;startArrow=none;startFill=0;endArrow=classic;endFill=1;strokeColor=#000000;exitX=0;exitY=0.624;exitDx=0;exitDy=0;exitPerimeter=0;" edge="1" source="5teicKQhq4fRq5Rh-lRX-29" parent="9L5ItLAH6DIfm2swKhLY-1">
          <mxGeometry relative="1" as="geometry">
            <Array as="points">
              <mxPoint x="-359" y="602" />
              <mxPoint x="-359" y="610" />
              <mxPoint x="-488" y="610" />
            </Array>
            <mxPoint x="-488" y="610" as="targetPoint" />
          </mxGeometry>
        </mxCell>
        <mxCell id="5teicKQhq4fRq5Rh-lRX-29" value="" style="rounded=0;whiteSpace=wrap;html=1;fillColor=#d5e8d4;strokeColor=#82b366;" vertex="1" parent="9L5ItLAH6DIfm2swKhLY-1">
          <mxGeometry x="-360" y="290" width="120" height="360" as="geometry" />
        </mxCell>
        <mxCell id="5teicKQhq4fRq5Rh-lRX-30" value="SystemD" style="text;html=1;strokeColor=none;fillColor=none;align=center;verticalAlign=middle;whiteSpace=wrap;rounded=0;" vertex="1" parent="9L5ItLAH6DIfm2swKhLY-1">
          <mxGeometry x="-350" y="290" width="40" height="20" as="geometry" />
        </mxCell>
        <mxCell id="5teicKQhq4fRq5Rh-lRX-31" value="" style="shape=note;whiteSpace=wrap;html=1;backgroundOutline=1;darkOpacity=0.05;gradientColor=#ffffff;fillColor=none;" vertex="1" parent="9L5ItLAH6DIfm2swKhLY-1">
          <mxGeometry x="-830" y="330" width="750" height="210" as="geometry" />
        </mxCell>
        <mxCell id="5teicKQhq4fRq5Rh-lRX-32" value="Failure Detection" style="text;html=1;strokeColor=none;fillColor=none;align=center;verticalAlign=middle;whiteSpace=wrap;rounded=0;" vertex="1" parent="9L5ItLAH6DIfm2swKhLY-1">
          <mxGeometry x="-160" y="340" width="40" height="20" as="geometry" />
        </mxCell>
        <mxCell id="5teicKQhq4fRq5Rh-lRX-33" style="edgeStyle=orthogonalEdgeStyle;rounded=0;orthogonalLoop=1;jettySize=auto;html=1;exitX=0.413;exitY=0.156;exitDx=0;exitDy=0;endArrow=classic;endFill=1;strokeColor=#000000;exitPerimeter=0;" edge="1" source="5teicKQhq4fRq5Rh-lRX-31" parent="9L5ItLAH6DIfm2swKhLY-1">
          <mxGeometry relative="1" as="geometry">
            <mxPoint x="-490" y="359.65999999999997" as="sourcePoint" />
            <mxPoint x="-360" y="359" as="targetPoint" />
            <Array as="points">
              <mxPoint x="-520" y="359" />
            </Array>
          </mxGeometry>
        </mxCell>
        <mxCell id="5teicKQhq4fRq5Rh-lRX-34" value="Heartbeat Ready" style="text;html=1;strokeColor=none;fillColor=none;align=center;verticalAlign=middle;whiteSpace=wrap;rounded=0;" vertex="1" parent="9L5ItLAH6DIfm2swKhLY-1">
          <mxGeometry x="-490" y="340" width="110" height="20" as="geometry" />
        </mxCell>
        <mxCell id="5teicKQhq4fRq5Rh-lRX-35" style="edgeStyle=orthogonalEdgeStyle;rounded=0;orthogonalLoop=1;jettySize=auto;html=1;exitX=0.413;exitY=0.156;exitDx=0;exitDy=0;endArrow=classic;endFill=1;strokeColor=#000000;exitPerimeter=0;" edge="1" parent="9L5ItLAH6DIfm2swKhLY-1">
          <mxGeometry relative="1" as="geometry">
            <mxPoint x="-520.25" y="390" as="sourcePoint" />
            <mxPoint x="-360" y="390" as="targetPoint" />
            <Array as="points">
              <mxPoint x="-520" y="391" />
              <mxPoint x="-360" y="391" />
            </Array>
          </mxGeometry>
        </mxCell>
        <mxCell id="5teicKQhq4fRq5Rh-lRX-36" value="Heartbeat Watchdog" style="text;html=1;strokeColor=none;fillColor=none;align=center;verticalAlign=middle;whiteSpace=wrap;rounded=0;" vertex="1" parent="9L5ItLAH6DIfm2swKhLY-1">
          <mxGeometry x="-490" y="370" width="130" height="20" as="geometry" />
        </mxCell>
        <mxCell id="5teicKQhq4fRq5Rh-lRX-37" style="edgeStyle=orthogonalEdgeStyle;rounded=0;orthogonalLoop=1;jettySize=auto;html=1;exitX=0.413;exitY=0.156;exitDx=0;exitDy=0;endArrow=classic;endFill=1;strokeColor=#000000;exitPerimeter=0;" edge="1" parent="9L5ItLAH6DIfm2swKhLY-1">
          <mxGeometry relative="1" as="geometry">
            <mxPoint x="-520" y="430" as="sourcePoint" />
            <mxPoint x="-359.75" y="430" as="targetPoint" />
            <Array as="points">
              <mxPoint x="-519.75" y="431" />
              <mxPoint x="-359.75" y="431" />
            </Array>
          </mxGeometry>
        </mxCell>
        <mxCell id="5teicKQhq4fRq5Rh-lRX-38" value="Heartbeat Watchdog" style="text;html=1;strokeColor=none;fillColor=none;align=center;verticalAlign=middle;whiteSpace=wrap;rounded=0;" vertex="1" parent="9L5ItLAH6DIfm2swKhLY-1">
          <mxGeometry x="-489.62" y="410" width="129.75" height="20" as="geometry" />
        </mxCell>
        <mxCell id="5teicKQhq4fRq5Rh-lRX-39" style="edgeStyle=orthogonalEdgeStyle;rounded=0;orthogonalLoop=1;jettySize=auto;html=1;exitX=0.413;exitY=0.156;exitDx=0;exitDy=0;endArrow=classic;endFill=1;strokeColor=#000000;exitPerimeter=0;" edge="1" parent="9L5ItLAH6DIfm2swKhLY-1">
          <mxGeometry relative="1" as="geometry">
            <mxPoint x="-520" y="470" as="sourcePoint" />
            <mxPoint x="-359.75" y="470" as="targetPoint" />
            <Array as="points">
              <mxPoint x="-519.75" y="471" />
              <mxPoint x="-359.75" y="471" />
            </Array>
          </mxGeometry>
        </mxCell>
        <mxCell id="5teicKQhq4fRq5Rh-lRX-40" value="Heartbeat Watchdog" style="text;html=1;strokeColor=none;fillColor=none;align=center;verticalAlign=middle;whiteSpace=wrap;rounded=0;" vertex="1" parent="9L5ItLAH6DIfm2swKhLY-1">
          <mxGeometry x="-490" y="450" width="129.75" height="20" as="geometry" />
        </mxCell>
        <mxCell id="5teicKQhq4fRq5Rh-lRX-41" value="" style="shape=note;whiteSpace=wrap;html=1;backgroundOutline=1;darkOpacity=0.05;gradientColor=#ffffff;fillColor=none;" vertex="1" parent="9L5ItLAH6DIfm2swKhLY-1">
          <mxGeometry x="-830" y="560" width="760" height="90" as="geometry" />
        </mxCell>
        <mxCell id="5teicKQhq4fRq5Rh-lRX-42" value="Failure Recovery" style="text;html=1;strokeColor=none;fillColor=none;align=center;verticalAlign=middle;whiteSpace=wrap;rounded=0;" vertex="1" parent="9L5ItLAH6DIfm2swKhLY-1">
          <mxGeometry x="-160" y="580" width="40" height="20" as="geometry" />
        </mxCell>
        <mxCell id="5teicKQhq4fRq5Rh-lRX-43" value="Reset" style="text;html=1;strokeColor=none;fillColor=none;align=center;verticalAlign=middle;whiteSpace=wrap;rounded=0;" vertex="1" parent="9L5ItLAH6DIfm2swKhLY-1">
          <mxGeometry x="-479.75" y="590" width="110" height="20" as="geometry" />
        </mxCell>
        <mxCell id="5teicKQhq4fRq5Rh-lRX-44" value="" style="shape=sumEllipse;perimeter=ellipsePerimeter;whiteSpace=wrap;html=1;backgroundOutline=1;fillColor=#bac8d3;strokeColor=#23445d;" vertex="1" parent="9L5ItLAH6DIfm2swKhLY-1">
          <mxGeometry x="-439.75" y="480" width="30" height="30" as="geometry" />
        </mxCell>
        <mxCell id="5teicKQhq4fRq5Rh-lRX-46" value="Process monitoring" style="text;html=1;strokeColor=none;fillColor=none;align=center;verticalAlign=middle;whiteSpace=wrap;rounded=0;" vertex="1" parent="9L5ItLAH6DIfm2swKhLY-1">
          <mxGeometry x="-830" y="240" width="130" height="30" as="geometry" />
        </mxCell>
      </root>
    </mxGraphModel>
  </diagram>
  <diagram name="requeststatemonitor" id="mveP8ZAtLbskwn-k4MPD">
    <mxGraphModel dx="1266" dy="772" grid="1" gridSize="10" guides="1" tooltips="1" connect="1" arrows="1" fold="1" page="1" pageScale="1" pageWidth="850" pageHeight="1100" math="0" shadow="0">
      <root>
        <mxCell id="fl6XtcIi8IGHpp0sUZKT-0" />
        <mxCell id="fl6XtcIi8IGHpp0sUZKT-1" parent="fl6XtcIi8IGHpp0sUZKT-0" />
        <mxCell id="fl6XtcIi8IGHpp0sUZKT-2" style="edgeStyle=orthogonalEdgeStyle;rounded=0;orthogonalLoop=1;jettySize=auto;html=1;entryX=0.002;entryY=0.52;entryDx=0;entryDy=0;entryPerimeter=0;exitX=0.999;exitY=0.59;exitDx=0;exitDy=0;exitPerimeter=0;" parent="fl6XtcIi8IGHpp0sUZKT-1" source="fl6XtcIi8IGHpp0sUZKT-3" edge="1">
          <mxGeometry relative="1" as="geometry">
            <mxPoint x="834" y="566" as="sourcePoint" />
            <mxPoint x="480.78" y="662.0699999999999" as="targetPoint" />
            <Array as="points">
              <mxPoint x="829" y="566" />
            </Array>
          </mxGeometry>
        </mxCell>
        <mxCell id="fl6XtcIi8IGHpp0sUZKT-3" value="" style="shape=folder;fontStyle=1;tabWidth=80;tabHeight=30;tabPosition=left;html=1;boundedLbl=1;fillColor=#eeeeee;strokeColor=#36393d;" parent="fl6XtcIi8IGHpp0sUZKT-1" vertex="1">
          <mxGeometry x="460" y="160" width="1950" height="820" as="geometry" />
        </mxCell>
        <mxCell id="fl6XtcIi8IGHpp0sUZKT-4" value="NadProxy" style="text;html=1;strokeColor=none;fillColor=none;align=center;verticalAlign=middle;whiteSpace=wrap;rounded=0;" parent="fl6XtcIi8IGHpp0sUZKT-1" vertex="1">
          <mxGeometry x="480" y="170" width="40" height="20" as="geometry" />
        </mxCell>
        <mxCell id="fl6XtcIi8IGHpp0sUZKT-5" style="edgeStyle=orthogonalEdgeStyle;rounded=0;orthogonalLoop=1;jettySize=auto;html=1;exitX=0;exitY=0.5;exitDx=0;exitDy=0;strokeColor=#FF0080;" parent="fl6XtcIi8IGHpp0sUZKT-1" source="fl6XtcIi8IGHpp0sUZKT-7" target="fl6XtcIi8IGHpp0sUZKT-15" edge="1">
          <mxGeometry relative="1" as="geometry" />
        </mxCell>
        <mxCell id="fl6XtcIi8IGHpp0sUZKT-6" style="edgeStyle=orthogonalEdgeStyle;rounded=0;orthogonalLoop=1;jettySize=auto;html=1;exitX=1;exitY=0.25;exitDx=0;exitDy=0;entryX=0;entryY=0.25;entryDx=0;entryDy=0;dashed=1;" parent="fl6XtcIi8IGHpp0sUZKT-1" source="fl6XtcIi8IGHpp0sUZKT-7" target="fl6XtcIi8IGHpp0sUZKT-11" edge="1">
          <mxGeometry relative="1" as="geometry" />
        </mxCell>
        <mxCell id="fl6XtcIi8IGHpp0sUZKT-7" value="someIP Sub" style="rounded=0;whiteSpace=wrap;html=1;fillColor=#ffffff;" parent="fl6XtcIi8IGHpp0sUZKT-1" vertex="1">
          <mxGeometry x="1180" y="880" width="120" height="60" as="geometry" />
        </mxCell>
        <mxCell id="fl6XtcIi8IGHpp0sUZKT-8" style="edgeStyle=orthogonalEdgeStyle;rounded=0;orthogonalLoop=1;jettySize=auto;html=1;exitX=1;exitY=0.75;exitDx=0;exitDy=0;entryX=0.25;entryY=1;entryDx=0;entryDy=0;dashed=1;" parent="fl6XtcIi8IGHpp0sUZKT-1" source="fl6XtcIi8IGHpp0sUZKT-9" target="fl6XtcIi8IGHpp0sUZKT-34" edge="1">
          <mxGeometry relative="1" as="geometry" />
        </mxCell>
        <mxCell id="fl6XtcIi8IGHpp0sUZKT-9" value="Provisioning" style="rounded=0;whiteSpace=wrap;html=1;fillColor=#60a917;strokeColor=#2D7600;fontColor=#ffffff;" parent="fl6XtcIi8IGHpp0sUZKT-1" vertex="1">
          <mxGeometry x="270" y="350" width="120" height="60" as="geometry" />
        </mxCell>
        <mxCell id="fl6XtcIi8IGHpp0sUZKT-10" style="edgeStyle=orthogonalEdgeStyle;rounded=0;orthogonalLoop=1;jettySize=auto;html=1;strokeColor=#CC0066;" parent="fl6XtcIi8IGHpp0sUZKT-1" source="fl6XtcIi8IGHpp0sUZKT-11" target="fl6XtcIi8IGHpp0sUZKT-7" edge="1">
          <mxGeometry relative="1" as="geometry" />
        </mxCell>
        <mxCell id="fl6XtcIi8IGHpp0sUZKT-11" value="Nad Manager" style="rounded=0;whiteSpace=wrap;html=1;fillColor=#60a917;strokeColor=#2D7600;fontColor=#ffffff;" parent="fl6XtcIi8IGHpp0sUZKT-1" vertex="1">
          <mxGeometry x="2430" y="880" width="130" height="60" as="geometry" />
        </mxCell>
        <mxCell id="fl6XtcIi8IGHpp0sUZKT-13" style="edgeStyle=orthogonalEdgeStyle;rounded=0;orthogonalLoop=1;jettySize=auto;html=1;exitX=0.5;exitY=0;exitDx=0;exitDy=0;entryX=0;entryY=0.5;entryDx=0;entryDy=0;strokeColor=#CC0066;" parent="fl6XtcIi8IGHpp0sUZKT-1" source="fl6XtcIi8IGHpp0sUZKT-15" target="fl6XtcIi8IGHpp0sUZKT-40" edge="1">
          <mxGeometry relative="1" as="geometry">
            <Array as="points">
              <mxPoint x="820" y="640" />
              <mxPoint x="740" y="640" />
              <mxPoint x="740" y="505" />
            </Array>
          </mxGeometry>
        </mxCell>
        <mxCell id="fl6XtcIi8IGHpp0sUZKT-14" style="edgeStyle=orthogonalEdgeStyle;rounded=0;orthogonalLoop=1;jettySize=auto;html=1;exitX=0;exitY=0.5;exitDx=0;exitDy=0;entryX=1;entryY=0.5;entryDx=0;entryDy=0;" parent="fl6XtcIi8IGHpp0sUZKT-1" source="fl6XtcIi8IGHpp0sUZKT-15" target="fl6XtcIi8IGHpp0sUZKT-37" edge="1">
          <mxGeometry relative="1" as="geometry" />
        </mxCell>
        <mxCell id="fl6XtcIi8IGHpp0sUZKT-15" value="request Manager" style="rounded=1;whiteSpace=wrap;html=1;fillColor=#ffffff;" parent="fl6XtcIi8IGHpp0sUZKT-1" vertex="1">
          <mxGeometry x="760" y="710" width="120" height="60" as="geometry" />
        </mxCell>
        <mxCell id="fl6XtcIi8IGHpp0sUZKT-24" value="" style="rounded=1;whiteSpace=wrap;html=1;gradientColor=#ffffff;fillColor=none;" parent="fl6XtcIi8IGHpp0sUZKT-1" vertex="1">
          <mxGeometry x="750" y="390" width="270" height="230" as="geometry" />
        </mxCell>
        <mxCell id="fl6XtcIi8IGHpp0sUZKT-25" style="edgeStyle=orthogonalEdgeStyle;rounded=0;orthogonalLoop=1;jettySize=auto;html=1;exitX=1;exitY=0.75;exitDx=0;exitDy=0;entryX=0.25;entryY=1;entryDx=0;entryDy=0;dashed=1;" parent="fl6XtcIi8IGHpp0sUZKT-1" source="fl6XtcIi8IGHpp0sUZKT-26" target="fl6XtcIi8IGHpp0sUZKT-34" edge="1">
          <mxGeometry relative="1" as="geometry" />
        </mxCell>
        <mxCell id="fl6XtcIi8IGHpp0sUZKT-26" value="Coding" style="rounded=0;whiteSpace=wrap;html=1;fillColor=#60a917;strokeColor=#2D7600;fontColor=#ffffff;" parent="fl6XtcIi8IGHpp0sUZKT-1" vertex="1">
          <mxGeometry x="270" y="460" width="120" height="60" as="geometry" />
        </mxCell>
        <mxCell id="fl6XtcIi8IGHpp0sUZKT-27" style="edgeStyle=orthogonalEdgeStyle;rounded=0;orthogonalLoop=1;jettySize=auto;html=1;exitX=1;exitY=0.75;exitDx=0;exitDy=0;entryX=0.25;entryY=1;entryDx=0;entryDy=0;dashed=1;" parent="fl6XtcIi8IGHpp0sUZKT-1" source="fl6XtcIi8IGHpp0sUZKT-28" target="fl6XtcIi8IGHpp0sUZKT-34" edge="1">
          <mxGeometry relative="1" as="geometry" />
        </mxCell>
        <mxCell id="fl6XtcIi8IGHpp0sUZKT-28" value="LPA" style="rounded=0;whiteSpace=wrap;html=1;fillColor=#60a917;strokeColor=#2D7600;fontColor=#ffffff;" parent="fl6XtcIi8IGHpp0sUZKT-1" vertex="1">
          <mxGeometry x="270" y="560" width="120" height="60" as="geometry" />
        </mxCell>
        <mxCell id="fl6XtcIi8IGHpp0sUZKT-29" style="edgeStyle=orthogonalEdgeStyle;rounded=0;orthogonalLoop=1;jettySize=auto;html=1;exitX=0;exitY=0.25;exitDx=0;exitDy=0;" parent="fl6XtcIi8IGHpp0sUZKT-1" source="fl6XtcIi8IGHpp0sUZKT-34" target="fl6XtcIi8IGHpp0sUZKT-9" edge="1">
          <mxGeometry relative="1" as="geometry" />
        </mxCell>
        <mxCell id="fl6XtcIi8IGHpp0sUZKT-30" style="edgeStyle=orthogonalEdgeStyle;rounded=0;orthogonalLoop=1;jettySize=auto;html=1;exitX=0;exitY=0.5;exitDx=0;exitDy=0;entryX=1;entryY=0.5;entryDx=0;entryDy=0;" parent="fl6XtcIi8IGHpp0sUZKT-1" source="fl6XtcIi8IGHpp0sUZKT-34" target="fl6XtcIi8IGHpp0sUZKT-26" edge="1">
          <mxGeometry relative="1" as="geometry" />
        </mxCell>
        <mxCell id="fl6XtcIi8IGHpp0sUZKT-31" style="edgeStyle=orthogonalEdgeStyle;rounded=0;orthogonalLoop=1;jettySize=auto;html=1;exitX=0;exitY=0.75;exitDx=0;exitDy=0;entryX=1;entryY=0.5;entryDx=0;entryDy=0;" parent="fl6XtcIi8IGHpp0sUZKT-1" source="fl6XtcIi8IGHpp0sUZKT-34" target="fl6XtcIi8IGHpp0sUZKT-28" edge="1">
          <mxGeometry relative="1" as="geometry" />
        </mxCell>
        <mxCell id="fl6XtcIi8IGHpp0sUZKT-32" style="edgeStyle=orthogonalEdgeStyle;rounded=0;orthogonalLoop=1;jettySize=auto;html=1;exitX=0.5;exitY=1;exitDx=0;exitDy=0;dashed=1;" parent="fl6XtcIi8IGHpp0sUZKT-1" source="fl6XtcIi8IGHpp0sUZKT-34" target="fl6XtcIi8IGHpp0sUZKT-37" edge="1">
          <mxGeometry relative="1" as="geometry" />
        </mxCell>
        <mxCell id="fl6XtcIi8IGHpp0sUZKT-33" style="edgeStyle=orthogonalEdgeStyle;rounded=0;orthogonalLoop=1;jettySize=auto;html=1;exitX=0.25;exitY=0;exitDx=0;exitDy=0;entryX=1;entryY=0.5;entryDx=0;entryDy=0;" parent="fl6XtcIi8IGHpp0sUZKT-1" source="fl6XtcIi8IGHpp0sUZKT-34" target="fl6XtcIi8IGHpp0sUZKT-58" edge="1">
          <mxGeometry relative="1" as="geometry" />
        </mxCell>
        <mxCell id="fl6XtcIi8IGHpp0sUZKT-34" value="Binder Proxy" style="rounded=0;whiteSpace=wrap;html=1;fillColor=#ffffff;" parent="fl6XtcIi8IGHpp0sUZKT-1" vertex="1">
          <mxGeometry x="520" y="300" width="100" height="60" as="geometry" />
        </mxCell>
        <mxCell id="fl6XtcIi8IGHpp0sUZKT-35" style="edgeStyle=orthogonalEdgeStyle;rounded=1;orthogonalLoop=1;jettySize=auto;html=1;exitX=1;exitY=0.75;exitDx=0;exitDy=0;entryX=0;entryY=0.75;entryDx=0;entryDy=0;dashed=1;" parent="fl6XtcIi8IGHpp0sUZKT-1" source="fl6XtcIi8IGHpp0sUZKT-37" target="fl6XtcIi8IGHpp0sUZKT-15" edge="1">
          <mxGeometry relative="1" as="geometry" />
        </mxCell>
        <mxCell id="fl6XtcIi8IGHpp0sUZKT-36" style="edgeStyle=orthogonalEdgeStyle;rounded=0;orthogonalLoop=1;jettySize=auto;html=1;exitX=0.75;exitY=0;exitDx=0;exitDy=0;entryX=0;entryY=0.5;entryDx=0;entryDy=0;dashed=1;strokeColor=#CC0066;" parent="fl6XtcIi8IGHpp0sUZKT-1" source="fl6XtcIi8IGHpp0sUZKT-37" target="fl6XtcIi8IGHpp0sUZKT-24" edge="1">
          <mxGeometry relative="1" as="geometry" />
        </mxCell>
        <mxCell id="fl6XtcIi8IGHpp0sUZKT-37" value="Asynchronous Manager" style="rounded=1;whiteSpace=wrap;html=1;fillColor=#ffffff;" parent="fl6XtcIi8IGHpp0sUZKT-1" vertex="1">
          <mxGeometry x="510" y="710" width="120" height="60" as="geometry" />
        </mxCell>
        <mxCell id="fl6XtcIi8IGHpp0sUZKT-38" value="create Promise&amp;nbsp;" style="text;html=1;strokeColor=none;fillColor=none;align=center;verticalAlign=middle;whiteSpace=wrap;rounded=0;" parent="fl6XtcIi8IGHpp0sUZKT-1" vertex="1">
          <mxGeometry x="650" y="720" width="90" height="20" as="geometry" />
        </mxCell>
        <mxCell id="fl6XtcIi8IGHpp0sUZKT-39" value="Send request with promise" style="text;html=1;strokeColor=none;fillColor=none;align=center;verticalAlign=middle;whiteSpace=wrap;rounded=0;" parent="fl6XtcIi8IGHpp0sUZKT-1" vertex="1">
          <mxGeometry x="830" y="670" width="100" height="20" as="geometry" />
        </mxCell>
        <mxCell id="fl6XtcIi8IGHpp0sUZKT-40" value="" style="ellipse;whiteSpace=wrap;html=1;aspect=fixed;fillColor=#d5e8d4;strokeColor=#82b366;" parent="fl6XtcIi8IGHpp0sUZKT-1" vertex="1">
          <mxGeometry x="760" y="490" width="30" height="30" as="geometry" />
        </mxCell>
        <mxCell id="fl6XtcIi8IGHpp0sUZKT-41" value="" style="ellipse;whiteSpace=wrap;html=1;aspect=fixed;fillColor=#d5e8d4;strokeColor=#82b366;" parent="fl6XtcIi8IGHpp0sUZKT-1" vertex="1">
          <mxGeometry x="790" y="490" width="30" height="30" as="geometry" />
        </mxCell>
        <mxCell id="fl6XtcIi8IGHpp0sUZKT-42" style="edgeStyle=orthogonalEdgeStyle;rounded=0;orthogonalLoop=1;jettySize=auto;html=1;exitX=1;exitY=0.5;exitDx=0;exitDy=0;entryX=0;entryY=0.5;entryDx=0;entryDy=0;" parent="fl6XtcIi8IGHpp0sUZKT-1" source="fl6XtcIi8IGHpp0sUZKT-44" target="fl6XtcIi8IGHpp0sUZKT-45" edge="1">
          <mxGeometry relative="1" as="geometry" />
        </mxCell>
        <mxCell id="fl6XtcIi8IGHpp0sUZKT-43" style="edgeStyle=orthogonalEdgeStyle;rounded=0;orthogonalLoop=1;jettySize=auto;html=1;exitX=1;exitY=1;exitDx=0;exitDy=0;entryX=0;entryY=0.75;entryDx=0;entryDy=0;" parent="fl6XtcIi8IGHpp0sUZKT-1" source="fl6XtcIi8IGHpp0sUZKT-44" target="fl6XtcIi8IGHpp0sUZKT-47" edge="1">
          <mxGeometry relative="1" as="geometry" />
        </mxCell>
        <mxCell id="fl6XtcIi8IGHpp0sUZKT-44" value="" style="ellipse;whiteSpace=wrap;html=1;aspect=fixed;fillColor=#d5e8d4;strokeColor=#82b366;" parent="fl6XtcIi8IGHpp0sUZKT-1" vertex="1">
          <mxGeometry x="820" y="490" width="30" height="30" as="geometry" />
        </mxCell>
        <mxCell id="fl6XtcIi8IGHpp0sUZKT-45" value="worker" style="rounded=1;whiteSpace=wrap;html=1;fillColor=#ffffff;" parent="fl6XtcIi8IGHpp0sUZKT-1" vertex="1">
          <mxGeometry x="900" y="460" width="90" height="40" as="geometry" />
        </mxCell>
        <mxCell id="fl6XtcIi8IGHpp0sUZKT-46" style="edgeStyle=orthogonalEdgeStyle;rounded=0;orthogonalLoop=1;jettySize=auto;html=1;exitX=1;exitY=0.5;exitDx=0;exitDy=0;entryX=0.75;entryY=0;entryDx=0;entryDy=0;dashed=1;" parent="fl6XtcIi8IGHpp0sUZKT-1" source="fl6XtcIi8IGHpp0sUZKT-47" target="fl6XtcIi8IGHpp0sUZKT-7" edge="1">
          <mxGeometry relative="1" as="geometry" />
        </mxCell>
        <mxCell id="fl6XtcIi8IGHpp0sUZKT-47" value="worker" style="rounded=1;whiteSpace=wrap;html=1;fillColor=#ffffff;" parent="fl6XtcIi8IGHpp0sUZKT-1" vertex="1">
          <mxGeometry x="900" y="530" width="90" height="40" as="geometry" />
        </mxCell>
        <mxCell id="fl6XtcIi8IGHpp0sUZKT-48" style="edgeStyle=orthogonalEdgeStyle;rounded=0;orthogonalLoop=1;jettySize=auto;html=1;exitX=0.5;exitY=0;exitDx=0;exitDy=0;entryX=1;entryY=0.25;entryDx=0;entryDy=0;" parent="fl6XtcIi8IGHpp0sUZKT-1" source="fl6XtcIi8IGHpp0sUZKT-45" target="fl6XtcIi8IGHpp0sUZKT-34" edge="1">
          <mxGeometry relative="1" as="geometry">
            <mxPoint x="1000" y="470" as="sourcePoint" />
          </mxGeometry>
        </mxCell>
        <mxCell id="fl6XtcIi8IGHpp0sUZKT-49" value="Promise fullfill" style="text;html=1;strokeColor=none;fillColor=none;align=center;verticalAlign=middle;whiteSpace=wrap;rounded=0;" parent="fl6XtcIi8IGHpp0sUZKT-1" vertex="1">
          <mxGeometry x="570" y="620" width="40" height="20" as="geometry" />
        </mxCell>
        <mxCell id="fl6XtcIi8IGHpp0sUZKT-50" value="Response" style="text;html=1;strokeColor=none;fillColor=none;align=center;verticalAlign=middle;whiteSpace=wrap;rounded=0;" parent="fl6XtcIi8IGHpp0sUZKT-1" vertex="1">
          <mxGeometry x="500" y="410" width="40" height="20" as="geometry" />
        </mxCell>
        <mxCell id="fl6XtcIi8IGHpp0sUZKT-51" value="sendRequest" style="text;html=1;strokeColor=none;fillColor=none;align=center;verticalAlign=middle;whiteSpace=wrap;rounded=0;" parent="fl6XtcIi8IGHpp0sUZKT-1" vertex="1">
          <mxGeometry x="950" y="340" width="70" height="20" as="geometry" />
        </mxCell>
        <mxCell id="fl6XtcIi8IGHpp0sUZKT-52" value="invoke continuation&amp;nbsp;" style="text;html=1;strokeColor=none;fillColor=none;align=center;verticalAlign=middle;whiteSpace=wrap;rounded=0;" parent="fl6XtcIi8IGHpp0sUZKT-1" vertex="1">
          <mxGeometry x="600" y="540" width="40" height="20" as="geometry" />
        </mxCell>
        <mxCell id="fl6XtcIi8IGHpp0sUZKT-53" value="response" style="text;html=1;strokeColor=none;fillColor=none;align=center;verticalAlign=middle;whiteSpace=wrap;rounded=0;" parent="fl6XtcIi8IGHpp0sUZKT-1" vertex="1">
          <mxGeometry x="1380" y="870" width="40" height="20" as="geometry" />
        </mxCell>
        <mxCell id="fl6XtcIi8IGHpp0sUZKT-54" value="request" style="text;html=1;strokeColor=none;fillColor=none;align=center;verticalAlign=middle;whiteSpace=wrap;rounded=0;" parent="fl6XtcIi8IGHpp0sUZKT-1" vertex="1">
          <mxGeometry x="1380" y="920" width="40" height="20" as="geometry" />
        </mxCell>
        <mxCell id="fl6XtcIi8IGHpp0sUZKT-56" value="invoke continuation&amp;nbsp;" style="text;html=1;strokeColor=none;fillColor=none;align=center;verticalAlign=middle;whiteSpace=wrap;rounded=0;" parent="fl6XtcIi8IGHpp0sUZKT-1" vertex="1">
          <mxGeometry x="1210" y="520" width="40" height="20" as="geometry" />
        </mxCell>
        <mxCell id="fl6XtcIi8IGHpp0sUZKT-57" style="edgeStyle=orthogonalEdgeStyle;rounded=0;orthogonalLoop=1;jettySize=auto;html=1;exitX=1;exitY=0.75;exitDx=0;exitDy=0;dashed=1;" parent="fl6XtcIi8IGHpp0sUZKT-1" source="fl6XtcIi8IGHpp0sUZKT-58" edge="1">
          <mxGeometry relative="1" as="geometry">
            <mxPoint x="550" y="360" as="targetPoint" />
            <Array as="points">
              <mxPoint x="540" y="695" />
              <mxPoint x="540" y="360" />
            </Array>
          </mxGeometry>
        </mxCell>
        <mxCell id="fl6XtcIi8IGHpp0sUZKT-58" value="Diagnostic" style="rounded=0;whiteSpace=wrap;html=1;fillColor=#60a917;strokeColor=#2D7600;fontColor=#ffffff;" parent="fl6XtcIi8IGHpp0sUZKT-1" vertex="1">
          <mxGeometry x="270" y="650" width="120" height="60" as="geometry" />
        </mxCell>
        <mxCell id="fl6XtcIi8IGHpp0sUZKT-60" value="" style="rounded=0;whiteSpace=wrap;html=1;fillColor=none;gradientColor=#ffffff;" parent="fl6XtcIi8IGHpp0sUZKT-1" vertex="1">
          <mxGeometry x="760" y="490" width="100" height="30" as="geometry" />
        </mxCell>
        <mxCell id="fl6XtcIi8IGHpp0sUZKT-61" value="" style="rounded=0;whiteSpace=wrap;html=1;strokeColor=#d6b656;fillColor=none;" parent="fl6XtcIi8IGHpp0sUZKT-1" vertex="1">
          <mxGeometry x="890" y="440" width="110" height="150" as="geometry" />
        </mxCell>
        <mxCell id="fl6XtcIi8IGHpp0sUZKT-62" value="Task executor" style="text;html=1;strokeColor=none;fillColor=none;align=center;verticalAlign=middle;whiteSpace=wrap;rounded=0;" parent="fl6XtcIi8IGHpp0sUZKT-1" vertex="1">
          <mxGeometry x="760" y="400" width="40" height="20" as="geometry" />
        </mxCell>
        <mxCell id="fl6XtcIi8IGHpp0sUZKT-63" value="thread pool" style="text;html=1;strokeColor=none;fillColor=none;align=center;verticalAlign=middle;whiteSpace=wrap;rounded=0;" parent="fl6XtcIi8IGHpp0sUZKT-1" vertex="1">
          <mxGeometry x="920" y="590" width="70" height="20" as="geometry" />
        </mxCell>
        <mxCell id="fl6XtcIi8IGHpp0sUZKT-64" value="task queue" style="text;html=1;strokeColor=none;fillColor=none;align=center;verticalAlign=middle;whiteSpace=wrap;rounded=0;" parent="fl6XtcIi8IGHpp0sUZKT-1" vertex="1">
          <mxGeometry x="777.5" y="520" width="65" height="20" as="geometry" />
        </mxCell>
        <mxCell id="fl6XtcIi8IGHpp0sUZKT-66" value="" style="rounded=0;whiteSpace=wrap;html=1;fillColor=none;gradientColor=none;" parent="fl6XtcIi8IGHpp0sUZKT-1" vertex="1">
          <mxGeometry x="2180" y="1020" width="230" height="190" as="geometry" />
        </mxCell>
        <mxCell id="fl6XtcIi8IGHpp0sUZKT-67" value="Key" style="text;html=1;strokeColor=none;fillColor=none;align=center;verticalAlign=middle;whiteSpace=wrap;rounded=0;" parent="fl6XtcIi8IGHpp0sUZKT-1" vertex="1">
          <mxGeometry x="2190" y="1030" width="40" height="20" as="geometry" />
        </mxCell>
        <mxCell id="fl6XtcIi8IGHpp0sUZKT-68" value="" style="endArrow=classic;html=1;rounded=0;" parent="fl6XtcIi8IGHpp0sUZKT-1" edge="1">
          <mxGeometry width="50" height="50" relative="1" as="geometry">
            <mxPoint x="2190" y="1070" as="sourcePoint" />
            <mxPoint x="2250" y="1070" as="targetPoint" />
          </mxGeometry>
        </mxCell>
        <mxCell id="fl6XtcIi8IGHpp0sUZKT-69" value="Request call" style="text;html=1;strokeColor=none;fillColor=none;align=center;verticalAlign=middle;whiteSpace=wrap;rounded=0;" parent="fl6XtcIi8IGHpp0sUZKT-1" vertex="1">
          <mxGeometry x="2263" y="1060" width="85" height="20" as="geometry" />
        </mxCell>
        <mxCell id="fl6XtcIi8IGHpp0sUZKT-70" value="" style="endArrow=classic;html=1;dashed=1;" parent="fl6XtcIi8IGHpp0sUZKT-1" edge="1">
          <mxGeometry width="50" height="50" relative="1" as="geometry">
            <mxPoint x="2190" y="1090" as="sourcePoint" />
            <mxPoint x="2250" y="1090" as="targetPoint" />
          </mxGeometry>
        </mxCell>
        <mxCell id="fl6XtcIi8IGHpp0sUZKT-71" value="Response call" style="text;html=1;strokeColor=none;fillColor=none;align=center;verticalAlign=middle;whiteSpace=wrap;rounded=0;" parent="fl6XtcIi8IGHpp0sUZKT-1" vertex="1">
          <mxGeometry x="2265" y="1080" width="85" height="20" as="geometry" />
        </mxCell>
        <mxCell id="fl6XtcIi8IGHpp0sUZKT-72" value="" style="endArrow=classic;html=1;strokeColor=#CC0066;" parent="fl6XtcIi8IGHpp0sUZKT-1" edge="1">
          <mxGeometry width="50" height="50" relative="1" as="geometry">
            <mxPoint x="2190" y="1120" as="sourcePoint" />
            <mxPoint x="2250" y="1120" as="targetPoint" />
          </mxGeometry>
        </mxCell>
        <mxCell id="fl6XtcIi8IGHpp0sUZKT-73" value="Asynchronous call" style="text;html=1;strokeColor=none;fillColor=none;align=center;verticalAlign=middle;whiteSpace=wrap;rounded=0;" parent="fl6XtcIi8IGHpp0sUZKT-1" vertex="1">
          <mxGeometry x="2265" y="1110" width="115" height="20" as="geometry" />
        </mxCell>
        <mxCell id="fl6XtcIi8IGHpp0sUZKT-74" value="" style="rounded=0;whiteSpace=wrap;html=1;fillColor=#60a917;strokeColor=#2D7600;fontColor=#ffffff;" parent="fl6XtcIi8IGHpp0sUZKT-1" vertex="1">
          <mxGeometry x="2192" y="1170" width="70" height="30" as="geometry" />
        </mxCell>
        <mxCell id="fl6XtcIi8IGHpp0sUZKT-75" value="External entity" style="text;html=1;strokeColor=none;fillColor=none;align=center;verticalAlign=middle;whiteSpace=wrap;rounded=0;" parent="fl6XtcIi8IGHpp0sUZKT-1" vertex="1">
          <mxGeometry x="2265" y="1180" width="85" height="20" as="geometry" />
        </mxCell>
        <mxCell id="fl6XtcIi8IGHpp0sUZKT-76" value="" style="endArrow=classic;html=1;strokeColor=#CC0066;dashed=1;" parent="fl6XtcIi8IGHpp0sUZKT-1" edge="1">
          <mxGeometry width="50" height="50" relative="1" as="geometry">
            <mxPoint x="2190" y="1140" as="sourcePoint" />
            <mxPoint x="2250" y="1140" as="targetPoint" />
          </mxGeometry>
        </mxCell>
        <mxCell id="fl6XtcIi8IGHpp0sUZKT-78" value="" style="shape=folder;fontStyle=1;tabWidth=160;tabHeight=30;tabPosition=left;html=1;boundedLbl=1;fillColor=#dae8fc;strokeColor=#6c8ebf;" parent="fl6XtcIi8IGHpp0sUZKT-1" vertex="1">
          <mxGeometry x="1460" y="225" width="920" height="565" as="geometry" />
        </mxCell>
        <mxCell id="fl6XtcIi8IGHpp0sUZKT-79" value="Request State monitor" style="text;html=1;strokeColor=none;fillColor=none;align=center;verticalAlign=middle;whiteSpace=wrap;rounded=0;" parent="fl6XtcIi8IGHpp0sUZKT-1" vertex="1">
          <mxGeometry x="1460" y="230" width="150" height="20" as="geometry" />
        </mxCell>
        <mxCell id="fl6XtcIi8IGHpp0sUZKT-80" value="" style="endArrow=classic;html=1;strokeColor=#CC0066;" parent="fl6XtcIi8IGHpp0sUZKT-1" target="fl6XtcIi8IGHpp0sUZKT-88" edge="1">
          <mxGeometry width="50" height="50" relative="1" as="geometry">
            <mxPoint x="945" y="379.5" as="sourcePoint" />
            <mxPoint x="1460" y="380" as="targetPoint" />
          </mxGeometry>
        </mxCell>
        <mxCell id="fl6XtcIi8IGHpp0sUZKT-81" value="" style="endArrow=classic;html=1;strokeColor=#CC0066;entryX=0;entryY=0.5;entryDx=0;entryDy=0;" parent="fl6XtcIi8IGHpp0sUZKT-1" target="fl6XtcIi8IGHpp0sUZKT-89" edge="1">
          <mxGeometry width="50" height="50" relative="1" as="geometry">
            <mxPoint x="1270" y="620" as="sourcePoint" />
            <mxPoint x="1460" y="621" as="targetPoint" />
          </mxGeometry>
        </mxCell>
        <mxCell id="fl6XtcIi8IGHpp0sUZKT-82" value="&lt;font color=&quot;#0000cc&quot;&gt;Heartbeat&lt;br&gt;StartRequest&lt;/font&gt;" style="text;html=1;strokeColor=none;fillColor=none;align=center;verticalAlign=middle;whiteSpace=wrap;rounded=0;" parent="fl6XtcIi8IGHpp0sUZKT-1" vertex="1">
          <mxGeometry x="1180" y="350" width="40" height="20" as="geometry" />
        </mxCell>
        <mxCell id="fl6XtcIi8IGHpp0sUZKT-85" value="&lt;font color=&quot;#0000cc&quot;&gt;Heartbeat&lt;br&gt;SendRespone&lt;/font&gt;" style="text;html=1;strokeColor=none;fillColor=none;align=center;verticalAlign=middle;whiteSpace=wrap;rounded=0;" parent="fl6XtcIi8IGHpp0sUZKT-1" vertex="1">
          <mxGeometry x="1350" y="590" width="40" height="20" as="geometry" />
        </mxCell>
        <mxCell id="fl6XtcIi8IGHpp0sUZKT-86" value="Delay tracker" style="rounded=0;whiteSpace=wrap;html=1;" parent="fl6XtcIi8IGHpp0sUZKT-1" vertex="1">
          <mxGeometry x="1560" y="710" width="120" height="60" as="geometry" />
        </mxCell>
        <mxCell id="pWcmyeniTXokh5e1vHhV-45" style="edgeStyle=orthogonalEdgeStyle;rounded=0;orthogonalLoop=1;jettySize=auto;html=1;exitX=1;exitY=0.5;exitDx=0;exitDy=0;entryX=0;entryY=0.25;entryDx=0;entryDy=0;startArrow=none;startFill=0;endArrow=classic;endFill=1;strokeColor=#000000;" parent="fl6XtcIi8IGHpp0sUZKT-1" source="fl6XtcIi8IGHpp0sUZKT-87" target="pWcmyeniTXokh5e1vHhV-41" edge="1">
          <mxGeometry relative="1" as="geometry">
            <Array as="points">
              <mxPoint x="1680" y="448" />
              <mxPoint x="1725" y="448" />
            </Array>
          </mxGeometry>
        </mxCell>
        <mxCell id="fl6XtcIi8IGHpp0sUZKT-87" value="Entry updater" style="rounded=0;whiteSpace=wrap;html=1;" parent="fl6XtcIi8IGHpp0sUZKT-1" vertex="1">
          <mxGeometry x="1560" y="420" width="120" height="60" as="geometry" />
        </mxCell>
        <mxCell id="fl6XtcIi8IGHpp0sUZKT-88" value="" style="whiteSpace=wrap;html=1;aspect=fixed;fillColor=#B3B3B3;" parent="fl6XtcIi8IGHpp0sUZKT-1" vertex="1">
          <mxGeometry x="1450" y="370" width="20" height="20" as="geometry" />
        </mxCell>
        <mxCell id="fl6XtcIi8IGHpp0sUZKT-89" value="" style="whiteSpace=wrap;html=1;aspect=fixed;fillColor=#B3B3B3;" parent="fl6XtcIi8IGHpp0sUZKT-1" vertex="1">
          <mxGeometry x="1450" y="610" width="20" height="20" as="geometry" />
        </mxCell>
        <mxCell id="fl6XtcIi8IGHpp0sUZKT-90" value="" style="endArrow=classic;html=1;strokeColor=#CC0066;entryX=0.5;entryY=0;entryDx=0;entryDy=0;" parent="fl6XtcIi8IGHpp0sUZKT-1" target="fl6XtcIi8IGHpp0sUZKT-87" edge="1">
          <mxGeometry width="50" height="50" relative="1" as="geometry">
            <mxPoint x="1470" y="379.5" as="sourcePoint" />
            <mxPoint x="1975" y="379.990291262136" as="targetPoint" />
            <Array as="points">
              <mxPoint x="1620" y="380" />
            </Array>
          </mxGeometry>
        </mxCell>
        <mxCell id="pWcmyeniTXokh5e1vHhV-0" value="" style="endArrow=classic;html=1;strokeColor=#CC0066;entryX=0.5;entryY=1;entryDx=0;entryDy=0;exitX=1;exitY=0.5;exitDx=0;exitDy=0;" parent="fl6XtcIi8IGHpp0sUZKT-1" source="fl6XtcIi8IGHpp0sUZKT-89" target="fl6XtcIi8IGHpp0sUZKT-87" edge="1">
          <mxGeometry width="50" height="50" relative="1" as="geometry">
            <mxPoint x="1480" y="389.5" as="sourcePoint" />
            <mxPoint x="1570" y="460" as="targetPoint" />
            <Array as="points">
              <mxPoint x="1620" y="620" />
            </Array>
          </mxGeometry>
        </mxCell>
        <mxCell id="pWcmyeniTXokh5e1vHhV-43" value="" style="group" parent="fl6XtcIi8IGHpp0sUZKT-1" vertex="1" connectable="0">
          <mxGeometry x="1770" y="370" width="600" height="310" as="geometry" />
        </mxCell>
        <mxCell id="pWcmyeniTXokh5e1vHhV-41" value="" style="rounded=0;whiteSpace=wrap;html=1;fillColor=none;gradientColor=#ffffff;" parent="pWcmyeniTXokh5e1vHhV-43" vertex="1">
          <mxGeometry width="590" height="310" as="geometry" />
        </mxCell>
        <mxCell id="pWcmyeniTXokh5e1vHhV-42" value="" style="group" parent="pWcmyeniTXokh5e1vHhV-43" vertex="1" connectable="0">
          <mxGeometry x="20" y="10" width="580" height="277.5" as="geometry" />
        </mxCell>
        <mxCell id="pWcmyeniTXokh5e1vHhV-1" value="&lt;font size=&quot;1&quot;&gt;&lt;b style=&quot;font-size: 20px&quot;&gt;Keys&lt;/b&gt;&lt;/font&gt;" style="text;html=1;strokeColor=none;fillColor=none;align=center;verticalAlign=middle;whiteSpace=wrap;rounded=0;" parent="pWcmyeniTXokh5e1vHhV-42" vertex="1">
          <mxGeometry x="30" width="40" height="20" as="geometry" />
        </mxCell>
        <mxCell id="pWcmyeniTXokh5e1vHhV-2" value="Provisioning Request&amp;nbsp;" style="rounded=0;whiteSpace=wrap;html=1;fillColor=#0050ef;strokeColor=#001DBC;fontColor=#ffffff;" parent="pWcmyeniTXokh5e1vHhV-42" vertex="1">
          <mxGeometry y="70" width="120" height="30" as="geometry" />
        </mxCell>
        <mxCell id="pWcmyeniTXokh5e1vHhV-4" value="&lt;b&gt;&lt;font style=&quot;font-size: 20px&quot;&gt;Entries&lt;/font&gt;&lt;/b&gt;" style="text;html=1;strokeColor=none;fillColor=none;align=center;verticalAlign=middle;whiteSpace=wrap;rounded=0;" parent="pWcmyeniTXokh5e1vHhV-42" vertex="1">
          <mxGeometry x="435" width="40" height="20" as="geometry" />
        </mxCell>
        <mxCell id="pWcmyeniTXokh5e1vHhV-6" value="001" style="whiteSpace=wrap;html=1;aspect=fixed;fillColor=#dae8fc;strokeColor=#6c8ebf;" parent="pWcmyeniTXokh5e1vHhV-42" vertex="1">
          <mxGeometry x="280" y="70" width="30" height="30" as="geometry" />
        </mxCell>
        <mxCell id="pWcmyeniTXokh5e1vHhV-7" style="edgeStyle=orthogonalEdgeStyle;rounded=0;orthogonalLoop=1;jettySize=auto;html=1;exitX=1;exitY=0.75;exitDx=0;exitDy=0;entryX=1;entryY=1;entryDx=0;entryDy=0;startArrow=none;startFill=0;endArrow=classic;endFill=1;strokeColor=#CC0066;" parent="pWcmyeniTXokh5e1vHhV-42" source="pWcmyeniTXokh5e1vHhV-6" target="pWcmyeniTXokh5e1vHhV-6" edge="1">
          <mxGeometry relative="1" as="geometry" />
        </mxCell>
        <mxCell id="pWcmyeniTXokh5e1vHhV-8" value="&lt;font size=&quot;1&quot;&gt;&lt;b style=&quot;font-size: 20px&quot;&gt;Hash function&lt;/b&gt;&lt;/font&gt;" style="text;html=1;strokeColor=none;fillColor=none;align=center;verticalAlign=middle;whiteSpace=wrap;rounded=0;" parent="pWcmyeniTXokh5e1vHhV-42" vertex="1">
          <mxGeometry x="160" width="160" height="20" as="geometry" />
        </mxCell>
        <mxCell id="pWcmyeniTXokh5e1vHhV-10" value="LPA Request&amp;nbsp;" style="rounded=0;whiteSpace=wrap;html=1;fillColor=#d5e8d4;strokeColor=#82b366;" parent="pWcmyeniTXokh5e1vHhV-42" vertex="1">
          <mxGeometry x="320" y="65" width="100" height="35" as="geometry" />
        </mxCell>
        <mxCell id="pWcmyeniTXokh5e1vHhV-11" value="123" style="rounded=0;whiteSpace=wrap;html=1;fillColor=#d5e8d4;strokeColor=#82b366;" parent="pWcmyeniTXokh5e1vHhV-42" vertex="1">
          <mxGeometry x="430" y="65" width="50" height="35" as="geometry" />
        </mxCell>
        <mxCell id="pWcmyeniTXokh5e1vHhV-12" value="153" style="rounded=0;whiteSpace=wrap;html=1;fillColor=#d5e8d4;strokeColor=#82b366;" parent="pWcmyeniTXokh5e1vHhV-42" vertex="1">
          <mxGeometry x="490" y="65" width="50" height="35" as="geometry" />
        </mxCell>
        <mxCell id="pWcmyeniTXokh5e1vHhV-13" value="&lt;font color=&quot;#0000cc&quot;&gt;API name&lt;/font&gt;" style="text;html=1;strokeColor=none;fillColor=none;align=center;verticalAlign=middle;whiteSpace=wrap;rounded=0;" parent="pWcmyeniTXokh5e1vHhV-42" vertex="1">
          <mxGeometry x="315" y="45" width="110" height="20" as="geometry" />
        </mxCell>
        <mxCell id="pWcmyeniTXokh5e1vHhV-14" value="&lt;font color=&quot;#0000cc&quot;&gt;Start &lt;br&gt;timestamp&lt;/font&gt;" style="text;html=1;strokeColor=none;fillColor=none;align=center;verticalAlign=middle;whiteSpace=wrap;rounded=0;" parent="pWcmyeniTXokh5e1vHhV-42" vertex="1">
          <mxGeometry x="400" y="40" width="110" height="20" as="geometry" />
        </mxCell>
        <mxCell id="pWcmyeniTXokh5e1vHhV-15" value="&lt;font color=&quot;#0000cc&quot;&gt;Limit&lt;br&gt;timestamp&lt;/font&gt;" style="text;html=1;strokeColor=none;fillColor=none;align=center;verticalAlign=middle;whiteSpace=wrap;rounded=0;" parent="pWcmyeniTXokh5e1vHhV-42" vertex="1">
          <mxGeometry x="470" y="40" width="110" height="20" as="geometry" />
        </mxCell>
        <mxCell id="pWcmyeniTXokh5e1vHhV-17" value="" style="rounded=0;whiteSpace=wrap;html=1;gradientColor=#ffffff;fillColor=none;" parent="pWcmyeniTXokh5e1vHhV-42" vertex="1">
          <mxGeometry x="160" y="30" width="100" height="240" as="geometry" />
        </mxCell>
        <mxCell id="pWcmyeniTXokh5e1vHhV-18" value="Coding Request&amp;nbsp;" style="rounded=0;whiteSpace=wrap;html=1;fillColor=#0050ef;strokeColor=#001DBC;fontColor=#ffffff;" parent="pWcmyeniTXokh5e1vHhV-42" vertex="1">
          <mxGeometry y="125" width="120" height="30" as="geometry" />
        </mxCell>
        <mxCell id="pWcmyeniTXokh5e1vHhV-20" value="002" style="whiteSpace=wrap;html=1;aspect=fixed;fillColor=#dae8fc;strokeColor=#6c8ebf;" parent="pWcmyeniTXokh5e1vHhV-42" vertex="1">
          <mxGeometry x="280" y="125" width="30" height="30" as="geometry" />
        </mxCell>
        <mxCell id="pWcmyeniTXokh5e1vHhV-21" value="Diagnostic Request&amp;nbsp;" style="rounded=0;whiteSpace=wrap;html=1;fillColor=#d5e8d4;strokeColor=#82b366;" parent="pWcmyeniTXokh5e1vHhV-42" vertex="1">
          <mxGeometry x="320" y="120" width="100" height="35" as="geometry" />
        </mxCell>
        <mxCell id="pWcmyeniTXokh5e1vHhV-22" value="235" style="rounded=0;whiteSpace=wrap;html=1;fillColor=#d5e8d4;strokeColor=#82b366;" parent="pWcmyeniTXokh5e1vHhV-42" vertex="1">
          <mxGeometry x="430" y="120" width="50" height="35" as="geometry" />
        </mxCell>
        <mxCell id="pWcmyeniTXokh5e1vHhV-23" value="265" style="rounded=0;whiteSpace=wrap;html=1;fillColor=#d5e8d4;strokeColor=#82b366;" parent="pWcmyeniTXokh5e1vHhV-42" vertex="1">
          <mxGeometry x="490" y="120" width="50" height="35" as="geometry" />
        </mxCell>
        <mxCell id="pWcmyeniTXokh5e1vHhV-24" value="005" style="whiteSpace=wrap;html=1;aspect=fixed;fillColor=#dae8fc;strokeColor=#6c8ebf;" parent="pWcmyeniTXokh5e1vHhV-42" vertex="1">
          <mxGeometry x="280" y="185" width="30" height="30" as="geometry" />
        </mxCell>
        <mxCell id="pWcmyeniTXokh5e1vHhV-25" value="Provisioning Request&amp;nbsp;" style="rounded=0;whiteSpace=wrap;html=1;fillColor=#d5e8d4;strokeColor=#82b366;" parent="pWcmyeniTXokh5e1vHhV-42" vertex="1">
          <mxGeometry x="320" y="180" width="100" height="35" as="geometry" />
        </mxCell>
        <mxCell id="pWcmyeniTXokh5e1vHhV-26" value="2" style="rounded=0;whiteSpace=wrap;html=1;fillColor=#d5e8d4;strokeColor=#82b366;" parent="pWcmyeniTXokh5e1vHhV-42" vertex="1">
          <mxGeometry x="430" y="180" width="50" height="35" as="geometry" />
        </mxCell>
        <mxCell id="pWcmyeniTXokh5e1vHhV-27" value="32" style="rounded=0;whiteSpace=wrap;html=1;fillColor=#d5e8d4;strokeColor=#82b366;" parent="pWcmyeniTXokh5e1vHhV-42" vertex="1">
          <mxGeometry x="490" y="180" width="50" height="35" as="geometry" />
        </mxCell>
        <mxCell id="pWcmyeniTXokh5e1vHhV-28" value="006" style="whiteSpace=wrap;html=1;aspect=fixed;fillColor=#dae8fc;strokeColor=#6c8ebf;" parent="pWcmyeniTXokh5e1vHhV-42" vertex="1">
          <mxGeometry x="280" y="247.5" width="30" height="30" as="geometry" />
        </mxCell>
        <mxCell id="pWcmyeniTXokh5e1vHhV-29" value="Coding Request&amp;nbsp;" style="rounded=0;whiteSpace=wrap;html=1;fillColor=#d5e8d4;strokeColor=#82b366;" parent="pWcmyeniTXokh5e1vHhV-42" vertex="1">
          <mxGeometry x="320" y="242.5" width="100" height="35" as="geometry" />
        </mxCell>
        <mxCell id="pWcmyeniTXokh5e1vHhV-30" value="10" style="rounded=0;whiteSpace=wrap;html=1;fillColor=#d5e8d4;strokeColor=#82b366;" parent="pWcmyeniTXokh5e1vHhV-42" vertex="1">
          <mxGeometry x="430" y="242.5" width="50" height="35" as="geometry" />
        </mxCell>
        <mxCell id="pWcmyeniTXokh5e1vHhV-31" value="40" style="rounded=0;whiteSpace=wrap;html=1;fillColor=#d5e8d4;strokeColor=#82b366;" parent="pWcmyeniTXokh5e1vHhV-42" vertex="1">
          <mxGeometry x="490" y="242.5" width="50" height="35" as="geometry" />
        </mxCell>
        <mxCell id="pWcmyeniTXokh5e1vHhV-38" style="edgeStyle=orthogonalEdgeStyle;orthogonalLoop=1;jettySize=auto;html=1;exitX=1;exitY=0.5;exitDx=0;exitDy=0;entryX=0;entryY=0.75;entryDx=0;entryDy=0;startArrow=none;startFill=0;endArrow=classic;endFill=1;strokeColor=#000000;rounded=1;" parent="pWcmyeniTXokh5e1vHhV-42" source="pWcmyeniTXokh5e1vHhV-32" target="pWcmyeniTXokh5e1vHhV-6" edge="1">
          <mxGeometry relative="1" as="geometry">
            <Array as="points">
              <mxPoint x="180" y="195" />
              <mxPoint x="180" y="93" />
            </Array>
          </mxGeometry>
        </mxCell>
        <mxCell id="pWcmyeniTXokh5e1vHhV-32" value="LPA Request&amp;nbsp;" style="rounded=0;whiteSpace=wrap;html=1;fillColor=#0050ef;strokeColor=#001DBC;fontColor=#ffffff;" parent="pWcmyeniTXokh5e1vHhV-42" vertex="1">
          <mxGeometry y="180" width="120" height="30" as="geometry" />
        </mxCell>
        <mxCell id="pWcmyeniTXokh5e1vHhV-40" style="edgeStyle=orthogonalEdgeStyle;rounded=1;orthogonalLoop=1;jettySize=auto;html=1;exitX=1;exitY=0.5;exitDx=0;exitDy=0;entryX=0;entryY=0.5;entryDx=0;entryDy=0;startArrow=none;startFill=0;endArrow=classic;endFill=1;strokeColor=#000000;" parent="pWcmyeniTXokh5e1vHhV-42" source="pWcmyeniTXokh5e1vHhV-33" target="pWcmyeniTXokh5e1vHhV-20" edge="1">
          <mxGeometry relative="1" as="geometry">
            <Array as="points">
              <mxPoint x="230" y="250" />
              <mxPoint x="230" y="140" />
            </Array>
          </mxGeometry>
        </mxCell>
        <mxCell id="pWcmyeniTXokh5e1vHhV-33" value="Diagnostic Request&amp;nbsp;" style="rounded=0;whiteSpace=wrap;html=1;fillColor=#0050ef;strokeColor=#001DBC;fontColor=#ffffff;" parent="pWcmyeniTXokh5e1vHhV-42" vertex="1">
          <mxGeometry y="235" width="120" height="30" as="geometry" />
        </mxCell>
        <mxCell id="pWcmyeniTXokh5e1vHhV-39" style="edgeStyle=orthogonalEdgeStyle;rounded=1;orthogonalLoop=1;jettySize=auto;html=1;exitX=1;exitY=0.5;exitDx=0;exitDy=0;startArrow=none;startFill=0;endArrow=classic;endFill=1;strokeColor=#000000;entryX=0;entryY=0.5;entryDx=0;entryDy=0;" parent="pWcmyeniTXokh5e1vHhV-42" source="pWcmyeniTXokh5e1vHhV-18" target="pWcmyeniTXokh5e1vHhV-28" edge="1">
          <mxGeometry relative="1" as="geometry">
            <Array as="points">
              <mxPoint x="190" y="140" />
              <mxPoint x="190" y="263" />
            </Array>
          </mxGeometry>
        </mxCell>
        <mxCell id="pWcmyeniTXokh5e1vHhV-37" value="" style="edgeStyle=elbowEdgeStyle;elbow=horizontal;endArrow=classic;html=1;strokeColor=#000000;exitX=1;exitY=0.25;exitDx=0;exitDy=0;entryX=0;entryY=0.5;entryDx=0;entryDy=0;" parent="pWcmyeniTXokh5e1vHhV-42" source="pWcmyeniTXokh5e1vHhV-2" target="pWcmyeniTXokh5e1vHhV-24" edge="1">
          <mxGeometry width="50" height="50" relative="1" as="geometry">
            <mxPoint x="-410" y="240" as="sourcePoint" />
            <mxPoint x="-360" y="190" as="targetPoint" />
          </mxGeometry>
        </mxCell>
        <mxCell id="pWcmyeniTXokh5e1vHhV-46" style="edgeStyle=orthogonalEdgeStyle;rounded=0;orthogonalLoop=1;jettySize=auto;html=1;exitX=0.5;exitY=1;exitDx=0;exitDy=0;entryX=1;entryY=0.5;entryDx=0;entryDy=0;startArrow=classic;startFill=1;endArrow=none;endFill=0;strokeColor=#000000;" parent="fl6XtcIi8IGHpp0sUZKT-1" source="pWcmyeniTXokh5e1vHhV-41" target="fl6XtcIi8IGHpp0sUZKT-86" edge="1">
          <mxGeometry relative="1" as="geometry" />
        </mxCell>
      </root>
    </mxGraphModel>
  </diagram>
  <diagram name="RemoteStubmonitor_sip" id="Kd4TX7ySjvIYoMjRqDUd">
    <mxGraphModel dx="2912" dy="82" grid="1" gridSize="10" guides="1" tooltips="1" connect="1" arrows="1" fold="1" page="1" pageScale="1" pageWidth="850" pageHeight="1100" math="0" shadow="0">
      <root>
        <mxCell id="MicEdj7X82-UYUuInb1l-0" />
        <mxCell id="MicEdj7X82-UYUuInb1l-1" parent="MicEdj7X82-UYUuInb1l-0" />
        <mxCell id="MicEdj7X82-UYUuInb1l-2" value="" style="shape=folder;fontStyle=1;tabWidth=130;tabHeight=30;tabPosition=left;html=1;boundedLbl=1;fillColor=#eeeeee;strokeColor=#36393d;" parent="MicEdj7X82-UYUuInb1l-1" vertex="1">
          <mxGeometry x="-240" y="1210" width="280" height="460" as="geometry" />
        </mxCell>
        <mxCell id="MicEdj7X82-UYUuInb1l-3" value="SomeIP Wrapper" style="text;html=1;strokeColor=none;fillColor=none;align=center;verticalAlign=middle;whiteSpace=wrap;rounded=0;" parent="MicEdj7X82-UYUuInb1l-1" vertex="1">
          <mxGeometry x="-230" y="1210" width="100" height="20" as="geometry" />
        </mxCell>
        <mxCell id="MicEdj7X82-UYUuInb1l-6" value="Proxy Base" style="rounded=0;whiteSpace=wrap;html=1;" parent="MicEdj7X82-UYUuInb1l-1" vertex="1">
          <mxGeometry x="-130" y="1270" width="120" height="100" as="geometry" />
        </mxCell>
        <mxCell id="kTvZwe4CdYXfkeiN4GDI-2" style="edgeStyle=orthogonalEdgeStyle;rounded=1;orthogonalLoop=1;jettySize=auto;html=1;exitX=-0.011;exitY=0.568;exitDx=0;exitDy=0;exitPerimeter=0;" edge="1" parent="MicEdj7X82-UYUuInb1l-1" source="MicEdj7X82-UYUuInb1l-10" target="MicEdj7X82-UYUuInb1l-21">
          <mxGeometry relative="1" as="geometry">
            <Array as="points">
              <mxPoint x="288" y="1538" />
            </Array>
          </mxGeometry>
        </mxCell>
        <mxCell id="MicEdj7X82-UYUuInb1l-10" value="" style="rounded=0;whiteSpace=wrap;html=1;fillColor=#cdeb8b;strokeColor=#36393d;" parent="MicEdj7X82-UYUuInb1l-1" vertex="1">
          <mxGeometry x="290" y="1435" width="180" height="185" as="geometry" />
        </mxCell>
        <mxCell id="MicEdj7X82-UYUuInb1l-11" value="commonAPI" style="rounded=0;whiteSpace=wrap;html=1;" parent="MicEdj7X82-UYUuInb1l-1" vertex="1">
          <mxGeometry x="340" y="1480" width="80" height="50" as="geometry" />
        </mxCell>
        <mxCell id="MicEdj7X82-UYUuInb1l-12" value="Vsomeip" style="rounded=0;whiteSpace=wrap;html=1;" parent="MicEdj7X82-UYUuInb1l-1" vertex="1">
          <mxGeometry x="340" y="1550" width="80" height="40" as="geometry" />
        </mxCell>
        <mxCell id="kTvZwe4CdYXfkeiN4GDI-1" style="edgeStyle=orthogonalEdgeStyle;rounded=1;orthogonalLoop=1;jettySize=auto;html=1;exitX=1;exitY=0.25;exitDx=0;exitDy=0;entryX=0.006;entryY=0.335;entryDx=0;entryDy=0;entryPerimeter=0;" edge="1" parent="MicEdj7X82-UYUuInb1l-1" source="MicEdj7X82-UYUuInb1l-21" target="MicEdj7X82-UYUuInb1l-10">
          <mxGeometry relative="1" as="geometry" />
        </mxCell>
        <mxCell id="kTvZwe4CdYXfkeiN4GDI-7" style="edgeStyle=orthogonalEdgeStyle;rounded=1;orthogonalLoop=1;jettySize=auto;html=1;exitX=1.02;exitY=0.855;exitDx=0;exitDy=0;entryX=-0.011;entryY=0.876;entryDx=0;entryDy=0;entryPerimeter=0;exitPerimeter=0;" edge="1" parent="MicEdj7X82-UYUuInb1l-1" source="MicEdj7X82-UYUuInb1l-21" target="MicEdj7X82-UYUuInb1l-10">
          <mxGeometry relative="1" as="geometry" />
        </mxCell>
        <mxCell id="MicEdj7X82-UYUuInb1l-21" value="WakeupD Proxy" style="html=1;dropTarget=0;" parent="MicEdj7X82-UYUuInb1l-1" vertex="1">
          <mxGeometry x="-120" y="1455" width="100" height="165" as="geometry" />
        </mxCell>
        <mxCell id="MicEdj7X82-UYUuInb1l-46" value="" style="shape=folder;fontStyle=1;tabWidth=100;tabHeight=30;tabPosition=left;html=1;boundedLbl=1;strokeColor=#36393d;fillColor=#cce5ff;" parent="MicEdj7X82-UYUuInb1l-1" vertex="1">
          <mxGeometry x="-590" y="1200" width="270" height="470" as="geometry" />
        </mxCell>
        <mxCell id="MicEdj7X82-UYUuInb1l-48" value="" style="rounded=0;whiteSpace=wrap;html=1;fillColor=none;" parent="MicEdj7X82-UYUuInb1l-1" vertex="1">
          <mxGeometry x="-515" y="1440" width="120" height="200" as="geometry" />
        </mxCell>
        <mxCell id="MicEdj7X82-UYUuInb1l-59" value="sub-service" style="text;html=1;strokeColor=none;fillColor=none;align=center;verticalAlign=middle;whiteSpace=wrap;rounded=0;" parent="MicEdj7X82-UYUuInb1l-1" vertex="1">
          <mxGeometry x="-590" y="1210" width="100" height="20" as="geometry" />
        </mxCell>
        <mxCell id="MicEdj7X82-UYUuInb1l-61" value="SomeIP Stack" style="text;html=1;strokeColor=none;fillColor=none;align=center;verticalAlign=middle;whiteSpace=wrap;rounded=0;" parent="MicEdj7X82-UYUuInb1l-1" vertex="1">
          <mxGeometry x="300" y="1440" width="40" height="20" as="geometry" />
        </mxCell>
        <mxCell id="MicEdj7X82-UYUuInb1l-62" value="" style="shape=folder;fontStyle=1;tabWidth=80;tabHeight=30;tabPosition=left;html=1;boundedLbl=1;fillColor=#cdeb8b;strokeColor=#36393d;" parent="MicEdj7X82-UYUuInb1l-1" vertex="1">
          <mxGeometry x="570" y="1425" width="160" height="195" as="geometry" />
        </mxCell>
        <mxCell id="MicEdj7X82-UYUuInb1l-63" value="Nad Manager" style="text;html=1;strokeColor=none;fillColor=none;align=center;verticalAlign=middle;whiteSpace=wrap;rounded=0;" parent="MicEdj7X82-UYUuInb1l-1" vertex="1">
          <mxGeometry x="590" y="1430" width="40" height="20" as="geometry" />
        </mxCell>
        <mxCell id="MicEdj7X82-UYUuInb1l-65" style="edgeStyle=orthogonalEdgeStyle;rounded=0;orthogonalLoop=1;jettySize=auto;html=1;exitX=0;exitY=0.5;exitDx=0;exitDy=0;entryX=1.006;entryY=0.578;entryDx=0;entryDy=0;startArrow=classic;startFill=1;endArrow=classic;endFill=1;strokeColor=#000000;entryPerimeter=0;" parent="MicEdj7X82-UYUuInb1l-1" source="MicEdj7X82-UYUuInb1l-64" target="MicEdj7X82-UYUuInb1l-10" edge="1">
          <mxGeometry relative="1" as="geometry" />
        </mxCell>
        <mxCell id="MicEdj7X82-UYUuInb1l-64" value="WakeupD Stub" style="rounded=0;whiteSpace=wrap;html=1;" parent="MicEdj7X82-UYUuInb1l-1" vertex="1">
          <mxGeometry x="610" y="1520" width="100" height="40" as="geometry" />
        </mxCell>
        <mxCell id="MicEdj7X82-UYUuInb1l-67" value="RemoteIF" style="text;html=1;strokeColor=none;fillColor=none;align=center;verticalAlign=middle;whiteSpace=wrap;rounded=0;" parent="MicEdj7X82-UYUuInb1l-1" vertex="1">
          <mxGeometry x="-515" y="1440" width="60" height="20" as="geometry" />
        </mxCell>
        <mxCell id="kTvZwe4CdYXfkeiN4GDI-0" style="edgeStyle=orthogonalEdgeStyle;rounded=1;orthogonalLoop=1;jettySize=auto;html=1;exitX=0.986;exitY=0.187;exitDx=0;exitDy=0;entryX=0;entryY=0.25;entryDx=0;entryDy=0;exitPerimeter=0;" edge="1" parent="MicEdj7X82-UYUuInb1l-1" source="MicEdj7X82-UYUuInb1l-68" target="MicEdj7X82-UYUuInb1l-21">
          <mxGeometry relative="1" as="geometry" />
        </mxCell>
        <mxCell id="kTvZwe4CdYXfkeiN4GDI-5" style="edgeStyle=orthogonalEdgeStyle;rounded=1;orthogonalLoop=1;jettySize=auto;html=1;exitX=1;exitY=0.75;exitDx=0;exitDy=0;entryX=0;entryY=0.75;entryDx=0;entryDy=0;" edge="1" parent="MicEdj7X82-UYUuInb1l-1" source="MicEdj7X82-UYUuInb1l-68" target="MicEdj7X82-UYUuInb1l-21">
          <mxGeometry relative="1" as="geometry">
            <Array as="points">
              <mxPoint x="-130" y="1583" />
              <mxPoint x="-130" y="1579" />
            </Array>
          </mxGeometry>
        </mxCell>
        <mxCell id="MicEdj7X82-UYUuInb1l-68" value="mProxy" style="rounded=0;whiteSpace=wrap;html=1;fillColor=#f8cecc;strokeColor=#b85450;" parent="MicEdj7X82-UYUuInb1l-1" vertex="1">
          <mxGeometry x="-485" y="1470" width="70" height="150" as="geometry" />
        </mxCell>
        <mxCell id="MicEdj7X82-UYUuInb1l-71" value="register avaliablity" style="text;html=1;strokeColor=none;fillColor=none;align=center;verticalAlign=middle;whiteSpace=wrap;rounded=0;" parent="MicEdj7X82-UYUuInb1l-1" vertex="1">
          <mxGeometry x="-380" y="1480" width="120" height="20" as="geometry" />
        </mxCell>
        <mxCell id="MicEdj7X82-UYUuInb1l-88" value="on Avaiable" style="text;html=1;strokeColor=none;fillColor=none;align=center;verticalAlign=middle;whiteSpace=wrap;rounded=0;" parent="MicEdj7X82-UYUuInb1l-1" vertex="1">
          <mxGeometry x="-360" y="1520" width="90" height="20" as="geometry" />
        </mxCell>
        <mxCell id="yxknnj5L3JGjGKHGqxcG-18" style="edgeStyle=orthogonalEdgeStyle;rounded=1;orthogonalLoop=1;jettySize=auto;html=1;exitX=1;exitY=0.5;exitDx=0;exitDy=0;entryX=0;entryY=0.5;entryDx=0;entryDy=0;startArrow=none;startFill=0;endArrow=block;endFill=0;endSize=17;strokeWidth=1;" parent="MicEdj7X82-UYUuInb1l-1" target="pm0ytrPMX4vtsRQ1ZmcX-0" edge="1">
          <mxGeometry relative="1" as="geometry">
            <mxPoint x="320" y="1115" as="sourcePoint" />
          </mxGeometry>
        </mxCell>
        <mxCell id="yxknnj5L3JGjGKHGqxcG-17" style="edgeStyle=orthogonalEdgeStyle;rounded=1;orthogonalLoop=1;jettySize=auto;html=1;exitX=1;exitY=0.5;exitDx=0;exitDy=0;entryX=0;entryY=0.25;entryDx=0;entryDy=0;startArrow=none;startFill=0;endArrow=block;endFill=0;endSize=17;strokeWidth=1;" parent="MicEdj7X82-UYUuInb1l-1" target="pm0ytrPMX4vtsRQ1ZmcX-0" edge="1">
          <mxGeometry relative="1" as="geometry">
            <mxPoint x="320" y="1060" as="sourcePoint" />
          </mxGeometry>
        </mxCell>
        <mxCell id="yxknnj5L3JGjGKHGqxcG-16" style="edgeStyle=orthogonalEdgeStyle;rounded=1;orthogonalLoop=1;jettySize=auto;html=1;exitX=1;exitY=0.5;exitDx=0;exitDy=0;startArrow=none;startFill=0;endArrow=block;endFill=0;endSize=17;strokeWidth=1;" parent="MicEdj7X82-UYUuInb1l-1" target="pm0ytrPMX4vtsRQ1ZmcX-0" edge="1">
          <mxGeometry relative="1" as="geometry">
            <mxPoint x="320" y="980" as="sourcePoint" />
          </mxGeometry>
        </mxCell>
        <mxCell id="fhAXhtNcubLe-r8k7sih-5" style="edgeStyle=orthogonalEdgeStyle;rounded=0;orthogonalLoop=1;jettySize=auto;html=1;exitX=1;exitY=0.5;exitDx=0;exitDy=0;entryX=0;entryY=0.5;entryDx=0;entryDy=0;startArrow=none;startFill=0;endArrow=classic;endFill=1;endSize=6;strokeWidth=1;" parent="MicEdj7X82-UYUuInb1l-1" target="pm0ytrPMX4vtsRQ1ZmcX-2" edge="1">
          <mxGeometry relative="1" as="geometry">
            <mxPoint x="-37.5" y="1168.75" as="sourcePoint" />
          </mxGeometry>
        </mxCell>
        <mxCell id="fhAXhtNcubLe-r8k7sih-6" style="edgeStyle=orthogonalEdgeStyle;rounded=0;orthogonalLoop=1;jettySize=auto;html=1;exitX=1;exitY=0.5;exitDx=0;exitDy=0;entryX=0;entryY=0.5;entryDx=0;entryDy=0;startArrow=none;startFill=0;endArrow=classic;endFill=1;endSize=6;strokeWidth=1;" parent="MicEdj7X82-UYUuInb1l-1" target="pm0ytrPMX4vtsRQ1ZmcX-1" edge="1">
          <mxGeometry relative="1" as="geometry">
            <mxPoint x="-37.5" y="1228.75" as="sourcePoint" />
          </mxGeometry>
        </mxCell>
        <mxCell id="yxknnj5L3JGjGKHGqxcG-13" value="register Availability" style="text;html=1;strokeColor=none;fillColor=none;align=center;verticalAlign=middle;whiteSpace=wrap;rounded=0;" parent="MicEdj7X82-UYUuInb1l-1" vertex="1">
          <mxGeometry x="90" y="1480" width="160" height="20" as="geometry" />
        </mxCell>
        <mxCell id="yxknnj5L3JGjGKHGqxcG-15" value="on Available" style="text;html=1;strokeColor=none;fillColor=none;align=center;verticalAlign=middle;whiteSpace=wrap;rounded=0;" parent="MicEdj7X82-UYUuInb1l-1" vertex="1">
          <mxGeometry x="70" y="1520" width="160" height="20" as="geometry" />
        </mxCell>
        <mxCell id="YymJ88BqcNNYUDBqXg1k-0" value="Nad Proxy" style="text;html=1;strokeColor=none;fillColor=none;align=center;verticalAlign=middle;whiteSpace=wrap;rounded=0;" vertex="1" parent="MicEdj7X82-UYUuInb1l-1">
          <mxGeometry x="-610" y="1170" width="70" height="20" as="geometry" />
        </mxCell>
        <mxCell id="kTvZwe4CdYXfkeiN4GDI-4" style="edgeStyle=orthogonalEdgeStyle;rounded=1;orthogonalLoop=1;jettySize=auto;html=1;exitX=0;exitY=0.5;exitDx=0;exitDy=0;entryX=1;entryY=0.46;entryDx=0;entryDy=0;entryPerimeter=0;" edge="1" parent="MicEdj7X82-UYUuInb1l-1" source="MicEdj7X82-UYUuInb1l-21" target="MicEdj7X82-UYUuInb1l-68">
          <mxGeometry relative="1" as="geometry">
            <mxPoint x="-110" y="1530" as="sourcePoint" />
            <mxPoint x="-410" y="1540" as="targetPoint" />
          </mxGeometry>
        </mxCell>
        <mxCell id="kTvZwe4CdYXfkeiN4GDI-6" value="send data" style="text;html=1;strokeColor=none;fillColor=none;align=center;verticalAlign=middle;whiteSpace=wrap;rounded=0;" vertex="1" parent="MicEdj7X82-UYUuInb1l-1">
          <mxGeometry x="-320" y="1560" width="90" height="20" as="geometry" />
        </mxCell>
        <mxCell id="kTvZwe4CdYXfkeiN4GDI-8" value="send data" style="text;html=1;strokeColor=none;fillColor=none;align=center;verticalAlign=middle;whiteSpace=wrap;rounded=0;" vertex="1" parent="MicEdj7X82-UYUuInb1l-1">
          <mxGeometry x="90" y="1570" width="90" height="20" as="geometry" />
        </mxCell>
        <mxCell id="kTvZwe4CdYXfkeiN4GDI-9" value="" style="rounded=0;whiteSpace=wrap;html=1;fillColor=none;" vertex="1" parent="MicEdj7X82-UYUuInb1l-1">
          <mxGeometry x="-610" y="1160" width="670" height="570" as="geometry" />
        </mxCell>
        <mxCell id="kTvZwe4CdYXfkeiN4GDI-10" value="Extends" style="endArrow=block;endSize=16;endFill=0;html=1;exitX=0.5;exitY=0;exitDx=0;exitDy=0;entryX=0.5;entryY=1;entryDx=0;entryDy=0;" edge="1" parent="MicEdj7X82-UYUuInb1l-1" source="MicEdj7X82-UYUuInb1l-21" target="MicEdj7X82-UYUuInb1l-6">
          <mxGeometry width="160" relative="1" as="geometry">
            <mxPoint x="110" y="1320" as="sourcePoint" />
            <mxPoint x="270" y="1320" as="targetPoint" />
          </mxGeometry>
        </mxCell>
      </root>
    </mxGraphModel>
  </diagram>
  <diagram name="RemoteStubmonitor_binder" id="VvW1QEvsh49lT6B3MSqE">
    <mxGraphModel dx="2912" dy="1182" grid="1" gridSize="10" guides="1" tooltips="1" connect="1" arrows="1" fold="1" page="1" pageScale="1" pageWidth="850" pageHeight="1100" math="0" shadow="0">
      <root>
        <mxCell id="wM_wVTjjEBxpIm4b-hXF-0" />
        <mxCell id="wM_wVTjjEBxpIm4b-hXF-1" parent="wM_wVTjjEBxpIm4b-hXF-0" />
        <mxCell id="fKTQMTHTP26UVxWYUOrU-1" style="edgeStyle=orthogonalEdgeStyle;rounded=0;orthogonalLoop=1;jettySize=auto;html=1;exitX=1;exitY=0.5;exitDx=0;exitDy=0;entryX=0;entryY=0.5;entryDx=0;entryDy=0;startArrow=none;startFill=0;endArrow=classic;endFill=1;endSize=6;strokeWidth=1;" parent="wM_wVTjjEBxpIm4b-hXF-1" target="5dnf-2oG2Z2tH0zNxbPC-0" edge="1">
          <mxGeometry relative="1" as="geometry">
            <Array as="points">
              <mxPoint x="-50" y="1400" />
            </Array>
            <mxPoint x="-50" y="1405" as="sourcePoint" />
          </mxGeometry>
        </mxCell>
        <mxCell id="fKTQMTHTP26UVxWYUOrU-0" style="edgeStyle=orthogonalEdgeStyle;rounded=1;orthogonalLoop=1;jettySize=auto;html=1;exitX=1;exitY=0.5;exitDx=0;exitDy=0;entryX=0;entryY=0.5;entryDx=0;entryDy=0;startArrow=none;startFill=0;endSize=17;endArrow=block;endFill=0;" parent="wM_wVTjjEBxpIm4b-hXF-1" target="qwkIJQwOOTJGK7K0XNN6-0" edge="1">
          <mxGeometry relative="1" as="geometry">
            <mxPoint x="310" y="1400" as="sourcePoint" />
            <mxPoint x="447.5" y="1330" as="targetPoint" />
          </mxGeometry>
        </mxCell>
        <mxCell id="9V-MtvproCypyysdiYKL-6" value="" style="rounded=0;whiteSpace=wrap;html=1;fillColor=none;" vertex="1" parent="wM_wVTjjEBxpIm4b-hXF-1">
          <mxGeometry x="-450" y="790" width="690" height="480" as="geometry" />
        </mxCell>
        <mxCell id="9V-MtvproCypyysdiYKL-7" value="" style="shape=folder;fontStyle=1;tabWidth=130;tabHeight=30;tabPosition=left;html=1;boundedLbl=1;fillColor=#eeeeee;strokeColor=#36393d;" vertex="1" parent="wM_wVTjjEBxpIm4b-hXF-1">
          <mxGeometry x="-97.5" y="810" width="320" height="450" as="geometry" />
        </mxCell>
        <mxCell id="9V-MtvproCypyysdiYKL-8" value="Binder Wrapper" style="text;html=1;strokeColor=none;fillColor=none;align=center;verticalAlign=middle;whiteSpace=wrap;rounded=0;" vertex="1" parent="wM_wVTjjEBxpIm4b-hXF-1">
          <mxGeometry x="-87.5" y="820" width="100" height="20" as="geometry" />
        </mxCell>
        <mxCell id="9V-MtvproCypyysdiYKL-9" style="edgeStyle=orthogonalEdgeStyle;rounded=1;orthogonalLoop=1;jettySize=auto;html=1;exitX=1;exitY=0.5;exitDx=0;exitDy=0;startArrow=classic;startFill=1;endArrow=none;endFill=0;" edge="1" parent="wM_wVTjjEBxpIm4b-hXF-1">
          <mxGeometry relative="1" as="geometry">
            <mxPoint x="342.5" y="1140" as="targetPoint" />
            <mxPoint x="152.5" y="1140" as="sourcePoint" />
          </mxGeometry>
        </mxCell>
        <mxCell id="9V-MtvproCypyysdiYKL-10" style="edgeStyle=orthogonalEdgeStyle;rounded=0;orthogonalLoop=1;jettySize=auto;html=1;exitX=1;exitY=0.5;exitDx=0;exitDy=0;entryX=-0.02;entryY=0.47;entryDx=0;entryDy=0;entryPerimeter=0;startArrow=none;startFill=0;endArrow=classic;endFill=1;endSize=6;strokeWidth=1;" edge="1" parent="wM_wVTjjEBxpIm4b-hXF-1">
          <mxGeometry relative="1" as="geometry">
            <mxPoint x="152.5" y="1115" as="sourcePoint" />
            <mxPoint x="339.5" y="1114" as="targetPoint" />
            <Array as="points">
              <mxPoint x="246.5" y="1115" />
              <mxPoint x="246.5" y="1114" />
            </Array>
          </mxGeometry>
        </mxCell>
        <mxCell id="9V-MtvproCypyysdiYKL-11" value="Proxy Base" style="rounded=0;whiteSpace=wrap;html=1;" vertex="1" parent="wM_wVTjjEBxpIm4b-hXF-1">
          <mxGeometry x="2.5" y="860" width="120" height="90" as="geometry" />
        </mxCell>
        <mxCell id="9V-MtvproCypyysdiYKL-12" style="edgeStyle=orthogonalEdgeStyle;rounded=1;orthogonalLoop=1;jettySize=auto;html=1;exitX=1;exitY=0.75;exitDx=0;exitDy=0;startArrow=classic;startFill=1;endArrow=classic;endFill=1;" edge="1" source="9V-MtvproCypyysdiYKL-13" parent="wM_wVTjjEBxpIm4b-hXF-1">
          <mxGeometry relative="1" as="geometry">
            <mxPoint x="592.5" y="1190" as="targetPoint" />
          </mxGeometry>
        </mxCell>
        <mxCell id="9V-MtvproCypyysdiYKL-13" value="" style="rounded=0;whiteSpace=wrap;html=1;fillColor=#cdeb8b;strokeColor=#36393d;" vertex="1" parent="wM_wVTjjEBxpIm4b-hXF-1">
          <mxGeometry x="339.5" y="1040" width="150" height="200" as="geometry" />
        </mxCell>
        <mxCell id="9V-MtvproCypyysdiYKL-14" value="Binder lib" style="rounded=0;whiteSpace=wrap;html=1;" vertex="1" parent="wM_wVTjjEBxpIm4b-hXF-1">
          <mxGeometry x="349.5" y="1070" width="120" height="50" as="geometry" />
        </mxCell>
        <mxCell id="9V-MtvproCypyysdiYKL-15" value="Binder driver" style="rounded=0;whiteSpace=wrap;html=1;" vertex="1" parent="wM_wVTjjEBxpIm4b-hXF-1">
          <mxGeometry x="349.5" y="1200" width="120" height="40" as="geometry" />
        </mxCell>
        <mxCell id="9V-MtvproCypyysdiYKL-16" value="LPA Proxy" style="html=1;dropTarget=0;" vertex="1" parent="wM_wVTjjEBxpIm4b-hXF-1">
          <mxGeometry x="-7.5" y="1070" width="160" height="170" as="geometry" />
        </mxCell>
        <mxCell id="9V-MtvproCypyysdiYKL-17" value="" style="shape=folder;fontStyle=1;tabWidth=100;tabHeight=30;tabPosition=left;html=1;boundedLbl=1;strokeColor=#36393d;fillColor=#cce5ff;" vertex="1" parent="wM_wVTjjEBxpIm4b-hXF-1">
          <mxGeometry x="-437.5" y="970" width="260" height="290" as="geometry" />
        </mxCell>
        <mxCell id="9V-MtvproCypyysdiYKL-18" value="" style="rounded=0;whiteSpace=wrap;html=1;fillColor=none;" vertex="1" parent="wM_wVTjjEBxpIm4b-hXF-1">
          <mxGeometry x="-367.5" y="1030" width="120" height="190" as="geometry" />
        </mxCell>
        <mxCell id="9V-MtvproCypyysdiYKL-19" value="register availability" style="text;html=1;strokeColor=none;fillColor=none;align=center;verticalAlign=middle;whiteSpace=wrap;rounded=0;" vertex="1" parent="wM_wVTjjEBxpIm4b-hXF-1">
          <mxGeometry x="-217.5" y="1080" width="170" height="20" as="geometry" />
        </mxCell>
        <mxCell id="9V-MtvproCypyysdiYKL-20" value="sub-service" style="text;html=1;strokeColor=#36393d;fillColor=#cce5ff;align=center;verticalAlign=middle;whiteSpace=wrap;rounded=0;" vertex="1" parent="wM_wVTjjEBxpIm4b-hXF-1">
          <mxGeometry x="-437.47" y="970" width="99.97" height="30" as="geometry" />
        </mxCell>
        <mxCell id="9V-MtvproCypyysdiYKL-21" value="Binder Stack" style="text;html=1;strokeColor=none;fillColor=none;align=center;verticalAlign=middle;whiteSpace=wrap;rounded=0;" vertex="1" parent="wM_wVTjjEBxpIm4b-hXF-1">
          <mxGeometry x="349.5" y="1040" width="90" height="20" as="geometry" />
        </mxCell>
        <mxCell id="9V-MtvproCypyysdiYKL-22" value="" style="shape=folder;fontStyle=1;tabWidth=80;tabHeight=30;tabPosition=left;html=1;boundedLbl=1;fillColor=#cdeb8b;strokeColor=#36393d;" vertex="1" parent="wM_wVTjjEBxpIm4b-hXF-1">
          <mxGeometry x="592.5" y="1135" width="205" height="90" as="geometry" />
        </mxCell>
        <mxCell id="9V-MtvproCypyysdiYKL-23" value="LPA manager" style="text;html=1;strokeColor=none;fillColor=none;align=center;verticalAlign=middle;whiteSpace=wrap;rounded=0;" vertex="1" parent="wM_wVTjjEBxpIm4b-hXF-1">
          <mxGeometry x="592.5" y="1145" width="90" height="20" as="geometry" />
        </mxCell>
        <mxCell id="9V-MtvproCypyysdiYKL-24" value="LPA Stub" style="rounded=0;whiteSpace=wrap;html=1;" vertex="1" parent="wM_wVTjjEBxpIm4b-hXF-1">
          <mxGeometry x="647.5" y="1175" width="100" height="40" as="geometry" />
        </mxCell>
        <mxCell id="9V-MtvproCypyysdiYKL-25" value="RegisterAvailability" style="text;html=1;strokeColor=none;fillColor=none;align=center;verticalAlign=middle;whiteSpace=wrap;rounded=0;" vertex="1" parent="wM_wVTjjEBxpIm4b-hXF-1">
          <mxGeometry x="185.54999999999995" y="1090" width="140" height="20" as="geometry" />
        </mxCell>
        <mxCell id="9V-MtvproCypyysdiYKL-26" value="LPA" style="text;html=1;strokeColor=none;fillColor=none;align=center;verticalAlign=middle;whiteSpace=wrap;rounded=0;" vertex="1" parent="wM_wVTjjEBxpIm4b-hXF-1">
          <mxGeometry x="-377.5" y="1040" width="60" height="20" as="geometry" />
        </mxCell>
        <mxCell id="9V-MtvproCypyysdiYKL-27" style="edgeStyle=orthogonalEdgeStyle;rounded=0;orthogonalLoop=1;jettySize=auto;html=1;exitX=1;exitY=0.75;exitDx=0;exitDy=0;entryX=0.01;entryY=0.663;entryDx=0;entryDy=0;entryPerimeter=0;startArrow=none;startFill=0;" edge="1" parent="wM_wVTjjEBxpIm4b-hXF-1">
          <mxGeometry relative="1" as="geometry">
            <mxPoint x="-277.5" y="1202.5" as="sourcePoint" />
            <mxPoint x="-6.5" y="1193.04" as="targetPoint" />
            <Array as="points">
              <mxPoint x="-277.5" y="1193" />
            </Array>
          </mxGeometry>
        </mxCell>
        <mxCell id="9V-MtvproCypyysdiYKL-28" style="edgeStyle=orthogonalEdgeStyle;rounded=1;orthogonalLoop=1;jettySize=auto;html=1;exitX=1;exitY=0.25;exitDx=0;exitDy=0;entryX=0.01;entryY=0.212;entryDx=0;entryDy=0;entryPerimeter=0;" edge="1" source="9V-MtvproCypyysdiYKL-29" target="9V-MtvproCypyysdiYKL-16" parent="wM_wVTjjEBxpIm4b-hXF-1">
          <mxGeometry relative="1" as="geometry" />
        </mxCell>
        <mxCell id="9V-MtvproCypyysdiYKL-29" value="mProxy" style="rounded=0;whiteSpace=wrap;html=1;fillColor=#f8cecc;strokeColor=#b85450;" vertex="1" parent="wM_wVTjjEBxpIm4b-hXF-1">
          <mxGeometry x="-337.5" y="1080" width="60" height="120" as="geometry" />
        </mxCell>
        <mxCell id="9V-MtvproCypyysdiYKL-30" value="On Available" style="text;html=1;strokeColor=none;fillColor=none;align=center;verticalAlign=middle;whiteSpace=wrap;rounded=0;" vertex="1" parent="wM_wVTjjEBxpIm4b-hXF-1">
          <mxGeometry x="192.5" y="1120" width="110" height="20" as="geometry" />
        </mxCell>
        <mxCell id="9V-MtvproCypyysdiYKL-31" value="sendData" style="text;html=1;strokeColor=none;fillColor=none;align=center;verticalAlign=middle;whiteSpace=wrap;rounded=0;" vertex="1" parent="wM_wVTjjEBxpIm4b-hXF-1">
          <mxGeometry x="-177.5" y="1170" width="90" height="20" as="geometry" />
        </mxCell>
        <mxCell id="9V-MtvproCypyysdiYKL-32" value="Service Manager" style="rounded=0;whiteSpace=wrap;html=1;" vertex="1" parent="wM_wVTjjEBxpIm4b-hXF-1">
          <mxGeometry x="349.5" y="1130" width="120" height="60" as="geometry" />
        </mxCell>
        <mxCell id="9V-MtvproCypyysdiYKL-33" style="edgeStyle=orthogonalEdgeStyle;rounded=1;orthogonalLoop=1;jettySize=auto;html=1;exitX=1;exitY=0.5;exitDx=0;exitDy=0;startArrow=classic;startFill=1;endArrow=none;endFill=0;" edge="1" parent="wM_wVTjjEBxpIm4b-hXF-1">
          <mxGeometry relative="1" as="geometry">
            <mxPoint x="339.5" y="1190" as="targetPoint" />
            <mxPoint x="152.5" y="1190" as="sourcePoint" />
          </mxGeometry>
        </mxCell>
        <mxCell id="9V-MtvproCypyysdiYKL-34" value="send data" style="text;html=1;strokeColor=none;fillColor=none;align=center;verticalAlign=middle;whiteSpace=wrap;rounded=0;" vertex="1" parent="wM_wVTjjEBxpIm4b-hXF-1">
          <mxGeometry x="192.5" y="1160" width="110" height="20" as="geometry" />
        </mxCell>
        <mxCell id="9V-MtvproCypyysdiYKL-35" value="On Available" style="text;html=1;strokeColor=none;fillColor=none;align=center;verticalAlign=middle;whiteSpace=wrap;rounded=0;" vertex="1" parent="wM_wVTjjEBxpIm4b-hXF-1">
          <mxGeometry x="-207.5" y="1140" width="110" height="20" as="geometry" />
        </mxCell>
        <mxCell id="9V-MtvproCypyysdiYKL-36" style="edgeStyle=orthogonalEdgeStyle;rounded=1;orthogonalLoop=1;jettySize=auto;html=1;entryX=1.05;entryY=0.7;entryDx=0;entryDy=0;entryPerimeter=0;startArrow=none;startFill=0;endArrow=classic;endFill=1;" edge="1" target="9V-MtvproCypyysdiYKL-29" parent="wM_wVTjjEBxpIm4b-hXF-1">
          <mxGeometry relative="1" as="geometry">
            <mxPoint x="-7.5" y="1165" as="sourcePoint" />
            <mxPoint x="-267.5" y="1165" as="targetPoint" />
          </mxGeometry>
        </mxCell>
        <mxCell id="9V-MtvproCypyysdiYKL-37" value="Extends" style="endArrow=block;endSize=16;endFill=0;html=1;entryX=0.5;entryY=1;entryDx=0;entryDy=0;" edge="1" target="9V-MtvproCypyysdiYKL-11" parent="wM_wVTjjEBxpIm4b-hXF-1">
          <mxGeometry width="160" relative="1" as="geometry">
            <mxPoint x="62.5" y="1067" as="sourcePoint" />
            <mxPoint x="242.5" y="1340" as="targetPoint" />
          </mxGeometry>
        </mxCell>
        <mxCell id="9V-MtvproCypyysdiYKL-38" value="Nad Proxy" style="text;html=1;strokeColor=none;fillColor=none;align=center;verticalAlign=middle;whiteSpace=wrap;rounded=0;" vertex="1" parent="wM_wVTjjEBxpIm4b-hXF-1">
          <mxGeometry x="-437.5" y="810" width="77.5" height="20" as="geometry" />
        </mxCell>
      </root>
    </mxGraphModel>
  </diagram>
  <diagram id="kgBwLNsayzT47XO6L3Lo" name="availabilityhearbeat">
    <mxGraphModel dx="2062" dy="1182" grid="1" gridSize="10" guides="1" tooltips="1" connect="1" arrows="1" fold="1" page="1" pageScale="1" pageWidth="850" pageHeight="1100" math="0" shadow="0">
      <root>
        <mxCell id="QFmxoCHlPkg0NwJRGjCc-0" />
        <mxCell id="QFmxoCHlPkg0NwJRGjCc-1" parent="QFmxoCHlPkg0NwJRGjCc-0" />
        <mxCell id="QFmxoCHlPkg0NwJRGjCc-2" value="" style="rounded=0;whiteSpace=wrap;html=1;strokeColor=#36393d;fillColor=#cdeb8b;" parent="QFmxoCHlPkg0NwJRGjCc-1" vertex="1">
          <mxGeometry x="160" y="160" width="140" height="110" as="geometry" />
        </mxCell>
        <mxCell id="QFmxoCHlPkg0NwJRGjCc-3" value="Nad Proxy&lt;br&gt;(Nad Manager)" style="text;html=1;strokeColor=none;fillColor=none;align=center;verticalAlign=middle;whiteSpace=wrap;rounded=0;" parent="QFmxoCHlPkg0NwJRGjCc-1" vertex="1">
          <mxGeometry x="170" y="170" width="140" height="20" as="geometry" />
        </mxCell>
        <mxCell id="QFmxoCHlPkg0NwJRGjCc-11" style="edgeStyle=orthogonalEdgeStyle;rounded=1;orthogonalLoop=1;jettySize=auto;html=1;exitX=0.5;exitY=1;exitDx=0;exitDy=0;entryX=1;entryY=0.5;entryDx=0;entryDy=0;startArrow=none;startFill=0;endArrow=classic;endFill=1;strokeWidth=1;" parent="QFmxoCHlPkg0NwJRGjCc-1" source="QFmxoCHlPkg0NwJRGjCc-4" target="QFmxoCHlPkg0NwJRGjCc-10" edge="1">
          <mxGeometry relative="1" as="geometry" />
        </mxCell>
        <mxCell id="QFmxoCHlPkg0NwJRGjCc-4" value="SystemD" style="rounded=0;whiteSpace=wrap;html=1;strokeColor=#36393d;fillColor=#ffcccc;" parent="QFmxoCHlPkg0NwJRGjCc-1" vertex="1">
          <mxGeometry x="425" y="160" width="155" height="110" as="geometry" />
        </mxCell>
        <mxCell id="QFmxoCHlPkg0NwJRGjCc-5" value="" style="endArrow=classic;html=1;strokeWidth=1;exitX=1;exitY=0.5;exitDx=0;exitDy=0;entryX=0;entryY=0.5;entryDx=0;entryDy=0;" parent="QFmxoCHlPkg0NwJRGjCc-1" source="QFmxoCHlPkg0NwJRGjCc-2" target="QFmxoCHlPkg0NwJRGjCc-4" edge="1">
          <mxGeometry width="50" height="50" relative="1" as="geometry">
            <mxPoint x="400" y="440" as="sourcePoint" />
            <mxPoint x="450" y="390" as="targetPoint" />
          </mxGeometry>
        </mxCell>
        <mxCell id="QFmxoCHlPkg0NwJRGjCc-6" value="" style="endArrow=classic;html=1;strokeWidth=1;exitX=1;exitY=0.5;exitDx=0;exitDy=0;entryX=0;entryY=0.5;entryDx=0;entryDy=0;" parent="QFmxoCHlPkg0NwJRGjCc-1" edge="1">
          <mxGeometry width="50" height="50" relative="1" as="geometry">
            <mxPoint x="300" y="240" as="sourcePoint" />
            <mxPoint x="425" y="240" as="targetPoint" />
          </mxGeometry>
        </mxCell>
        <mxCell id="QFmxoCHlPkg0NwJRGjCc-7" value="" style="endArrow=classic;html=1;strokeWidth=1;exitX=1;exitY=0.5;exitDx=0;exitDy=0;entryX=0;entryY=0.5;entryDx=0;entryDy=0;" parent="QFmxoCHlPkg0NwJRGjCc-1" edge="1">
          <mxGeometry width="50" height="50" relative="1" as="geometry">
            <mxPoint x="300" y="190" as="sourcePoint" />
            <mxPoint x="425" y="190" as="targetPoint" />
          </mxGeometry>
        </mxCell>
        <mxCell id="QFmxoCHlPkg0NwJRGjCc-8" value="HeartBeat" style="text;html=1;strokeColor=none;fillColor=none;align=center;verticalAlign=middle;whiteSpace=wrap;rounded=0;" parent="QFmxoCHlPkg0NwJRGjCc-1" vertex="1">
          <mxGeometry x="340" y="170" width="40" height="20" as="geometry" />
        </mxCell>
        <mxCell id="QFmxoCHlPkg0NwJRGjCc-12" style="edgeStyle=orthogonalEdgeStyle;rounded=1;orthogonalLoop=1;jettySize=auto;html=1;exitX=0;exitY=0.5;exitDx=0;exitDy=0;entryX=0.429;entryY=0.991;entryDx=0;entryDy=0;entryPerimeter=0;startArrow=none;startFill=0;endArrow=classic;endFill=1;strokeWidth=1;" parent="QFmxoCHlPkg0NwJRGjCc-1" source="QFmxoCHlPkg0NwJRGjCc-10" target="QFmxoCHlPkg0NwJRGjCc-2" edge="1">
          <mxGeometry relative="1" as="geometry" />
        </mxCell>
        <mxCell id="QFmxoCHlPkg0NwJRGjCc-14" style="edgeStyle=orthogonalEdgeStyle;rounded=1;orthogonalLoop=1;jettySize=auto;html=1;exitX=0.5;exitY=1;exitDx=0;exitDy=0;entryX=0.5;entryY=0;entryDx=0;entryDy=0;startArrow=none;startFill=0;endArrow=classic;endFill=1;strokeWidth=1;" parent="QFmxoCHlPkg0NwJRGjCc-1" source="QFmxoCHlPkg0NwJRGjCc-10" target="QFmxoCHlPkg0NwJRGjCc-13" edge="1">
          <mxGeometry relative="1" as="geometry" />
        </mxCell>
        <mxCell id="QFmxoCHlPkg0NwJRGjCc-10" value="Nad Proxy crash" style="rhombus;whiteSpace=wrap;html=1;strokeColor=#000000;fillColor=none;gradientColor=#ffffff;" parent="QFmxoCHlPkg0NwJRGjCc-1" vertex="1">
          <mxGeometry x="330" y="290" width="80" height="80" as="geometry" />
        </mxCell>
        <mxCell id="QFmxoCHlPkg0NwJRGjCc-13" value="" style="shape=sumEllipse;perimeter=ellipsePerimeter;whiteSpace=wrap;html=1;backgroundOutline=1;strokeColor=#36393d;fillColor=#eeeeee;" parent="QFmxoCHlPkg0NwJRGjCc-1" vertex="1">
          <mxGeometry x="358.75" y="410" width="22.5" height="20" as="geometry" />
        </mxCell>
        <mxCell id="QFmxoCHlPkg0NwJRGjCc-16" value="Yes" style="text;html=1;strokeColor=none;fillColor=none;align=center;verticalAlign=middle;whiteSpace=wrap;rounded=0;" parent="QFmxoCHlPkg0NwJRGjCc-1" vertex="1">
          <mxGeometry x="300" y="330" width="40" height="20" as="geometry" />
        </mxCell>
        <mxCell id="QFmxoCHlPkg0NwJRGjCc-17" value="No" style="text;html=1;strokeColor=none;fillColor=none;align=center;verticalAlign=middle;whiteSpace=wrap;rounded=0;" parent="QFmxoCHlPkg0NwJRGjCc-1" vertex="1">
          <mxGeometry x="370" y="370" width="40" height="20" as="geometry" />
        </mxCell>
        <mxCell id="QFmxoCHlPkg0NwJRGjCc-18" value="Reset" style="text;html=1;strokeColor=none;fillColor=none;align=center;verticalAlign=middle;whiteSpace=wrap;rounded=0;" parent="QFmxoCHlPkg0NwJRGjCc-1" vertex="1">
          <mxGeometry x="230" y="310" width="40" height="20" as="geometry" />
        </mxCell>
        <mxCell id="2XukH4IW3FTwERHePnsD-0" value="" style="ellipse;shape=cloud;whiteSpace=wrap;html=1;strokeColor=#000000;fillColor=none;gradientColor=#ffffff;" parent="QFmxoCHlPkg0NwJRGjCc-1" vertex="1">
          <mxGeometry x="640" y="70" width="220" height="120" as="geometry" />
        </mxCell>
        <mxCell id="qb2zLtoW1NS32H391kOX-0" value="&lt;b&gt;Detect fault: Heartbeat&lt;br&gt;Recover fault: Cold spare&lt;/b&gt;" style="text;html=1;strokeColor=none;fillColor=none;align=left;verticalAlign=middle;whiteSpace=wrap;rounded=0;" parent="QFmxoCHlPkg0NwJRGjCc-1" vertex="1">
          <mxGeometry x="680" y="105" width="180" height="50" as="geometry" />
        </mxCell>
      </root>
    </mxGraphModel>
  </diagram>
  <diagram name="availabilitypingpong" id="jaLZaOpFYc10Kp0GO-nI">
    <mxGraphModel dx="2062" dy="1182" grid="1" gridSize="10" guides="1" tooltips="1" connect="1" arrows="1" fold="1" page="1" pageScale="1" pageWidth="850" pageHeight="1100" math="0" shadow="0">
      <root>
        <mxCell id="r0YQZ8dnGciPNhjqUGt--0" />
        <mxCell id="r0YQZ8dnGciPNhjqUGt--1" parent="r0YQZ8dnGciPNhjqUGt--0" />
        <mxCell id="r0YQZ8dnGciPNhjqUGt--21" style="edgeStyle=orthogonalEdgeStyle;rounded=1;orthogonalLoop=1;jettySize=auto;html=1;exitX=1;exitY=0.75;exitDx=0;exitDy=0;entryX=0;entryY=0.5;entryDx=0;entryDy=0;startArrow=none;startFill=0;endArrow=classic;endFill=1;strokeWidth=1;" parent="r0YQZ8dnGciPNhjqUGt--1" source="r0YQZ8dnGciPNhjqUGt--2" target="r0YQZ8dnGciPNhjqUGt--20" edge="1">
          <mxGeometry relative="1" as="geometry" />
        </mxCell>
        <mxCell id="r0YQZ8dnGciPNhjqUGt--2" value="" style="rounded=0;whiteSpace=wrap;html=1;strokeColor=#36393d;fillColor=#cdeb8b;" parent="r0YQZ8dnGciPNhjqUGt--1" vertex="1">
          <mxGeometry x="160" y="160" width="140" height="200" as="geometry" />
        </mxCell>
        <mxCell id="r0YQZ8dnGciPNhjqUGt--3" value="Nad Proxy&lt;br&gt;(Nad Manager)" style="text;html=1;strokeColor=none;fillColor=none;align=center;verticalAlign=middle;whiteSpace=wrap;rounded=0;" parent="r0YQZ8dnGciPNhjqUGt--1" vertex="1">
          <mxGeometry x="170" y="170" width="90" height="20" as="geometry" />
        </mxCell>
        <mxCell id="r0YQZ8dnGciPNhjqUGt--26" style="edgeStyle=orthogonalEdgeStyle;rounded=1;orthogonalLoop=1;jettySize=auto;html=1;exitX=0.5;exitY=1;exitDx=0;exitDy=0;entryX=1;entryY=0.5;entryDx=0;entryDy=0;startArrow=none;startFill=0;endArrow=classic;endFill=1;strokeWidth=1;" parent="r0YQZ8dnGciPNhjqUGt--1" source="r0YQZ8dnGciPNhjqUGt--5" target="r0YQZ8dnGciPNhjqUGt--24" edge="1">
          <mxGeometry relative="1" as="geometry" />
        </mxCell>
        <mxCell id="r0YQZ8dnGciPNhjqUGt--5" value="Heath Monitor" style="rounded=0;whiteSpace=wrap;html=1;strokeColor=#36393d;fillColor=#ffcccc;" parent="r0YQZ8dnGciPNhjqUGt--1" vertex="1">
          <mxGeometry x="425" y="160" width="155" height="200" as="geometry" />
        </mxCell>
        <mxCell id="r0YQZ8dnGciPNhjqUGt--7" value="" style="endArrow=classic;html=1;strokeWidth=1;exitX=1;exitY=0.5;exitDx=0;exitDy=0;entryX=0;entryY=0.5;entryDx=0;entryDy=0;" parent="r0YQZ8dnGciPNhjqUGt--1" edge="1">
          <mxGeometry width="50" height="50" relative="1" as="geometry">
            <mxPoint x="300" y="230" as="sourcePoint" />
            <mxPoint x="425" y="230" as="targetPoint" />
          </mxGeometry>
        </mxCell>
        <mxCell id="r0YQZ8dnGciPNhjqUGt--8" value="" style="endArrow=none;html=1;strokeWidth=1;exitX=1;exitY=0.5;exitDx=0;exitDy=0;entryX=0;entryY=0.5;entryDx=0;entryDy=0;startArrow=classic;startFill=1;endFill=0;" parent="r0YQZ8dnGciPNhjqUGt--1" edge="1">
          <mxGeometry width="50" height="50" relative="1" as="geometry">
            <mxPoint x="300" y="190" as="sourcePoint" />
            <mxPoint x="425" y="190" as="targetPoint" />
          </mxGeometry>
        </mxCell>
        <mxCell id="r0YQZ8dnGciPNhjqUGt--9" value="Ping" style="text;html=1;strokeColor=none;fillColor=none;align=center;verticalAlign=middle;whiteSpace=wrap;rounded=0;" parent="r0YQZ8dnGciPNhjqUGt--1" vertex="1">
          <mxGeometry x="340" y="170" width="40" height="20" as="geometry" />
        </mxCell>
        <mxCell id="r0YQZ8dnGciPNhjqUGt--17" value="Pong" style="text;html=1;strokeColor=none;fillColor=none;align=center;verticalAlign=middle;whiteSpace=wrap;rounded=0;" parent="r0YQZ8dnGciPNhjqUGt--1" vertex="1">
          <mxGeometry x="340" y="210" width="40" height="20" as="geometry" />
        </mxCell>
        <mxCell id="r0YQZ8dnGciPNhjqUGt--18" value="" style="endArrow=none;html=1;strokeWidth=1;exitX=1;exitY=0.5;exitDx=0;exitDy=0;entryX=0;entryY=0.5;entryDx=0;entryDy=0;startArrow=classic;startFill=1;endFill=0;" parent="r0YQZ8dnGciPNhjqUGt--1" edge="1">
          <mxGeometry width="50" height="50" relative="1" as="geometry">
            <mxPoint x="300" y="290" as="sourcePoint" />
            <mxPoint x="425" y="290" as="targetPoint" />
          </mxGeometry>
        </mxCell>
        <mxCell id="r0YQZ8dnGciPNhjqUGt--19" value="Ping" style="text;html=1;strokeColor=none;fillColor=none;align=center;verticalAlign=middle;whiteSpace=wrap;rounded=0;" parent="r0YQZ8dnGciPNhjqUGt--1" vertex="1">
          <mxGeometry x="340" y="270" width="40" height="20" as="geometry" />
        </mxCell>
        <mxCell id="r0YQZ8dnGciPNhjqUGt--20" value="" style="shape=sumEllipse;perimeter=ellipsePerimeter;whiteSpace=wrap;html=1;backgroundOutline=1;strokeColor=#36393d;fillColor=#eeeeee;" parent="r0YQZ8dnGciPNhjqUGt--1" vertex="1">
          <mxGeometry x="345" y="300" width="25" height="20" as="geometry" />
        </mxCell>
        <mxCell id="r0YQZ8dnGciPNhjqUGt--22" value="Pong" style="text;html=1;strokeColor=none;fillColor=none;align=center;verticalAlign=middle;whiteSpace=wrap;rounded=0;" parent="r0YQZ8dnGciPNhjqUGt--1" vertex="1">
          <mxGeometry x="305" y="310" width="40" height="20" as="geometry" />
        </mxCell>
        <mxCell id="r0YQZ8dnGciPNhjqUGt--23" value="" style="rounded=0;whiteSpace=wrap;html=1;strokeColor=#6c8ebf;fillColor=#dae8fc;" parent="r0YQZ8dnGciPNhjqUGt--1" vertex="1">
          <mxGeometry x="160" y="480" width="140" height="200" as="geometry" />
        </mxCell>
        <mxCell id="r0YQZ8dnGciPNhjqUGt--27" style="edgeStyle=orthogonalEdgeStyle;rounded=1;orthogonalLoop=1;jettySize=auto;html=1;exitX=0.5;exitY=1;exitDx=0;exitDy=0;entryX=1;entryY=0.5;entryDx=0;entryDy=0;startArrow=none;startFill=0;endArrow=classic;endFill=1;strokeWidth=1;" parent="r0YQZ8dnGciPNhjqUGt--1" source="r0YQZ8dnGciPNhjqUGt--24" target="r0YQZ8dnGciPNhjqUGt--23" edge="1">
          <mxGeometry relative="1" as="geometry" />
        </mxCell>
        <mxCell id="r0YQZ8dnGciPNhjqUGt--31" style="edgeStyle=orthogonalEdgeStyle;rounded=1;orthogonalLoop=1;jettySize=auto;html=1;exitX=0;exitY=0.5;exitDx=0;exitDy=0;entryX=1;entryY=0.5;entryDx=0;entryDy=0;startArrow=none;startFill=0;endArrow=classic;endFill=1;strokeWidth=1;" parent="r0YQZ8dnGciPNhjqUGt--1" source="r0YQZ8dnGciPNhjqUGt--24" target="r0YQZ8dnGciPNhjqUGt--30" edge="1">
          <mxGeometry relative="1" as="geometry" />
        </mxCell>
        <mxCell id="r0YQZ8dnGciPNhjqUGt--24" value="pong received" style="rhombus;whiteSpace=wrap;html=1;strokeColor=#000000;fillColor=none;gradientColor=#ffffff;" parent="r0YQZ8dnGciPNhjqUGt--1" vertex="1">
          <mxGeometry x="335" y="390" width="65" height="60" as="geometry" />
        </mxCell>
        <mxCell id="r0YQZ8dnGciPNhjqUGt--25" value="Nad Proxy&lt;br&gt;(Nad Manager) Replica" style="text;html=1;strokeColor=none;fillColor=none;align=center;verticalAlign=middle;whiteSpace=wrap;rounded=0;" parent="r0YQZ8dnGciPNhjqUGt--1" vertex="1">
          <mxGeometry x="170" y="490" width="100" height="20" as="geometry" />
        </mxCell>
        <mxCell id="r0YQZ8dnGciPNhjqUGt--28" value="wake up replica" style="text;html=1;strokeColor=none;fillColor=none;align=center;verticalAlign=middle;whiteSpace=wrap;rounded=0;" parent="r0YQZ8dnGciPNhjqUGt--1" vertex="1">
          <mxGeometry x="370" y="510" width="90" height="20" as="geometry" />
        </mxCell>
        <mxCell id="r0YQZ8dnGciPNhjqUGt--29" value="No" style="text;html=1;strokeColor=none;fillColor=none;align=center;verticalAlign=middle;whiteSpace=wrap;rounded=0;" parent="r0YQZ8dnGciPNhjqUGt--1" vertex="1">
          <mxGeometry x="360" y="450" width="40" height="20" as="geometry" />
        </mxCell>
        <mxCell id="r0YQZ8dnGciPNhjqUGt--30" value="" style="shape=sumEllipse;perimeter=ellipsePerimeter;whiteSpace=wrap;html=1;backgroundOutline=1;strokeColor=#36393d;fillColor=#eeeeee;" parent="r0YQZ8dnGciPNhjqUGt--1" vertex="1">
          <mxGeometry x="270" y="405" width="30" height="30" as="geometry" />
        </mxCell>
        <mxCell id="r0YQZ8dnGciPNhjqUGt--32" value="Yes" style="text;html=1;strokeColor=none;fillColor=none;align=center;verticalAlign=middle;whiteSpace=wrap;rounded=0;" parent="r0YQZ8dnGciPNhjqUGt--1" vertex="1">
          <mxGeometry x="305" y="400" width="40" height="20" as="geometry" />
        </mxCell>
        <mxCell id="YfggewqYry_rzke_3wsc-1" value="" style="group" parent="r0YQZ8dnGciPNhjqUGt--1" vertex="1" connectable="0">
          <mxGeometry x="600" y="60" width="230" height="120" as="geometry" />
        </mxCell>
        <mxCell id="r0YQZ8dnGciPNhjqUGt--35" value="" style="ellipse;shape=cloud;whiteSpace=wrap;html=1;strokeColor=#000000;fillColor=none;gradientColor=#ffffff;" parent="YfggewqYry_rzke_3wsc-1" vertex="1">
          <mxGeometry width="220" height="120" as="geometry" />
        </mxCell>
        <mxCell id="YfggewqYry_rzke_3wsc-0" value="&lt;b&gt;Detect fault: Ping/Pong&lt;br&gt;Recover fault: Cold spare&lt;/b&gt;" style="text;html=1;strokeColor=none;fillColor=none;align=left;verticalAlign=middle;whiteSpace=wrap;rounded=0;" parent="YfggewqYry_rzke_3wsc-1" vertex="1">
          <mxGeometry x="50" y="30" width="180" height="50" as="geometry" />
        </mxCell>
      </root>
    </mxGraphModel>
  </diagram>
  <diagram id="66mQ-d1aXaK0Q3Fe-83T" name="requestmonitorp1">
    <mxGraphModel dx="2912" dy="1182" grid="1" gridSize="10" guides="1" tooltips="1" connect="1" arrows="1" fold="1" page="1" pageScale="1" pageWidth="850" pageHeight="1100" math="0" shadow="0">
      <root>
        <mxCell id="KGyN9Fx0LRngeajroZ2k-0" />
        <mxCell id="KGyN9Fx0LRngeajroZ2k-1" parent="KGyN9Fx0LRngeajroZ2k-0" />
        <mxCell id="KGyN9Fx0LRngeajroZ2k-2" value="" style="rounded=0;whiteSpace=wrap;html=1;" parent="KGyN9Fx0LRngeajroZ2k-1" vertex="1">
          <mxGeometry x="365" y="373.25" width="630" height="420" as="geometry" />
        </mxCell>
        <mxCell id="KGyN9Fx0LRngeajroZ2k-4" value="" style="endArrow=classic;html=1;" parent="KGyN9Fx0LRngeajroZ2k-1" edge="1">
          <mxGeometry width="50" height="50" relative="1" as="geometry">
            <mxPoint x="435" y="653.25" as="sourcePoint" />
            <mxPoint x="985" y="653.25" as="targetPoint" />
          </mxGeometry>
        </mxCell>
        <mxCell id="KGyN9Fx0LRngeajroZ2k-7" value="" style="endArrow=classic;html=1;" parent="KGyN9Fx0LRngeajroZ2k-1" edge="1">
          <mxGeometry width="50" height="50" relative="1" as="geometry">
            <mxPoint x="445" y="653.25" as="sourcePoint" />
            <mxPoint x="445" y="593.25" as="targetPoint" />
          </mxGeometry>
        </mxCell>
        <mxCell id="KGyN9Fx0LRngeajroZ2k-8" value="" style="endArrow=classic;html=1;" parent="KGyN9Fx0LRngeajroZ2k-1" edge="1">
          <mxGeometry width="50" height="50" relative="1" as="geometry">
            <mxPoint x="595" y="653.25" as="sourcePoint" />
            <mxPoint x="595" y="593.25" as="targetPoint" />
          </mxGeometry>
        </mxCell>
        <mxCell id="KGyN9Fx0LRngeajroZ2k-9" value="" style="endArrow=classic;startArrow=classic;html=1;" parent="KGyN9Fx0LRngeajroZ2k-1" edge="1">
          <mxGeometry width="50" height="50" relative="1" as="geometry">
            <mxPoint x="445" y="663.25" as="sourcePoint" />
            <mxPoint x="545" y="663.25" as="targetPoint" />
          </mxGeometry>
        </mxCell>
        <mxCell id="KGyN9Fx0LRngeajroZ2k-10" value="" style="endArrow=classic;startArrow=classic;html=1;" parent="KGyN9Fx0LRngeajroZ2k-1" edge="1">
          <mxGeometry width="50" height="50" relative="1" as="geometry">
            <mxPoint x="595" y="663.25" as="sourcePoint" />
            <mxPoint x="695" y="663.25" as="targetPoint" />
          </mxGeometry>
        </mxCell>
        <mxCell id="KGyN9Fx0LRngeajroZ2k-11" value="" style="endArrow=classic;html=1;" parent="KGyN9Fx0LRngeajroZ2k-1" edge="1">
          <mxGeometry width="50" height="50" relative="1" as="geometry">
            <mxPoint x="765" y="653.25" as="sourcePoint" />
            <mxPoint x="765" y="593.25" as="targetPoint" />
          </mxGeometry>
        </mxCell>
        <mxCell id="KGyN9Fx0LRngeajroZ2k-12" value="" style="endArrow=classic;startArrow=classic;html=1;" parent="KGyN9Fx0LRngeajroZ2k-1" edge="1">
          <mxGeometry width="50" height="50" relative="1" as="geometry">
            <mxPoint x="765" y="663.25" as="sourcePoint" />
            <mxPoint x="865" y="663.25" as="targetPoint" />
          </mxGeometry>
        </mxCell>
        <mxCell id="KGyN9Fx0LRngeajroZ2k-13" value="Heartbeat" style="text;html=1;strokeColor=none;fillColor=none;align=center;verticalAlign=middle;whiteSpace=wrap;rounded=0;" parent="KGyN9Fx0LRngeajroZ2k-1" vertex="1">
          <mxGeometry x="425" y="573.25" width="40" height="20" as="geometry" />
        </mxCell>
        <mxCell id="KGyN9Fx0LRngeajroZ2k-14" value="Heartbeat" style="text;html=1;strokeColor=none;fillColor=none;align=center;verticalAlign=middle;whiteSpace=wrap;rounded=0;" parent="KGyN9Fx0LRngeajroZ2k-1" vertex="1">
          <mxGeometry x="585" y="573.25" width="40" height="20" as="geometry" />
        </mxCell>
        <mxCell id="KGyN9Fx0LRngeajroZ2k-15" value="Heartbeat" style="text;html=1;strokeColor=none;fillColor=none;align=center;verticalAlign=middle;whiteSpace=wrap;rounded=0;" parent="KGyN9Fx0LRngeajroZ2k-1" vertex="1">
          <mxGeometry x="745" y="573.25" width="40" height="20" as="geometry" />
        </mxCell>
        <mxCell id="KGyN9Fx0LRngeajroZ2k-16" value="Limit time" style="text;html=1;strokeColor=none;fillColor=none;align=center;verticalAlign=middle;whiteSpace=wrap;rounded=0;" parent="KGyN9Fx0LRngeajroZ2k-1" vertex="1">
          <mxGeometry x="475" y="673.25" width="40" height="20" as="geometry" />
        </mxCell>
        <mxCell id="KGyN9Fx0LRngeajroZ2k-17" value="Limit time" style="text;html=1;strokeColor=none;fillColor=none;align=center;verticalAlign=middle;whiteSpace=wrap;rounded=0;" parent="KGyN9Fx0LRngeajroZ2k-1" vertex="1">
          <mxGeometry x="625" y="673.25" width="40" height="20" as="geometry" />
        </mxCell>
        <mxCell id="KGyN9Fx0LRngeajroZ2k-18" value="Limit time" style="text;html=1;strokeColor=none;fillColor=none;align=center;verticalAlign=middle;whiteSpace=wrap;rounded=0;" parent="KGyN9Fx0LRngeajroZ2k-1" vertex="1">
          <mxGeometry x="795" y="673.25" width="40" height="20" as="geometry" />
        </mxCell>
        <mxCell id="KGyN9Fx0LRngeajroZ2k-19" value="" style="endArrow=classic;html=1;fillColor=#d80073;strokeColor=#A50040;" parent="KGyN9Fx0LRngeajroZ2k-1" edge="1">
          <mxGeometry width="50" height="50" relative="1" as="geometry">
            <mxPoint x="514" y="653.25" as="sourcePoint" />
            <mxPoint x="514" y="593.25" as="targetPoint" />
          </mxGeometry>
        </mxCell>
        <mxCell id="KGyN9Fx0LRngeajroZ2k-20" value="Heartbeat" style="text;html=1;strokeColor=none;fillColor=none;align=center;verticalAlign=middle;whiteSpace=wrap;rounded=0;" parent="KGyN9Fx0LRngeajroZ2k-1" vertex="1">
          <mxGeometry x="505" y="573.25" width="40" height="20" as="geometry" />
        </mxCell>
        <mxCell id="KGyN9Fx0LRngeajroZ2k-21" value="" style="endArrow=classic;html=1;fillColor=#d80073;strokeColor=#A50040;" parent="KGyN9Fx0LRngeajroZ2k-1" edge="1">
          <mxGeometry width="50" height="50" relative="1" as="geometry">
            <mxPoint x="674" y="653.25" as="sourcePoint" />
            <mxPoint x="674" y="593.25" as="targetPoint" />
          </mxGeometry>
        </mxCell>
        <mxCell id="KGyN9Fx0LRngeajroZ2k-22" value="Heartbeat" style="text;html=1;strokeColor=none;fillColor=none;align=center;verticalAlign=middle;whiteSpace=wrap;rounded=0;" parent="KGyN9Fx0LRngeajroZ2k-1" vertex="1">
          <mxGeometry x="665" y="573.25" width="40" height="20" as="geometry" />
        </mxCell>
        <mxCell id="KGyN9Fx0LRngeajroZ2k-23" value="" style="endArrow=classic;html=1;fillColor=#d80073;strokeColor=#A50040;" parent="KGyN9Fx0LRngeajroZ2k-1" edge="1">
          <mxGeometry width="50" height="50" relative="1" as="geometry">
            <mxPoint x="894" y="653.25" as="sourcePoint" />
            <mxPoint x="894" y="593.25" as="targetPoint" />
          </mxGeometry>
        </mxCell>
        <mxCell id="KGyN9Fx0LRngeajroZ2k-24" value="Heartbeat" style="text;html=1;strokeColor=none;fillColor=none;align=center;verticalAlign=middle;whiteSpace=wrap;rounded=0;" parent="KGyN9Fx0LRngeajroZ2k-1" vertex="1">
          <mxGeometry x="885" y="573.25" width="40" height="20" as="geometry" />
        </mxCell>
        <mxCell id="KGyN9Fx0LRngeajroZ2k-25" value="" style="endArrow=classic;startArrow=classic;html=1;dashed=1;" parent="KGyN9Fx0LRngeajroZ2k-1" edge="1">
          <mxGeometry width="50" height="50" relative="1" as="geometry">
            <mxPoint x="440" y="553.25" as="sourcePoint" />
            <mxPoint x="520" y="553.25" as="targetPoint" />
          </mxGeometry>
        </mxCell>
        <mxCell id="KGyN9Fx0LRngeajroZ2k-26" value="Processing time of provisioning request" style="text;html=1;strokeColor=none;fillColor=none;align=center;verticalAlign=middle;whiteSpace=wrap;rounded=0;" parent="KGyN9Fx0LRngeajroZ2k-1" vertex="1">
          <mxGeometry x="425" y="523.25" width="110" height="20" as="geometry" />
        </mxCell>
        <mxCell id="KGyN9Fx0LRngeajroZ2k-28" value="" style="endArrow=classic;startArrow=classic;html=1;dashed=1;" parent="KGyN9Fx0LRngeajroZ2k-1" edge="1">
          <mxGeometry width="50" height="50" relative="1" as="geometry">
            <mxPoint x="592.5" y="548.25" as="sourcePoint" />
            <mxPoint x="677.5" y="547.75" as="targetPoint" />
          </mxGeometry>
        </mxCell>
        <mxCell id="KGyN9Fx0LRngeajroZ2k-29" value="Processing time of coding request" style="text;html=1;strokeColor=none;fillColor=none;align=center;verticalAlign=middle;whiteSpace=wrap;rounded=0;" parent="KGyN9Fx0LRngeajroZ2k-1" vertex="1">
          <mxGeometry x="580" y="517.75" width="110" height="20" as="geometry" />
        </mxCell>
        <mxCell id="KGyN9Fx0LRngeajroZ2k-30" value="" style="endArrow=classic;startArrow=classic;html=1;dashed=1;" parent="KGyN9Fx0LRngeajroZ2k-1" edge="1">
          <mxGeometry width="50" height="50" relative="1" as="geometry">
            <mxPoint x="765" y="553.25" as="sourcePoint" />
            <mxPoint x="895" y="553.25" as="targetPoint" />
          </mxGeometry>
        </mxCell>
        <mxCell id="KGyN9Fx0LRngeajroZ2k-31" value="Processing time of diagnostic request" style="text;html=1;strokeColor=none;fillColor=none;align=center;verticalAlign=middle;whiteSpace=wrap;rounded=0;" parent="KGyN9Fx0LRngeajroZ2k-1" vertex="1">
          <mxGeometry x="745" y="523.25" width="110" height="20" as="geometry" />
        </mxCell>
        <mxCell id="KGyN9Fx0LRngeajroZ2k-36" style="edgeStyle=orthogonalEdgeStyle;rounded=1;orthogonalLoop=1;jettySize=auto;html=1;exitX=0.55;exitY=0.95;exitDx=0;exitDy=0;exitPerimeter=0;dashed=1;" parent="KGyN9Fx0LRngeajroZ2k-1" source="KGyN9Fx0LRngeajroZ2k-32" edge="1">
          <mxGeometry relative="1" as="geometry">
            <mxPoint x="491" y="513.25" as="targetPoint" />
          </mxGeometry>
        </mxCell>
        <mxCell id="KGyN9Fx0LRngeajroZ2k-37" style="edgeStyle=orthogonalEdgeStyle;rounded=1;orthogonalLoop=1;jettySize=auto;html=1;exitX=0.8;exitY=0.8;exitDx=0;exitDy=0;exitPerimeter=0;dashed=1;" parent="KGyN9Fx0LRngeajroZ2k-1" source="KGyN9Fx0LRngeajroZ2k-32" edge="1">
          <mxGeometry relative="1" as="geometry">
            <mxPoint x="625" y="513.25" as="targetPoint" />
          </mxGeometry>
        </mxCell>
        <mxCell id="KGyN9Fx0LRngeajroZ2k-32" value="" style="ellipse;shape=cloud;whiteSpace=wrap;html=1;gradientColor=#97d077;fillColor=#d5e8d4;strokeColor=#82b366;" parent="KGyN9Fx0LRngeajroZ2k-1" vertex="1">
          <mxGeometry x="425" y="383.25" width="120" height="80" as="geometry" />
        </mxCell>
        <mxCell id="KGyN9Fx0LRngeajroZ2k-33" value="Timely request" style="text;html=1;strokeColor=none;fillColor=none;align=center;verticalAlign=middle;whiteSpace=wrap;rounded=0;" parent="KGyN9Fx0LRngeajroZ2k-1" vertex="1">
          <mxGeometry x="465" y="413.25" width="40" height="20" as="geometry" />
        </mxCell>
        <mxCell id="KGyN9Fx0LRngeajroZ2k-38" style="edgeStyle=orthogonalEdgeStyle;rounded=1;orthogonalLoop=1;jettySize=auto;html=1;exitX=0.55;exitY=0.95;exitDx=0;exitDy=0;exitPerimeter=0;dashed=1;" parent="KGyN9Fx0LRngeajroZ2k-1" source="KGyN9Fx0LRngeajroZ2k-34" edge="1">
          <mxGeometry relative="1" as="geometry">
            <mxPoint x="785" y="513.25" as="targetPoint" />
          </mxGeometry>
        </mxCell>
        <mxCell id="KGyN9Fx0LRngeajroZ2k-34" value="" style="ellipse;shape=cloud;whiteSpace=wrap;html=1;gradientColor=#ea6b66;fillColor=#f8cecc;strokeColor=#b85450;" parent="KGyN9Fx0LRngeajroZ2k-1" vertex="1">
          <mxGeometry x="755" y="373.25" width="120" height="80" as="geometry" />
        </mxCell>
        <mxCell id="KGyN9Fx0LRngeajroZ2k-35" value="Delayed request" style="text;html=1;strokeColor=none;fillColor=none;align=center;verticalAlign=middle;whiteSpace=wrap;rounded=0;" parent="KGyN9Fx0LRngeajroZ2k-1" vertex="1">
          <mxGeometry x="795" y="413.25" width="40" height="20" as="geometry" />
        </mxCell>
        <mxCell id="XDF824aTHe1SPrtn6kcK-4" style="edgeStyle=orthogonalEdgeStyle;rounded=1;orthogonalLoop=1;jettySize=auto;html=1;dashed=1;" parent="KGyN9Fx0LRngeajroZ2k-1" source="XDF824aTHe1SPrtn6kcK-0" edge="1">
          <mxGeometry relative="1" as="geometry">
            <mxPoint x="445" y="663.25" as="targetPoint" />
            <mxPoint x="445" y="720" as="sourcePoint" />
            <Array as="points" />
          </mxGeometry>
        </mxCell>
        <mxCell id="XDF824aTHe1SPrtn6kcK-5" style="edgeStyle=orthogonalEdgeStyle;rounded=1;orthogonalLoop=1;jettySize=auto;html=1;exitX=0.5;exitY=0;exitDx=0;exitDy=0;dashed=1;" parent="KGyN9Fx0LRngeajroZ2k-1" source="XDF824aTHe1SPrtn6kcK-1" edge="1">
          <mxGeometry relative="1" as="geometry">
            <mxPoint x="545" y="663.25" as="targetPoint" />
          </mxGeometry>
        </mxCell>
        <mxCell id="XDF824aTHe1SPrtn6kcK-1" value="" style="ellipse;whiteSpace=wrap;html=1;aspect=fixed;gradientColor=#d5739d;fillColor=#e6d0de;strokeColor=#996185;" parent="KGyN9Fx0LRngeajroZ2k-1" vertex="1">
          <mxGeometry x="535" y="723.25" width="20" height="20" as="geometry" />
        </mxCell>
        <mxCell id="XDF824aTHe1SPrtn6kcK-3" value="Limit timestamp" style="text;html=1;strokeColor=none;fillColor=none;align=center;verticalAlign=middle;whiteSpace=wrap;rounded=0;" parent="KGyN9Fx0LRngeajroZ2k-1" vertex="1">
          <mxGeometry x="505" y="743.25" width="100" height="20" as="geometry" />
        </mxCell>
        <mxCell id="O5QLyvHGTgRD95WuOlev-0" value="" style="group;gradientColor=#b3b3b3;fillColor=#f5f5f5;strokeColor=#666666;container=0;" parent="KGyN9Fx0LRngeajroZ2k-1" vertex="1" connectable="0">
          <mxGeometry x="-580" y="490" width="870" height="310" as="geometry" />
        </mxCell>
        <mxCell id="nrjHTGb8qRAotWvzNHdz-2" value="Start timestamp" style="text;html=1;strokeColor=none;fillColor=none;align=center;verticalAlign=middle;whiteSpace=wrap;rounded=0;" parent="KGyN9Fx0LRngeajroZ2k-1" vertex="1">
          <mxGeometry x="400" y="733.25" width="90" height="20" as="geometry" />
        </mxCell>
        <mxCell id="auBqur2o63NOy64t6iZq-1" value="" style="rounded=0;whiteSpace=wrap;html=1;" parent="KGyN9Fx0LRngeajroZ2k-1" vertex="1">
          <mxGeometry x="-310" y="900" width="810" height="360" as="geometry" />
        </mxCell>
        <mxCell id="auBqur2o63NOy64t6iZq-2" value="" style="endArrow=classic;html=1;" parent="KGyN9Fx0LRngeajroZ2k-1" edge="1">
          <mxGeometry x="-310" y="840" width="50" height="50" as="geometry">
            <mxPoint x="-240" y="1030" as="sourcePoint" />
            <mxPoint x="310" y="1030" as="targetPoint" />
          </mxGeometry>
        </mxCell>
        <mxCell id="auBqur2o63NOy64t6iZq-3" value="" style="endArrow=classic;startArrow=classic;html=1;" parent="KGyN9Fx0LRngeajroZ2k-1" edge="1">
          <mxGeometry x="-310" y="840" width="50" height="50" as="geometry">
            <mxPoint x="-200" y="1040" as="sourcePoint" />
            <mxPoint x="-100" y="1040" as="targetPoint" />
          </mxGeometry>
        </mxCell>
        <mxCell id="auBqur2o63NOy64t6iZq-4" value="monitor health state" style="text;html=1;strokeColor=none;fillColor=none;align=center;verticalAlign=middle;whiteSpace=wrap;rounded=0;" parent="KGyN9Fx0LRngeajroZ2k-1" vertex="1">
          <mxGeometry x="-260" y="930" width="70" height="40" as="geometry" />
        </mxCell>
        <mxCell id="auBqur2o63NOy64t6iZq-5" value="WaitTime" style="text;html=1;strokeColor=none;fillColor=none;align=center;verticalAlign=middle;whiteSpace=wrap;rounded=0;" parent="KGyN9Fx0LRngeajroZ2k-1" vertex="1">
          <mxGeometry x="-170" y="1040" width="40" height="20" as="geometry" />
        </mxCell>
        <mxCell id="auBqur2o63NOy64t6iZq-6" value="" style="shape=flexArrow;endArrow=classic;html=1;endWidth=26;endSize=6.67;width=46;gradientColor=#97d077;fillColor=#d5e8d4;strokeColor=#82b366;" parent="KGyN9Fx0LRngeajroZ2k-1" edge="1">
          <mxGeometry x="-310" y="840" width="50" height="50" as="geometry">
            <mxPoint x="-220.5" y="1030" as="sourcePoint" />
            <mxPoint x="-220.5" y="970" as="targetPoint" />
            <Array as="points">
              <mxPoint x="-220.5" y="1010" />
            </Array>
          </mxGeometry>
        </mxCell>
        <mxCell id="auBqur2o63NOy64t6iZq-7" value="" style="shape=flexArrow;endArrow=classic;html=1;endWidth=26;endSize=6.67;width=46;gradientColor=#97d077;fillColor=#d5e8d4;strokeColor=#82b366;" parent="KGyN9Fx0LRngeajroZ2k-1" edge="1">
          <mxGeometry x="-310" y="840" width="50" height="50" as="geometry">
            <mxPoint x="-80" y="1030" as="sourcePoint" />
            <mxPoint x="-80" y="970" as="targetPoint" />
            <Array as="points">
              <mxPoint x="-80" y="1010" />
            </Array>
          </mxGeometry>
        </mxCell>
        <mxCell id="auBqur2o63NOy64t6iZq-8" value="" style="shape=flexArrow;endArrow=classic;html=1;endWidth=26;endSize=6.67;width=46;gradientColor=#97d077;fillColor=#d5e8d4;strokeColor=#82b366;" parent="KGyN9Fx0LRngeajroZ2k-1" edge="1">
          <mxGeometry x="-310" y="840" width="50" height="50" as="geometry">
            <mxPoint x="120" y="1030" as="sourcePoint" />
            <mxPoint x="120" y="970" as="targetPoint" />
            <Array as="points">
              <mxPoint x="120" y="1010" />
            </Array>
          </mxGeometry>
        </mxCell>
        <mxCell id="auBqur2o63NOy64t6iZq-9" value="" style="endArrow=classic;startArrow=classic;html=1;" parent="KGyN9Fx0LRngeajroZ2k-1" edge="1">
          <mxGeometry x="-310" y="840" width="50" height="50" as="geometry">
            <mxPoint x="-60" y="1040" as="sourcePoint" />
            <mxPoint x="100" y="1040" as="targetPoint" />
          </mxGeometry>
        </mxCell>
        <mxCell id="auBqur2o63NOy64t6iZq-10" value="WaitTime" style="text;html=1;strokeColor=none;fillColor=none;align=center;verticalAlign=middle;whiteSpace=wrap;rounded=0;" parent="KGyN9Fx0LRngeajroZ2k-1" vertex="1">
          <mxGeometry x="-30" y="1040" width="40" height="20" as="geometry" />
        </mxCell>
        <mxCell id="auBqur2o63NOy64t6iZq-11" value="monitor health state" style="text;html=1;strokeColor=none;fillColor=none;align=center;verticalAlign=middle;whiteSpace=wrap;rounded=0;" parent="KGyN9Fx0LRngeajroZ2k-1" vertex="1">
          <mxGeometry x="-110" y="930" width="70" height="40" as="geometry" />
        </mxCell>
        <mxCell id="auBqur2o63NOy64t6iZq-12" value="monitor health state" style="text;html=1;strokeColor=none;fillColor=none;align=center;verticalAlign=middle;whiteSpace=wrap;rounded=0;" parent="KGyN9Fx0LRngeajroZ2k-1" vertex="1">
          <mxGeometry x="80" y="930" width="70" height="40" as="geometry" />
        </mxCell>
        <mxCell id="auBqur2o63NOy64t6iZq-13" value="" style="rounded=0;whiteSpace=wrap;html=1;" parent="KGyN9Fx0LRngeajroZ2k-1" vertex="1">
          <mxGeometry x="-250" y="1080" width="510" height="30" as="geometry" />
        </mxCell>
        <mxCell id="auBqur2o63NOy64t6iZq-14" value="Running" style="rounded=0;whiteSpace=wrap;html=1;gradientColor=#97d077;fillColor=#d5e8d4;strokeColor=#82b366;" parent="KGyN9Fx0LRngeajroZ2k-1" vertex="1">
          <mxGeometry x="-250" y="1080" width="50" height="30" as="geometry" />
        </mxCell>
        <mxCell id="auBqur2o63NOy64t6iZq-24" style="edgeStyle=orthogonalEdgeStyle;rounded=1;orthogonalLoop=1;jettySize=auto;html=1;exitX=0;exitY=1;exitDx=0;exitDy=0;dashed=1;entryX=0.047;entryY=0;entryDx=0;entryDy=0;entryPerimeter=0;" parent="KGyN9Fx0LRngeajroZ2k-1" source="auBqur2o63NOy64t6iZq-15" target="auBqur2o63NOy64t6iZq-25" edge="1">
          <mxGeometry x="-310" y="840" as="geometry">
            <mxPoint x="-225" y="1205" as="targetPoint" />
          </mxGeometry>
        </mxCell>
        <mxCell id="auBqur2o63NOy64t6iZq-15" value="Sleeping" style="rounded=0;whiteSpace=wrap;html=1;gradientColor=#b3b3b3;fillColor=#f5f5f5;strokeColor=#666666;" parent="KGyN9Fx0LRngeajroZ2k-1" vertex="1">
          <mxGeometry x="-200" y="1080" width="100" height="30" as="geometry" />
        </mxCell>
        <mxCell id="auBqur2o63NOy64t6iZq-55" style="edgeStyle=orthogonalEdgeStyle;rounded=1;orthogonalLoop=1;jettySize=auto;html=1;exitX=1;exitY=1;exitDx=0;exitDy=0;entryX=0.25;entryY=0;entryDx=0;entryDy=0;dashed=1;startArrow=none;startFill=0;" parent="KGyN9Fx0LRngeajroZ2k-1" source="auBqur2o63NOy64t6iZq-16" target="auBqur2o63NOy64t6iZq-25" edge="1">
          <mxGeometry relative="1" as="geometry" />
        </mxCell>
        <mxCell id="auBqur2o63NOy64t6iZq-16" value="Running" style="rounded=0;whiteSpace=wrap;html=1;gradientColor=#97d077;fillColor=#d5e8d4;strokeColor=#82b366;" parent="KGyN9Fx0LRngeajroZ2k-1" vertex="1">
          <mxGeometry x="-100" y="1080" width="50" height="30" as="geometry" />
        </mxCell>
        <mxCell id="auBqur2o63NOy64t6iZq-17" value="Sleeping" style="rounded=0;whiteSpace=wrap;html=1;gradientColor=#b3b3b3;fillColor=#f5f5f5;strokeColor=#666666;" parent="KGyN9Fx0LRngeajroZ2k-1" vertex="1">
          <mxGeometry x="-50" y="1080" width="150" height="30" as="geometry" />
        </mxCell>
        <mxCell id="auBqur2o63NOy64t6iZq-18" value="Running" style="rounded=0;whiteSpace=wrap;html=1;gradientColor=#97d077;fillColor=#d5e8d4;strokeColor=#82b366;" parent="KGyN9Fx0LRngeajroZ2k-1" vertex="1">
          <mxGeometry x="100" y="1080" width="50" height="30" as="geometry" />
        </mxCell>
        <mxCell id="auBqur2o63NOy64t6iZq-19" value="" style="endArrow=classic;startArrow=classic;html=1;" parent="KGyN9Fx0LRngeajroZ2k-1" edge="1">
          <mxGeometry x="-310" y="840" width="50" height="50" as="geometry">
            <mxPoint x="140" y="1040" as="sourcePoint" />
            <mxPoint x="260" y="1040" as="targetPoint" />
          </mxGeometry>
        </mxCell>
        <mxCell id="auBqur2o63NOy64t6iZq-20" value="WaitTime" style="text;html=1;strokeColor=none;fillColor=none;align=center;verticalAlign=middle;whiteSpace=wrap;rounded=0;" parent="KGyN9Fx0LRngeajroZ2k-1" vertex="1">
          <mxGeometry x="170" y="1040" width="40" height="20" as="geometry" />
        </mxCell>
        <mxCell id="auBqur2o63NOy64t6iZq-56" style="edgeStyle=orthogonalEdgeStyle;rounded=1;orthogonalLoop=1;jettySize=auto;html=1;exitX=0;exitY=1;exitDx=0;exitDy=0;entryX=0.5;entryY=0;entryDx=0;entryDy=0;dashed=1;startArrow=none;startFill=0;" parent="KGyN9Fx0LRngeajroZ2k-1" source="auBqur2o63NOy64t6iZq-21" target="auBqur2o63NOy64t6iZq-25" edge="1">
          <mxGeometry relative="1" as="geometry" />
        </mxCell>
        <mxCell id="auBqur2o63NOy64t6iZq-21" value="Sleeping" style="rounded=0;whiteSpace=wrap;html=1;gradientColor=#b3b3b3;fillColor=#f5f5f5;strokeColor=#666666;" parent="KGyN9Fx0LRngeajroZ2k-1" vertex="1">
          <mxGeometry x="150" y="1080" width="110" height="30" as="geometry" />
        </mxCell>
        <mxCell id="auBqur2o63NOy64t6iZq-22" value="Internal state of monitoring thread" style="text;html=1;strokeColor=none;fillColor=none;align=center;verticalAlign=middle;whiteSpace=wrap;rounded=0;" parent="KGyN9Fx0LRngeajroZ2k-1" vertex="1">
          <mxGeometry x="260" y="1085" width="105" height="20" as="geometry" />
        </mxCell>
        <mxCell id="auBqur2o63NOy64t6iZq-25" value="" style="rounded=0;whiteSpace=wrap;html=1;" parent="KGyN9Fx0LRngeajroZ2k-1" vertex="1">
          <mxGeometry x="-260" y="1210" width="740" height="40" as="geometry" />
        </mxCell>
        <mxCell id="auBqur2o63NOy64t6iZq-52" value="" style="shape=image;verticalLabelPosition=bottom;labelBackgroundColor=#ffffff;verticalAlign=top;aspect=fixed;imageAspect=0;image=data:image/png,iVBORw0KGgoAAAANSUhEUgAAAtsAAAAXCAYAAADaxYNOAAAKWUlEQVR4Ae2c7ZEUOROE1wVswAV8wARswAU8wAM8wAIswAF+E4EH+DAXz3K55NWWetTz8b7dPVkRfeqWSlJVKlWq7h3u6RQJAkEgCASBIBAEgkAQCAJB4C4IPN1l1AwaBIJAEAgCQSAIBIEgEASCwCnJ9gOQ4Pfv36ePHz+e3rx5c3r//v0DeBwXg0AQCAJBYO8IfP78+fT09HT68OHD6cePH3t3J/Y/MAJJth9g8Umw3717l2D1AGsdF4NAEAgCR0Lg169fz8k2H4v4cBQJAntE4CXZJiHjDZILckv4IupfQ3m7lB7lGmGj0Ofbt2+L3Xz87t7fcGfHXJxwJ42X+gqGX79+feWlvhrQzn0nl85Zx7p2nI4HXveonKg43+o53LgVkhlnFoFwbhapx9MjJyHef//+/e7Oc1bBxbdv377kOo/wscrP0+4+Z+x11HvJliExAHsiLIJ7ss10nz59ev5JgoM/Y4bm8H6aQ/1p800FyUn4EfWXrtf5mN5+pHv5v9ZXx7PiAb51fV3n0jl9DO67cera1z563iMnZn2Tj1ssw437rMoRuHEfZE7Pf4FLPLo9ukfg3NI5divESLSJe1ycWQgfqpgbDPcms+ueM/b+K/sq2RbBmJrfSRH4avDj+cuXLzexjkQaYksgtr6y6muof5WttqhfyjECBArH0DVpu9Va+rgz93XtR332yIlZ30Y+b6E+3LjPKhyBG/dB5vSc1CQe3R7dvXNOSaPnJ7dH6fTyb5vIPVz4CcseZXbdc8bef3WHyTakJrEl8fUEly/fnhzLRN6MSM45oCEmAdP7cU8bX8UlPNdLbZTMRfvojbKOyQZRHX2xSX8Kwh5vd9uYizaIie3MWdvdLs1RbffnUX+3YY2NmlP4LY2jlxXZTN9aR5veZik7WTPnEr51HOZyrHTf2VDrtsQJ/YVH9sOfc74t7ZOlNR3h2/UR3t2aVzxHz+HGdfHiyNwYceba+nAunBtxiHyEOHtPUUI/+jDF3MRb5TmuJ/to72IyORP2o3euXT6i1+UkXX/lOR7zdS55qbGXypyxf3JVzlGkw/uSM/aFvQp0kAFhMO5ZPJ+URUXXBZKSpEIMDOPiWYmhdFl0FtKF8Zy03kb/LrF3HR8TfWzDXmzhGVsoVYetzEc/idvLfcVCercoL7WRudf4Klu1NhV32kngwH9J1swJ5h2+jO/jaL6ltZdOLcFvC5xQcMVfBCzxX9L5prUY7ZNLuDHqgz3Ocdk1W4Ybf2JIx+dz8eLo3Jjl0Fq9cC6cG3GGfdidISP9S+qJpczB/h6Jx1tPbLnXueQ6JOY8K2ZQnmtnbumrr+ck3r/Lc9z27hzy9u6e8eVL106dr8U5e0Z5wZKPzHG0OPo34/wXQBzkgiSIJ9vcA2wVdJWQq41k2xM8bRYAlqiOshMWvJtPuurvY9IGwWQ/z4yBPdIj2UZHAhmkD6l59nbp3bJca+Osr9jOhYiseq724/OoDd3ZOc/h242jOso1shVOKPh1L4oj32b2CVis5QZ9wMXXUmu/BlvXDTcujxdH54bz5Jb34Vw4t8QnfSTzJNf1yUFIApeumqfU/kvtrkuM9thPv5qr1Dju/blfaieWsx+QUU5S+9PHz4DROVTtqM85Y//8Th98Xa49Y9tkG+IoCVKyzYIzuRJWNwJyO/F02Lgu7RjrsvQlQ0TxhN37ct+NqX7YIGFe5pJASN8YvjlFNLdd/VSCj/fp7pc27SU2LvlKYiVhjXwtmIsXDa+T7qhe7UtzrsG3G2dp7TV/LYXbVjiBHWAIZxyPkW8z+0Q++njn+AtXGZu+EmzAtksl3LguXhyZG5dy6ly/cC6cG3FE59hS7B/1na0nho4SeR+D2IyucgTFX7eti+M+xrl2xtfV5STqv3T2j84ht6Pea1z3pep057n6rTm35B9l5yPzHimOvkq269uRkm2Sx24B9AXNF737glcTXIBc+pLBgrIIInRdcJ67MennSYY2gttHu3zp7O/mumXdWhtnfRXhK2asXQ0iChj0kXCvt+nZOc/hOxpnae1lTy23ygl8IVhIOt86nqFXX8ou4QZcrm/hPLM/EMas7bK1K8ON//4vxq6JF3vhBrG2crHjxr3qwrnH4RxxCb55YnaOV4qf5/SuaWef13OyG48k1uM9H+5qrlLjeB1nqV2+Uo6k9u/O/u4cGo2nesatvqhN5f8j79p6HBU2S+WrZBugPQGDfNThbCdaZAhI4gXxuFgQNhP1CIc9Y7GYSnQJ7ujST/qagzbmXZJuTMZxW5nLx/Ggztw/f/58bped+MMY2HkvWWsj+Mz4ig/4qnWQ/dRVf9D1BAy/CSDCgb4zc57Dd2T70trL7lpuhRNg6RxjPT34dr7N7pNLuEEf1gqsuXjm4OBee873gHClrjtcwo2/cWdtvNgTN7TH4Qn8hDN+wI/4QT9vU3IgLunZxwrn/p57a/f4uTNqb5yDC3BtjSh+dpxaM86SruIocyGUxHk/E6lHT/GeNnjPfmAfkVNIx8+I50r7T+WANT2Pw3iaFzvQ9zO89ke32tCdQz5Pd58z9vSct4IluHt+OjpjOxy7ur+nyr8BlEV0gUhsDBHQ23SPQRjHQnE4KQET8dCDeOgoIFMnkjJ+V68xNU8tuzEBRCRFHxuwS8KGYD70sBWBxNQxH/Vui/rdsrzExhlfCUT4QSCQb9iNXx6kaMMG6uvl/WbmnMG3G2e09iOcpY+9vp5Vv5vrEryXOEGb4yfeyxbZWnk9s08usZU+7FtxGAzqfgW3KtT5XqE93LguXuyRG+IFcYP4KOn44W2Kk8QWdOuzxxzvF87d9ozaG+eIMcQohNgJdzquiDMqZ/Wkv7aE+zo/mIurxnbGJL8h1hJ3uSfW8oyu4m6N49WWc+1L5w9j1f7ghw1+9o/OoWqLnqUvv1VfS2Gk/U57tWcmL1jycW+crhh1z69P4E4rdbtGgM0DeSPHQ4Dgzvp6ktR5iY6LXjp1OHhb7o+BwCw38JYEmMRBcg9+3GNM2ZtyGwjMcA6ucZF0k5TNnE0adyYp3wYSseIoCIh7587Yc/7+9wQ+p532XSLAGzdvvFsPVCSE3bVL0P9HRnNQ1US6m7rqcMj5XzG6Pluq63hRfdqSvVuwZZYb6NWE5x78uMeY98Q5nFuP7gzn9DUbfGcSGJId/eVuRn+91Y/TI5xev9YznJ4ZNcn2DEo71yFAKVgR6CLHQYB1JYDWZMk9JKmePdi8X+73jcAMN+CNuMOX7a2/kO97RY5v/QzniEUk0HwA4qcI/heVipB+2sBPF/b0caD6kef9IjDD6RnvkmzPoBSdILBTBPwrEoec/85upy7F7BshoD+PwgtdSbZvBG6GaRGAXyTZCEk2vNPLXtshlUHgIAgk2T7IQsaNIBAEgkAQCAJBIAgEge0hkGR7e2sSi4JAEAgCQSAIBIEgEAQOgkCS7YMsZNwIAkEgCASBIBAEgkAQ2B4CSba3tyaxKAgEgSAQBIJAEAgCQeAgCCTZPshCxo0gEASCQBAIAkEgCASB7SHwD67ieCdCubTxAAAAAElFTkSuQmCC;" parent="KGyN9Fx0LRngeajroZ2k-1" vertex="1">
          <mxGeometry x="-250.5" y="1223.5" width="731" height="23" as="geometry" />
        </mxCell>
        <mxCell id="auBqur2o63NOy64t6iZq-57" value="Update WaitTime" style="text;html=1;strokeColor=none;fillColor=none;align=center;verticalAlign=middle;whiteSpace=wrap;rounded=0;" parent="KGyN9Fx0LRngeajroZ2k-1" vertex="1">
          <mxGeometry x="-220" y="1170" width="100" height="20" as="geometry" />
        </mxCell>
        <mxCell id="auBqur2o63NOy64t6iZq-58" value="Update WaitTime" style="text;html=1;strokeColor=none;fillColor=none;align=center;verticalAlign=middle;whiteSpace=wrap;rounded=0;" parent="KGyN9Fx0LRngeajroZ2k-1" vertex="1">
          <mxGeometry x="-70" y="1170" width="100" height="20" as="geometry" />
        </mxCell>
        <mxCell id="auBqur2o63NOy64t6iZq-59" value="Update WaitTime" style="text;html=1;strokeColor=none;fillColor=none;align=center;verticalAlign=middle;whiteSpace=wrap;rounded=0;" parent="KGyN9Fx0LRngeajroZ2k-1" vertex="1">
          <mxGeometry x="110" y="1170" width="100" height="20" as="geometry" />
        </mxCell>
        <mxCell id="auBqur2o63NOy64t6iZq-60" value="" style="rounded=0;whiteSpace=wrap;html=1;gradientColor=#ffffff;fillColor=none;" parent="KGyN9Fx0LRngeajroZ2k-1" vertex="1">
          <mxGeometry x="-600" y="360" width="1600" height="920" as="geometry" />
        </mxCell>
        <mxCell id="auBqur2o63NOy64t6iZq-61" value="&lt;b&gt;Delay tracking algorithm&lt;/b&gt;" style="text;html=1;strokeColor=none;fillColor=none;align=center;verticalAlign=middle;whiteSpace=wrap;rounded=0;" parent="KGyN9Fx0LRngeajroZ2k-1" vertex="1">
          <mxGeometry x="-600" y="360" width="160" height="20" as="geometry" />
        </mxCell>
        <mxCell id="auBqur2o63NOy64t6iZq-66" style="edgeStyle=orthogonalEdgeStyle;rounded=1;orthogonalLoop=1;jettySize=auto;html=1;exitX=0.046;exitY=1.025;exitDx=0;exitDy=0;dashed=1;startArrow=classic;startFill=1;exitPerimeter=0;entryX=0.769;entryY=1;entryDx=0;entryDy=0;entryPerimeter=0;" parent="KGyN9Fx0LRngeajroZ2k-1" source="auBqur2o63NOy64t6iZq-25" edge="1">
          <mxGeometry relative="1" as="geometry">
            <mxPoint x="-224.83999999999992" y="1260" as="sourcePoint" />
            <mxPoint x="-126.28999999999996" y="800" as="targetPoint" />
            <Array as="points">
              <mxPoint x="-226" y="1270" />
              <mxPoint x="-360" y="1270" />
              <mxPoint x="-360" y="830" />
              <mxPoint x="-126" y="830" />
            </Array>
          </mxGeometry>
        </mxCell>
        <mxCell id="O5QLyvHGTgRD95WuOlev-2" value="" style="group" parent="KGyN9Fx0LRngeajroZ2k-1" vertex="1" connectable="0">
          <mxGeometry x="-560" y="500" width="580" height="277.5" as="geometry" />
        </mxCell>
        <mxCell id="O5QLyvHGTgRD95WuOlev-3" value="&lt;font size=&quot;1&quot;&gt;&lt;b style=&quot;font-size: 20px&quot;&gt;Keys&lt;/b&gt;&lt;/font&gt;" style="text;html=1;strokeColor=none;fillColor=none;align=center;verticalAlign=middle;whiteSpace=wrap;rounded=0;" parent="O5QLyvHGTgRD95WuOlev-2" vertex="1">
          <mxGeometry x="30" width="40" height="20" as="geometry" />
        </mxCell>
        <mxCell id="O5QLyvHGTgRD95WuOlev-4" value="Provisioning Request&amp;nbsp;" style="rounded=0;whiteSpace=wrap;html=1;fillColor=#0050ef;strokeColor=#001DBC;fontColor=#ffffff;" parent="O5QLyvHGTgRD95WuOlev-2" vertex="1">
          <mxGeometry y="70" width="120" height="30" as="geometry" />
        </mxCell>
        <mxCell id="O5QLyvHGTgRD95WuOlev-5" value="&lt;b&gt;&lt;font style=&quot;font-size: 20px&quot;&gt;Entries&lt;/font&gt;&lt;/b&gt;" style="text;html=1;strokeColor=none;fillColor=none;align=center;verticalAlign=middle;whiteSpace=wrap;rounded=0;" parent="O5QLyvHGTgRD95WuOlev-2" vertex="1">
          <mxGeometry x="435" width="40" height="20" as="geometry" />
        </mxCell>
        <mxCell id="O5QLyvHGTgRD95WuOlev-6" value="001" style="whiteSpace=wrap;html=1;aspect=fixed;fillColor=#dae8fc;strokeColor=#6c8ebf;" parent="O5QLyvHGTgRD95WuOlev-2" vertex="1">
          <mxGeometry x="280" y="70" width="30" height="30" as="geometry" />
        </mxCell>
        <mxCell id="O5QLyvHGTgRD95WuOlev-7" style="edgeStyle=orthogonalEdgeStyle;rounded=0;orthogonalLoop=1;jettySize=auto;html=1;exitX=1;exitY=0.75;exitDx=0;exitDy=0;entryX=1;entryY=1;entryDx=0;entryDy=0;startArrow=none;startFill=0;endArrow=classic;endFill=1;strokeColor=#CC0066;" parent="O5QLyvHGTgRD95WuOlev-2" source="O5QLyvHGTgRD95WuOlev-6" target="O5QLyvHGTgRD95WuOlev-6" edge="1">
          <mxGeometry relative="1" as="geometry" />
        </mxCell>
        <mxCell id="O5QLyvHGTgRD95WuOlev-8" value="&lt;font size=&quot;1&quot;&gt;&lt;b style=&quot;font-size: 20px&quot;&gt;Hash function&lt;/b&gt;&lt;/font&gt;" style="text;html=1;strokeColor=none;fillColor=none;align=center;verticalAlign=middle;whiteSpace=wrap;rounded=0;" parent="O5QLyvHGTgRD95WuOlev-2" vertex="1">
          <mxGeometry x="160" width="160" height="20" as="geometry" />
        </mxCell>
        <mxCell id="O5QLyvHGTgRD95WuOlev-9" value="LPA Request&amp;nbsp;" style="rounded=0;whiteSpace=wrap;html=1;fillColor=#fff2cc;strokeColor=#d6b656;gradientColor=#ffd966;" parent="O5QLyvHGTgRD95WuOlev-2" vertex="1">
          <mxGeometry x="320" y="65" width="100" height="35" as="geometry" />
        </mxCell>
        <mxCell id="O5QLyvHGTgRD95WuOlev-10" value="123" style="rounded=0;whiteSpace=wrap;html=1;fillColor=#fff2cc;strokeColor=#d6b656;gradientColor=#ffd966;" parent="O5QLyvHGTgRD95WuOlev-2" vertex="1">
          <mxGeometry x="430" y="65" width="50" height="35" as="geometry" />
        </mxCell>
        <mxCell id="O5QLyvHGTgRD95WuOlev-11" value="153" style="rounded=0;whiteSpace=wrap;html=1;fillColor=#fff2cc;strokeColor=#d6b656;gradientColor=#ffd966;" parent="O5QLyvHGTgRD95WuOlev-2" vertex="1">
          <mxGeometry x="490" y="65" width="50" height="35" as="geometry" />
        </mxCell>
        <mxCell id="O5QLyvHGTgRD95WuOlev-12" value="&lt;font color=&quot;#0000cc&quot;&gt;API name&lt;/font&gt;" style="text;html=1;strokeColor=none;fillColor=none;align=center;verticalAlign=middle;whiteSpace=wrap;rounded=0;" parent="O5QLyvHGTgRD95WuOlev-2" vertex="1">
          <mxGeometry x="315" y="45" width="110" height="20" as="geometry" />
        </mxCell>
        <mxCell id="O5QLyvHGTgRD95WuOlev-13" value="&lt;font color=&quot;#0000cc&quot;&gt;Start &lt;br&gt;timestamp&lt;/font&gt;" style="text;html=1;strokeColor=none;fillColor=none;align=center;verticalAlign=middle;whiteSpace=wrap;rounded=0;" parent="O5QLyvHGTgRD95WuOlev-2" vertex="1">
          <mxGeometry x="400" y="40" width="110" height="20" as="geometry" />
        </mxCell>
        <mxCell id="O5QLyvHGTgRD95WuOlev-14" value="&lt;font color=&quot;#0000cc&quot;&gt;Limit&lt;br&gt;timestamp&lt;/font&gt;" style="text;html=1;strokeColor=none;fillColor=none;align=center;verticalAlign=middle;whiteSpace=wrap;rounded=0;" parent="O5QLyvHGTgRD95WuOlev-2" vertex="1">
          <mxGeometry x="460" y="40" width="110" height="20" as="geometry" />
        </mxCell>
        <mxCell id="O5QLyvHGTgRD95WuOlev-15" value="" style="rounded=0;whiteSpace=wrap;html=1;gradientColor=#ffffff;fillColor=none;" parent="O5QLyvHGTgRD95WuOlev-2" vertex="1">
          <mxGeometry x="160" y="30" width="100" height="240" as="geometry" />
        </mxCell>
        <mxCell id="O5QLyvHGTgRD95WuOlev-16" value="Coding Request&amp;nbsp;" style="rounded=0;whiteSpace=wrap;html=1;fillColor=#0050ef;strokeColor=#001DBC;fontColor=#ffffff;" parent="O5QLyvHGTgRD95WuOlev-2" vertex="1">
          <mxGeometry y="125" width="120" height="30" as="geometry" />
        </mxCell>
        <mxCell id="O5QLyvHGTgRD95WuOlev-17" value="002" style="whiteSpace=wrap;html=1;aspect=fixed;fillColor=#dae8fc;strokeColor=#6c8ebf;" parent="O5QLyvHGTgRD95WuOlev-2" vertex="1">
          <mxGeometry x="280" y="125" width="30" height="30" as="geometry" />
        </mxCell>
        <mxCell id="O5QLyvHGTgRD95WuOlev-18" value="Diagnostic Request&amp;nbsp;" style="rounded=0;whiteSpace=wrap;html=1;fillColor=#fff2cc;strokeColor=#d6b656;gradientColor=#ffd966;" parent="O5QLyvHGTgRD95WuOlev-2" vertex="1">
          <mxGeometry x="320" y="120" width="100" height="35" as="geometry" />
        </mxCell>
        <mxCell id="O5QLyvHGTgRD95WuOlev-19" value="235" style="rounded=0;whiteSpace=wrap;html=1;fillColor=#fff2cc;strokeColor=#d6b656;gradientColor=#ffd966;" parent="O5QLyvHGTgRD95WuOlev-2" vertex="1">
          <mxGeometry x="430" y="120" width="50" height="35" as="geometry" />
        </mxCell>
        <mxCell id="O5QLyvHGTgRD95WuOlev-20" value="265" style="rounded=0;whiteSpace=wrap;html=1;fillColor=#fff2cc;strokeColor=#d6b656;gradientColor=#ffd966;" parent="O5QLyvHGTgRD95WuOlev-2" vertex="1">
          <mxGeometry x="490" y="120" width="50" height="35" as="geometry" />
        </mxCell>
        <mxCell id="O5QLyvHGTgRD95WuOlev-21" value="005" style="whiteSpace=wrap;html=1;aspect=fixed;fillColor=#dae8fc;strokeColor=#6c8ebf;" parent="O5QLyvHGTgRD95WuOlev-2" vertex="1">
          <mxGeometry x="280" y="185" width="30" height="30" as="geometry" />
        </mxCell>
        <mxCell id="O5QLyvHGTgRD95WuOlev-22" value="Provisioning Request&amp;nbsp;" style="rounded=0;whiteSpace=wrap;html=1;fillColor=#fff2cc;strokeColor=#d6b656;gradientColor=#ffd966;" parent="O5QLyvHGTgRD95WuOlev-2" vertex="1">
          <mxGeometry x="320" y="180" width="100" height="35" as="geometry" />
        </mxCell>
        <mxCell id="O5QLyvHGTgRD95WuOlev-23" value="2" style="rounded=0;whiteSpace=wrap;html=1;fillColor=#fff2cc;strokeColor=#d6b656;gradientColor=#ffd966;" parent="O5QLyvHGTgRD95WuOlev-2" vertex="1">
          <mxGeometry x="430" y="180" width="50" height="35" as="geometry" />
        </mxCell>
        <mxCell id="O5QLyvHGTgRD95WuOlev-24" value="32" style="rounded=0;whiteSpace=wrap;html=1;fillColor=#fff2cc;strokeColor=#d6b656;gradientColor=#ffd966;" parent="O5QLyvHGTgRD95WuOlev-2" vertex="1">
          <mxGeometry x="490" y="180" width="50" height="35" as="geometry" />
        </mxCell>
        <mxCell id="O5QLyvHGTgRD95WuOlev-25" value="006" style="whiteSpace=wrap;html=1;aspect=fixed;fillColor=#dae8fc;strokeColor=#6c8ebf;" parent="O5QLyvHGTgRD95WuOlev-2" vertex="1">
          <mxGeometry x="280" y="247.5" width="30" height="30" as="geometry" />
        </mxCell>
        <mxCell id="O5QLyvHGTgRD95WuOlev-26" value="Coding Request&amp;nbsp;" style="rounded=0;whiteSpace=wrap;html=1;fillColor=#fff2cc;strokeColor=#d6b656;gradientColor=#ffd966;" parent="O5QLyvHGTgRD95WuOlev-2" vertex="1">
          <mxGeometry x="320" y="242.5" width="100" height="35" as="geometry" />
        </mxCell>
        <mxCell id="O5QLyvHGTgRD95WuOlev-27" value="10" style="rounded=0;whiteSpace=wrap;html=1;fillColor=#fff2cc;strokeColor=#d6b656;gradientColor=#ffd966;" parent="O5QLyvHGTgRD95WuOlev-2" vertex="1">
          <mxGeometry x="430" y="242.5" width="50" height="35" as="geometry" />
        </mxCell>
        <mxCell id="O5QLyvHGTgRD95WuOlev-28" value="40" style="rounded=0;whiteSpace=wrap;html=1;fillColor=#fff2cc;strokeColor=#d6b656;gradientColor=#ffd966;" parent="O5QLyvHGTgRD95WuOlev-2" vertex="1">
          <mxGeometry x="490" y="242.5" width="50" height="35" as="geometry" />
        </mxCell>
        <mxCell id="O5QLyvHGTgRD95WuOlev-29" style="edgeStyle=orthogonalEdgeStyle;orthogonalLoop=1;jettySize=auto;html=1;exitX=1;exitY=0.5;exitDx=0;exitDy=0;entryX=0;entryY=0.75;entryDx=0;entryDy=0;startArrow=none;startFill=0;endArrow=classic;endFill=1;strokeColor=#000000;rounded=1;" parent="O5QLyvHGTgRD95WuOlev-2" source="O5QLyvHGTgRD95WuOlev-30" target="O5QLyvHGTgRD95WuOlev-6" edge="1">
          <mxGeometry relative="1" as="geometry">
            <Array as="points">
              <mxPoint x="180" y="195" />
              <mxPoint x="180" y="93" />
            </Array>
          </mxGeometry>
        </mxCell>
        <mxCell id="O5QLyvHGTgRD95WuOlev-30" value="LPA Request&amp;nbsp;" style="rounded=0;whiteSpace=wrap;html=1;fillColor=#0050ef;strokeColor=#001DBC;fontColor=#ffffff;" parent="O5QLyvHGTgRD95WuOlev-2" vertex="1">
          <mxGeometry y="180" width="120" height="30" as="geometry" />
        </mxCell>
        <mxCell id="O5QLyvHGTgRD95WuOlev-31" style="edgeStyle=orthogonalEdgeStyle;rounded=1;orthogonalLoop=1;jettySize=auto;html=1;exitX=1;exitY=0.5;exitDx=0;exitDy=0;entryX=0;entryY=0.5;entryDx=0;entryDy=0;startArrow=none;startFill=0;endArrow=classic;endFill=1;strokeColor=#000000;" parent="O5QLyvHGTgRD95WuOlev-2" source="O5QLyvHGTgRD95WuOlev-32" target="O5QLyvHGTgRD95WuOlev-17" edge="1">
          <mxGeometry relative="1" as="geometry">
            <Array as="points">
              <mxPoint x="230" y="250" />
              <mxPoint x="230" y="140" />
            </Array>
          </mxGeometry>
        </mxCell>
        <mxCell id="O5QLyvHGTgRD95WuOlev-32" value="Diagnostic Request&amp;nbsp;" style="rounded=0;whiteSpace=wrap;html=1;fillColor=#0050ef;strokeColor=#001DBC;fontColor=#ffffff;" parent="O5QLyvHGTgRD95WuOlev-2" vertex="1">
          <mxGeometry y="235" width="120" height="30" as="geometry" />
        </mxCell>
        <mxCell id="O5QLyvHGTgRD95WuOlev-33" style="edgeStyle=orthogonalEdgeStyle;rounded=1;orthogonalLoop=1;jettySize=auto;html=1;exitX=1;exitY=0.5;exitDx=0;exitDy=0;startArrow=none;startFill=0;endArrow=classic;endFill=1;strokeColor=#000000;entryX=0;entryY=0.5;entryDx=0;entryDy=0;" parent="O5QLyvHGTgRD95WuOlev-2" source="O5QLyvHGTgRD95WuOlev-16" target="O5QLyvHGTgRD95WuOlev-25" edge="1">
          <mxGeometry relative="1" as="geometry">
            <Array as="points">
              <mxPoint x="190" y="140" />
              <mxPoint x="190" y="263" />
            </Array>
          </mxGeometry>
        </mxCell>
        <mxCell id="O5QLyvHGTgRD95WuOlev-34" value="" style="edgeStyle=elbowEdgeStyle;elbow=horizontal;endArrow=classic;html=1;strokeColor=#000000;exitX=1;exitY=0.25;exitDx=0;exitDy=0;entryX=0;entryY=0.5;entryDx=0;entryDy=0;" parent="O5QLyvHGTgRD95WuOlev-2" source="O5QLyvHGTgRD95WuOlev-4" target="O5QLyvHGTgRD95WuOlev-21" edge="1">
          <mxGeometry width="50" height="50" relative="1" as="geometry">
            <mxPoint x="-410" y="240" as="sourcePoint" />
            <mxPoint x="-360" y="190" as="targetPoint" />
          </mxGeometry>
        </mxCell>
        <mxCell id="nrjHTGb8qRAotWvzNHdz-3" style="edgeStyle=orthogonalEdgeStyle;rounded=1;orthogonalLoop=1;jettySize=auto;html=1;entryX=0.5;entryY=1;entryDx=0;entryDy=0;dashed=1;exitX=0;exitY=0.5;exitDx=0;exitDy=0;" parent="KGyN9Fx0LRngeajroZ2k-1" source="XDF824aTHe1SPrtn6kcK-0" edge="1">
          <mxGeometry x="-580" y="490" as="geometry">
            <mxPoint x="430" y="720" as="sourcePoint" />
            <mxPoint x="-100" y="710" as="targetPoint" />
            <Array as="points">
              <mxPoint x="435" y="720" />
              <mxPoint x="-100" y="720" />
            </Array>
          </mxGeometry>
        </mxCell>
        <mxCell id="4s-xJRbpaYNi8GZAwRym-1" value="&lt;font color=&quot;#0000cc&quot;&gt;Signal&lt;/font&gt;" style="text;html=1;strokeColor=none;fillColor=none;align=center;verticalAlign=middle;whiteSpace=wrap;rounded=0;" parent="KGyN9Fx0LRngeajroZ2k-1" vertex="1">
          <mxGeometry x="-40" y="540" width="110" height="20" as="geometry" />
        </mxCell>
        <mxCell id="4s-xJRbpaYNi8GZAwRym-3" value="1" style="rounded=0;whiteSpace=wrap;html=1;fillColor=#f8cecc;strokeColor=#b85450;gradientColor=#ea6b66;" parent="KGyN9Fx0LRngeajroZ2k-1" vertex="1">
          <mxGeometry x="-10" y="625.63" width="50" height="26.25" as="geometry" />
        </mxCell>
        <mxCell id="4s-xJRbpaYNi8GZAwRym-4" value="0" style="rounded=0;whiteSpace=wrap;html=1;fillColor=#d5e8d4;strokeColor=#82b366;gradientColor=#97d077;" parent="KGyN9Fx0LRngeajroZ2k-1" vertex="1">
          <mxGeometry x="-10" y="680" width="50" height="30" as="geometry" />
        </mxCell>
        <mxCell id="4s-xJRbpaYNi8GZAwRym-5" value="0" style="rounded=0;whiteSpace=wrap;html=1;fillColor=#d5e8d4;strokeColor=#82b366;gradientColor=#97d077;" parent="KGyN9Fx0LRngeajroZ2k-1" vertex="1">
          <mxGeometry x="-10" y="746.25" width="50" height="27.5" as="geometry" />
        </mxCell>
        <mxCell id="4s-xJRbpaYNi8GZAwRym-6" value="0" style="rounded=0;whiteSpace=wrap;html=1;fillColor=#d5e8d4;strokeColor=#82b366;gradientColor=#97d077;" parent="KGyN9Fx0LRngeajroZ2k-1" vertex="1">
          <mxGeometry x="-10" y="570" width="50" height="26.5" as="geometry" />
        </mxCell>
        <mxCell id="4s-xJRbpaYNi8GZAwRym-7" value="End Heatbeat Timestamp &amp;lt; Limit timestamp" style="text;html=1;strokeColor=none;fillColor=none;align=center;verticalAlign=middle;whiteSpace=wrap;rounded=0;" parent="KGyN9Fx0LRngeajroZ2k-1" vertex="1">
          <mxGeometry x="40" y="578.25" width="250" height="10" as="geometry" />
        </mxCell>
        <mxCell id="4s-xJRbpaYNi8GZAwRym-8" value="End Heatbeat Timestamp &amp;gt; Limit timestamp" style="text;html=1;strokeColor=none;fillColor=none;align=center;verticalAlign=middle;whiteSpace=wrap;rounded=0;" parent="KGyN9Fx0LRngeajroZ2k-1" vertex="1">
          <mxGeometry x="40" y="633.75" width="250" height="10" as="geometry" />
        </mxCell>
        <mxCell id="4s-xJRbpaYNi8GZAwRym-9" value="End Heatbeat Timestamp &amp;lt; Limit timestamp" style="text;html=1;strokeColor=none;fillColor=none;align=center;verticalAlign=middle;whiteSpace=wrap;rounded=0;" parent="KGyN9Fx0LRngeajroZ2k-1" vertex="1">
          <mxGeometry x="40" y="690" width="250" height="10" as="geometry" />
        </mxCell>
        <mxCell id="4s-xJRbpaYNi8GZAwRym-10" value="End Heatbeat Timestamp &amp;lt; Limit timestamp" style="text;html=1;strokeColor=none;fillColor=none;align=center;verticalAlign=middle;whiteSpace=wrap;rounded=0;" parent="KGyN9Fx0LRngeajroZ2k-1" vertex="1">
          <mxGeometry x="40" y="760" width="250" height="10" as="geometry" />
        </mxCell>
        <mxCell id="4s-xJRbpaYNi8GZAwRym-12" style="edgeStyle=orthogonalEdgeStyle;rounded=1;orthogonalLoop=1;jettySize=auto;html=1;entryX=0.5;entryY=1;entryDx=0;entryDy=0;dashed=1;startArrow=none;startFill=0;exitX=0;exitY=0.5;exitDx=0;exitDy=0;" parent="KGyN9Fx0LRngeajroZ2k-1" source="XDF824aTHe1SPrtn6kcK-1" edge="1">
          <mxGeometry relative="1" as="geometry">
            <mxPoint x="530" y="730" as="sourcePoint" />
            <mxPoint x="-40" y="717.93" as="targetPoint" />
            <Array as="points">
              <mxPoint x="535" y="730" />
              <mxPoint x="-40" y="730" />
            </Array>
          </mxGeometry>
        </mxCell>
        <mxCell id="XDF824aTHe1SPrtn6kcK-0" value="" style="ellipse;whiteSpace=wrap;html=1;aspect=fixed;gradientColor=#ffd966;fillColor=#fff2cc;strokeColor=#d6b656;" parent="KGyN9Fx0LRngeajroZ2k-1" vertex="1">
          <mxGeometry x="435" y="703.25" width="20" height="20" as="geometry" />
        </mxCell>
        <mxCell id="4s-xJRbpaYNi8GZAwRym-14" value="" style="endArrow=classic;html=1;rounded=1;" parent="KGyN9Fx0LRngeajroZ2k-1" edge="1">
          <mxGeometry width="50" height="50" relative="1" as="geometry">
            <mxPoint x="-55" y="1007.5" as="sourcePoint" />
            <mxPoint x="15" y="777.5" as="targetPoint" />
            <Array as="points">
              <mxPoint x="15" y="1007.5" />
              <mxPoint x="15" y="987.5" />
            </Array>
          </mxGeometry>
        </mxCell>
      </root>
    </mxGraphModel>
  </diagram>
  <diagram name="requestmonitorp_timer" id="0MtzoKzjOkNzAbmep3P5">
    <mxGraphModel dx="2912" dy="1182" grid="1" gridSize="10" guides="1" tooltips="1" connect="1" arrows="1" fold="1" page="1" pageScale="1" pageWidth="850" pageHeight="1100" math="0" shadow="0">
      <root>
        <mxCell id="UtTbLOX9hENFKroew6li-0" />
        <mxCell id="UtTbLOX9hENFKroew6li-1" parent="UtTbLOX9hENFKroew6li-0" />
        <mxCell id="UtTbLOX9hENFKroew6li-2" value="" style="rounded=0;whiteSpace=wrap;html=1;" parent="UtTbLOX9hENFKroew6li-1" vertex="1">
          <mxGeometry x="365" y="373.25" width="630" height="420" as="geometry" />
        </mxCell>
        <mxCell id="UtTbLOX9hENFKroew6li-3" value="" style="endArrow=classic;html=1;" parent="UtTbLOX9hENFKroew6li-1" edge="1">
          <mxGeometry width="50" height="50" relative="1" as="geometry">
            <mxPoint x="435" y="653.25" as="sourcePoint" />
            <mxPoint x="985" y="653.25" as="targetPoint" />
          </mxGeometry>
        </mxCell>
        <mxCell id="UtTbLOX9hENFKroew6li-6" value="" style="endArrow=classic;startArrow=classic;html=1;" parent="UtTbLOX9hENFKroew6li-1" edge="1">
          <mxGeometry width="50" height="50" relative="1" as="geometry">
            <mxPoint x="445" y="663.25" as="sourcePoint" />
            <mxPoint x="545" y="663.25" as="targetPoint" />
          </mxGeometry>
        </mxCell>
        <mxCell id="UtTbLOX9hENFKroew6li-7" value="" style="endArrow=classic;startArrow=classic;html=1;" parent="UtTbLOX9hENFKroew6li-1" edge="1">
          <mxGeometry width="50" height="50" relative="1" as="geometry">
            <mxPoint x="595" y="663.25" as="sourcePoint" />
            <mxPoint x="695" y="663.25" as="targetPoint" />
          </mxGeometry>
        </mxCell>
        <mxCell id="UtTbLOX9hENFKroew6li-9" value="" style="endArrow=classic;startArrow=classic;html=1;" parent="UtTbLOX9hENFKroew6li-1" edge="1">
          <mxGeometry width="50" height="50" relative="1" as="geometry">
            <mxPoint x="765" y="663.25" as="sourcePoint" />
            <mxPoint x="865" y="663.25" as="targetPoint" />
          </mxGeometry>
        </mxCell>
        <mxCell id="UtTbLOX9hENFKroew6li-13" value="Limit time&lt;br&gt;(timeout)" style="text;html=1;strokeColor=none;fillColor=none;align=center;verticalAlign=middle;whiteSpace=wrap;rounded=0;" parent="UtTbLOX9hENFKroew6li-1" vertex="1">
          <mxGeometry x="435" y="670" width="125" height="20" as="geometry" />
        </mxCell>
        <mxCell id="UtTbLOX9hENFKroew6li-14" value="Limit time (timeout)" style="text;html=1;strokeColor=none;fillColor=none;align=center;verticalAlign=middle;whiteSpace=wrap;rounded=0;" parent="UtTbLOX9hENFKroew6li-1" vertex="1">
          <mxGeometry x="610" y="673.25" width="55" height="20" as="geometry" />
        </mxCell>
        <mxCell id="UtTbLOX9hENFKroew6li-16" value="" style="endArrow=classic;html=1;fillColor=#d80073;strokeColor=#A50040;" parent="UtTbLOX9hENFKroew6li-1" edge="1">
          <mxGeometry width="50" height="50" relative="1" as="geometry">
            <mxPoint x="514" y="653.25" as="sourcePoint" />
            <mxPoint x="514" y="593.25" as="targetPoint" />
          </mxGeometry>
        </mxCell>
        <mxCell id="UtTbLOX9hENFKroew6li-17" value="Heartbeat" style="text;html=1;strokeColor=none;fillColor=none;align=center;verticalAlign=middle;whiteSpace=wrap;rounded=0;" parent="UtTbLOX9hENFKroew6li-1" vertex="1">
          <mxGeometry x="505" y="573.25" width="40" height="20" as="geometry" />
        </mxCell>
        <mxCell id="UtTbLOX9hENFKroew6li-18" value="" style="endArrow=classic;html=1;fillColor=#d80073;strokeColor=#A50040;" parent="UtTbLOX9hENFKroew6li-1" edge="1">
          <mxGeometry width="50" height="50" relative="1" as="geometry">
            <mxPoint x="674" y="653.25" as="sourcePoint" />
            <mxPoint x="674" y="593.25" as="targetPoint" />
          </mxGeometry>
        </mxCell>
        <mxCell id="UtTbLOX9hENFKroew6li-19" value="Heartbeat" style="text;html=1;strokeColor=none;fillColor=none;align=center;verticalAlign=middle;whiteSpace=wrap;rounded=0;" parent="UtTbLOX9hENFKroew6li-1" vertex="1">
          <mxGeometry x="665" y="573.25" width="40" height="20" as="geometry" />
        </mxCell>
        <mxCell id="UtTbLOX9hENFKroew6li-20" value="" style="endArrow=classic;html=1;fillColor=#d80073;strokeColor=#A50040;" parent="UtTbLOX9hENFKroew6li-1" edge="1">
          <mxGeometry width="50" height="50" relative="1" as="geometry">
            <mxPoint x="894" y="653.25" as="sourcePoint" />
            <mxPoint x="894" y="593.25" as="targetPoint" />
          </mxGeometry>
        </mxCell>
        <mxCell id="UtTbLOX9hENFKroew6li-21" value="Heartbeat" style="text;html=1;strokeColor=none;fillColor=none;align=center;verticalAlign=middle;whiteSpace=wrap;rounded=0;" parent="UtTbLOX9hENFKroew6li-1" vertex="1">
          <mxGeometry x="885" y="573.25" width="40" height="20" as="geometry" />
        </mxCell>
        <mxCell id="UtTbLOX9hENFKroew6li-22" value="" style="endArrow=classic;startArrow=classic;html=1;dashed=1;" parent="UtTbLOX9hENFKroew6li-1" edge="1">
          <mxGeometry width="50" height="50" relative="1" as="geometry">
            <mxPoint x="440" y="553.25" as="sourcePoint" />
            <mxPoint x="520" y="553.25" as="targetPoint" />
          </mxGeometry>
        </mxCell>
        <mxCell id="UtTbLOX9hENFKroew6li-23" value="Processing time of provisioning request" style="text;html=1;strokeColor=none;fillColor=none;align=center;verticalAlign=middle;whiteSpace=wrap;rounded=0;" parent="UtTbLOX9hENFKroew6li-1" vertex="1">
          <mxGeometry x="425" y="523.25" width="110" height="20" as="geometry" />
        </mxCell>
        <mxCell id="UtTbLOX9hENFKroew6li-24" value="" style="endArrow=classic;startArrow=classic;html=1;dashed=1;" parent="UtTbLOX9hENFKroew6li-1" edge="1">
          <mxGeometry width="50" height="50" relative="1" as="geometry">
            <mxPoint x="592.5" y="548.25" as="sourcePoint" />
            <mxPoint x="677.5" y="547.75" as="targetPoint" />
          </mxGeometry>
        </mxCell>
        <mxCell id="UtTbLOX9hENFKroew6li-25" value="Processing time of coding request" style="text;html=1;strokeColor=none;fillColor=none;align=center;verticalAlign=middle;whiteSpace=wrap;rounded=0;" parent="UtTbLOX9hENFKroew6li-1" vertex="1">
          <mxGeometry x="580" y="517.75" width="110" height="20" as="geometry" />
        </mxCell>
        <mxCell id="UtTbLOX9hENFKroew6li-26" value="" style="endArrow=classic;startArrow=classic;html=1;dashed=1;" parent="UtTbLOX9hENFKroew6li-1" edge="1">
          <mxGeometry width="50" height="50" relative="1" as="geometry">
            <mxPoint x="765" y="553.25" as="sourcePoint" />
            <mxPoint x="895" y="553.25" as="targetPoint" />
          </mxGeometry>
        </mxCell>
        <mxCell id="UtTbLOX9hENFKroew6li-27" value="Processing time of diagnostic request" style="text;html=1;strokeColor=none;fillColor=none;align=center;verticalAlign=middle;whiteSpace=wrap;rounded=0;" parent="UtTbLOX9hENFKroew6li-1" vertex="1">
          <mxGeometry x="745" y="523.25" width="110" height="20" as="geometry" />
        </mxCell>
        <mxCell id="UtTbLOX9hENFKroew6li-28" style="edgeStyle=orthogonalEdgeStyle;rounded=1;orthogonalLoop=1;jettySize=auto;html=1;exitX=0.55;exitY=0.95;exitDx=0;exitDy=0;exitPerimeter=0;dashed=1;" parent="UtTbLOX9hENFKroew6li-1" source="UtTbLOX9hENFKroew6li-30" edge="1">
          <mxGeometry relative="1" as="geometry">
            <mxPoint x="491" y="513.25" as="targetPoint" />
          </mxGeometry>
        </mxCell>
        <mxCell id="UtTbLOX9hENFKroew6li-29" style="edgeStyle=orthogonalEdgeStyle;rounded=1;orthogonalLoop=1;jettySize=auto;html=1;exitX=0.8;exitY=0.8;exitDx=0;exitDy=0;exitPerimeter=0;dashed=1;" parent="UtTbLOX9hENFKroew6li-1" source="UtTbLOX9hENFKroew6li-30" edge="1">
          <mxGeometry relative="1" as="geometry">
            <mxPoint x="625" y="513.25" as="targetPoint" />
          </mxGeometry>
        </mxCell>
        <mxCell id="UtTbLOX9hENFKroew6li-30" value="" style="ellipse;shape=cloud;whiteSpace=wrap;html=1;gradientColor=#97d077;fillColor=#d5e8d4;strokeColor=#82b366;" parent="UtTbLOX9hENFKroew6li-1" vertex="1">
          <mxGeometry x="425" y="383.25" width="120" height="80" as="geometry" />
        </mxCell>
        <mxCell id="UtTbLOX9hENFKroew6li-31" value="Timely request" style="text;html=1;strokeColor=none;fillColor=none;align=center;verticalAlign=middle;whiteSpace=wrap;rounded=0;" parent="UtTbLOX9hENFKroew6li-1" vertex="1">
          <mxGeometry x="465" y="413.25" width="40" height="20" as="geometry" />
        </mxCell>
        <mxCell id="UtTbLOX9hENFKroew6li-32" style="edgeStyle=orthogonalEdgeStyle;rounded=1;orthogonalLoop=1;jettySize=auto;html=1;exitX=0.55;exitY=0.95;exitDx=0;exitDy=0;exitPerimeter=0;dashed=1;" parent="UtTbLOX9hENFKroew6li-1" source="UtTbLOX9hENFKroew6li-33" edge="1">
          <mxGeometry relative="1" as="geometry">
            <mxPoint x="785" y="513.25" as="targetPoint" />
          </mxGeometry>
        </mxCell>
        <mxCell id="UtTbLOX9hENFKroew6li-33" value="" style="ellipse;shape=cloud;whiteSpace=wrap;html=1;gradientColor=#ea6b66;fillColor=#f8cecc;strokeColor=#b85450;" parent="UtTbLOX9hENFKroew6li-1" vertex="1">
          <mxGeometry x="755" y="373.25" width="120" height="80" as="geometry" />
        </mxCell>
        <mxCell id="UtTbLOX9hENFKroew6li-34" value="Delayed request" style="text;html=1;strokeColor=none;fillColor=none;align=center;verticalAlign=middle;whiteSpace=wrap;rounded=0;" parent="UtTbLOX9hENFKroew6li-1" vertex="1">
          <mxGeometry x="795" y="413.25" width="40" height="20" as="geometry" />
        </mxCell>
        <mxCell id="UtTbLOX9hENFKroew6li-35" style="edgeStyle=orthogonalEdgeStyle;rounded=1;orthogonalLoop=1;jettySize=auto;html=1;dashed=1;" parent="UtTbLOX9hENFKroew6li-1" source="UtTbLOX9hENFKroew6li-118" edge="1">
          <mxGeometry relative="1" as="geometry">
            <mxPoint x="445" y="663.25" as="targetPoint" />
            <mxPoint x="445" y="720" as="sourcePoint" />
            <Array as="points" />
          </mxGeometry>
        </mxCell>
        <mxCell id="UtTbLOX9hENFKroew6li-36" style="edgeStyle=orthogonalEdgeStyle;rounded=1;orthogonalLoop=1;jettySize=auto;html=1;exitX=0.5;exitY=0;exitDx=0;exitDy=0;dashed=1;" parent="UtTbLOX9hENFKroew6li-1" source="UtTbLOX9hENFKroew6li-37" edge="1">
          <mxGeometry relative="1" as="geometry">
            <mxPoint x="545" y="663.25" as="targetPoint" />
          </mxGeometry>
        </mxCell>
        <mxCell id="UtTbLOX9hENFKroew6li-37" value="" style="ellipse;whiteSpace=wrap;html=1;aspect=fixed;gradientColor=#d5739d;fillColor=#e6d0de;strokeColor=#996185;" parent="UtTbLOX9hENFKroew6li-1" vertex="1">
          <mxGeometry x="535" y="723.25" width="20" height="20" as="geometry" />
        </mxCell>
        <mxCell id="UtTbLOX9hENFKroew6li-38" value="Limit timestamp" style="text;html=1;strokeColor=none;fillColor=none;align=center;verticalAlign=middle;whiteSpace=wrap;rounded=0;" parent="UtTbLOX9hENFKroew6li-1" vertex="1">
          <mxGeometry x="505" y="743.25" width="100" height="20" as="geometry" />
        </mxCell>
        <mxCell id="UtTbLOX9hENFKroew6li-39" value="" style="group;gradientColor=#b3b3b3;fillColor=#f5f5f5;strokeColor=#666666;container=0;" parent="UtTbLOX9hENFKroew6li-1" vertex="1" connectable="0">
          <mxGeometry x="-580" y="490" width="870" height="310" as="geometry" />
        </mxCell>
        <mxCell id="UtTbLOX9hENFKroew6li-40" value="Start timestamp" style="text;html=1;strokeColor=none;fillColor=none;align=center;verticalAlign=middle;whiteSpace=wrap;rounded=0;" parent="UtTbLOX9hENFKroew6li-1" vertex="1">
          <mxGeometry x="400" y="733.25" width="90" height="20" as="geometry" />
        </mxCell>
        <mxCell id="UtTbLOX9hENFKroew6li-71" value="" style="rounded=0;whiteSpace=wrap;html=1;gradientColor=#ffffff;fillColor=none;" parent="UtTbLOX9hENFKroew6li-1" vertex="1">
          <mxGeometry x="-600" y="360" width="1600" height="450" as="geometry" />
        </mxCell>
        <mxCell id="UtTbLOX9hENFKroew6li-72" value="&lt;b&gt;Delay tracking algorithm&lt;/b&gt;" style="text;html=1;strokeColor=none;fillColor=none;align=center;verticalAlign=middle;whiteSpace=wrap;rounded=0;" parent="UtTbLOX9hENFKroew6li-1" vertex="1">
          <mxGeometry x="-600" y="360" width="160" height="20" as="geometry" />
        </mxCell>
        <mxCell id="UtTbLOX9hENFKroew6li-74" value="" style="group" parent="UtTbLOX9hENFKroew6li-1" vertex="1" connectable="0">
          <mxGeometry x="-560" y="500" width="580" height="277.5" as="geometry" />
        </mxCell>
        <mxCell id="UtTbLOX9hENFKroew6li-75" value="&lt;font size=&quot;1&quot;&gt;&lt;b style=&quot;font-size: 20px&quot;&gt;Keys&lt;/b&gt;&lt;/font&gt;" style="text;html=1;strokeColor=none;fillColor=none;align=center;verticalAlign=middle;whiteSpace=wrap;rounded=0;" parent="UtTbLOX9hENFKroew6li-74" vertex="1">
          <mxGeometry x="30" width="40" height="20" as="geometry" />
        </mxCell>
        <mxCell id="UtTbLOX9hENFKroew6li-76" value="Provisioning Request&amp;nbsp;" style="rounded=0;whiteSpace=wrap;html=1;fillColor=#0050ef;strokeColor=#001DBC;fontColor=#ffffff;" parent="UtTbLOX9hENFKroew6li-74" vertex="1">
          <mxGeometry y="70" width="120" height="30" as="geometry" />
        </mxCell>
        <mxCell id="UtTbLOX9hENFKroew6li-77" value="&lt;b&gt;&lt;font style=&quot;font-size: 20px&quot;&gt;Entries&lt;/font&gt;&lt;/b&gt;" style="text;html=1;strokeColor=none;fillColor=none;align=center;verticalAlign=middle;whiteSpace=wrap;rounded=0;" parent="UtTbLOX9hENFKroew6li-74" vertex="1">
          <mxGeometry x="435" width="40" height="20" as="geometry" />
        </mxCell>
        <mxCell id="UtTbLOX9hENFKroew6li-78" value="001" style="whiteSpace=wrap;html=1;aspect=fixed;fillColor=#dae8fc;strokeColor=#6c8ebf;" parent="UtTbLOX9hENFKroew6li-74" vertex="1">
          <mxGeometry x="280" y="70" width="30" height="30" as="geometry" />
        </mxCell>
        <mxCell id="UtTbLOX9hENFKroew6li-79" style="edgeStyle=orthogonalEdgeStyle;rounded=0;orthogonalLoop=1;jettySize=auto;html=1;exitX=1;exitY=0.75;exitDx=0;exitDy=0;entryX=1;entryY=1;entryDx=0;entryDy=0;startArrow=none;startFill=0;endArrow=classic;endFill=1;strokeColor=#CC0066;" parent="UtTbLOX9hENFKroew6li-74" source="UtTbLOX9hENFKroew6li-78" target="UtTbLOX9hENFKroew6li-78" edge="1">
          <mxGeometry relative="1" as="geometry" />
        </mxCell>
        <mxCell id="UtTbLOX9hENFKroew6li-80" value="&lt;font size=&quot;1&quot;&gt;&lt;b style=&quot;font-size: 20px&quot;&gt;Hash function&lt;/b&gt;&lt;/font&gt;" style="text;html=1;strokeColor=none;fillColor=none;align=center;verticalAlign=middle;whiteSpace=wrap;rounded=0;" parent="UtTbLOX9hENFKroew6li-74" vertex="1">
          <mxGeometry x="160" width="160" height="20" as="geometry" />
        </mxCell>
        <mxCell id="UtTbLOX9hENFKroew6li-81" value="LPA Request&amp;nbsp;" style="rounded=0;whiteSpace=wrap;html=1;fillColor=#fff2cc;strokeColor=#d6b656;gradientColor=#ffd966;" parent="UtTbLOX9hENFKroew6li-74" vertex="1">
          <mxGeometry x="320" y="65" width="100" height="35" as="geometry" />
        </mxCell>
        <mxCell id="UtTbLOX9hENFKroew6li-82" value="123" style="rounded=0;whiteSpace=wrap;html=1;fillColor=#fff2cc;strokeColor=#d6b656;gradientColor=#ffd966;" parent="UtTbLOX9hENFKroew6li-74" vertex="1">
          <mxGeometry x="430" y="65" width="50" height="35" as="geometry" />
        </mxCell>
        <mxCell id="UtTbLOX9hENFKroew6li-83" value="153" style="rounded=0;whiteSpace=wrap;html=1;fillColor=#fff2cc;strokeColor=#d6b656;gradientColor=#ffd966;" parent="UtTbLOX9hENFKroew6li-74" vertex="1">
          <mxGeometry x="490" y="65" width="50" height="35" as="geometry" />
        </mxCell>
        <mxCell id="UtTbLOX9hENFKroew6li-84" value="&lt;font color=&quot;#0000cc&quot;&gt;API name&lt;/font&gt;" style="text;html=1;strokeColor=none;fillColor=none;align=center;verticalAlign=middle;whiteSpace=wrap;rounded=0;" parent="UtTbLOX9hENFKroew6li-74" vertex="1">
          <mxGeometry x="315" y="45" width="110" height="20" as="geometry" />
        </mxCell>
        <mxCell id="UtTbLOX9hENFKroew6li-85" value="&lt;font color=&quot;#0000cc&quot;&gt;Start &lt;br&gt;timestamp&lt;/font&gt;" style="text;html=1;strokeColor=none;fillColor=none;align=center;verticalAlign=middle;whiteSpace=wrap;rounded=0;" parent="UtTbLOX9hENFKroew6li-74" vertex="1">
          <mxGeometry x="400" y="40" width="110" height="20" as="geometry" />
        </mxCell>
        <mxCell id="UtTbLOX9hENFKroew6li-86" value="&lt;font color=&quot;#0000cc&quot;&gt;Limit&lt;br&gt;timestamp&lt;/font&gt;" style="text;html=1;strokeColor=none;fillColor=none;align=center;verticalAlign=middle;whiteSpace=wrap;rounded=0;" parent="UtTbLOX9hENFKroew6li-74" vertex="1">
          <mxGeometry x="460" y="40" width="110" height="20" as="geometry" />
        </mxCell>
        <mxCell id="UtTbLOX9hENFKroew6li-87" value="" style="rounded=0;whiteSpace=wrap;html=1;gradientColor=#ffffff;fillColor=none;" parent="UtTbLOX9hENFKroew6li-74" vertex="1">
          <mxGeometry x="160" y="30" width="100" height="240" as="geometry" />
        </mxCell>
        <mxCell id="UtTbLOX9hENFKroew6li-88" value="Coding Request&amp;nbsp;" style="rounded=0;whiteSpace=wrap;html=1;fillColor=#0050ef;strokeColor=#001DBC;fontColor=#ffffff;" parent="UtTbLOX9hENFKroew6li-74" vertex="1">
          <mxGeometry y="125" width="120" height="30" as="geometry" />
        </mxCell>
        <mxCell id="UtTbLOX9hENFKroew6li-89" value="002" style="whiteSpace=wrap;html=1;aspect=fixed;fillColor=#dae8fc;strokeColor=#6c8ebf;" parent="UtTbLOX9hENFKroew6li-74" vertex="1">
          <mxGeometry x="280" y="125" width="30" height="30" as="geometry" />
        </mxCell>
        <mxCell id="UtTbLOX9hENFKroew6li-90" value="Diagnostic Request&amp;nbsp;" style="rounded=0;whiteSpace=wrap;html=1;fillColor=#fff2cc;strokeColor=#d6b656;gradientColor=#ffd966;" parent="UtTbLOX9hENFKroew6li-74" vertex="1">
          <mxGeometry x="320" y="120" width="100" height="35" as="geometry" />
        </mxCell>
        <mxCell id="UtTbLOX9hENFKroew6li-91" value="235" style="rounded=0;whiteSpace=wrap;html=1;fillColor=#fff2cc;strokeColor=#d6b656;gradientColor=#ffd966;" parent="UtTbLOX9hENFKroew6li-74" vertex="1">
          <mxGeometry x="430" y="120" width="50" height="35" as="geometry" />
        </mxCell>
        <mxCell id="UtTbLOX9hENFKroew6li-92" value="265" style="rounded=0;whiteSpace=wrap;html=1;fillColor=#fff2cc;strokeColor=#d6b656;gradientColor=#ffd966;" parent="UtTbLOX9hENFKroew6li-74" vertex="1">
          <mxGeometry x="490" y="120" width="50" height="35" as="geometry" />
        </mxCell>
        <mxCell id="UtTbLOX9hENFKroew6li-93" value="005" style="whiteSpace=wrap;html=1;aspect=fixed;fillColor=#dae8fc;strokeColor=#6c8ebf;" parent="UtTbLOX9hENFKroew6li-74" vertex="1">
          <mxGeometry x="280" y="185" width="30" height="30" as="geometry" />
        </mxCell>
        <mxCell id="UtTbLOX9hENFKroew6li-94" value="Provisioning Request&amp;nbsp;" style="rounded=0;whiteSpace=wrap;html=1;fillColor=#fff2cc;strokeColor=#d6b656;gradientColor=#ffd966;" parent="UtTbLOX9hENFKroew6li-74" vertex="1">
          <mxGeometry x="320" y="180" width="100" height="35" as="geometry" />
        </mxCell>
        <mxCell id="UtTbLOX9hENFKroew6li-95" value="2" style="rounded=0;whiteSpace=wrap;html=1;fillColor=#fff2cc;strokeColor=#d6b656;gradientColor=#ffd966;" parent="UtTbLOX9hENFKroew6li-74" vertex="1">
          <mxGeometry x="430" y="180" width="50" height="35" as="geometry" />
        </mxCell>
        <mxCell id="UtTbLOX9hENFKroew6li-96" value="32" style="rounded=0;whiteSpace=wrap;html=1;fillColor=#fff2cc;strokeColor=#d6b656;gradientColor=#ffd966;" parent="UtTbLOX9hENFKroew6li-74" vertex="1">
          <mxGeometry x="490" y="180" width="50" height="35" as="geometry" />
        </mxCell>
        <mxCell id="UtTbLOX9hENFKroew6li-97" value="006" style="whiteSpace=wrap;html=1;aspect=fixed;fillColor=#dae8fc;strokeColor=#6c8ebf;" parent="UtTbLOX9hENFKroew6li-74" vertex="1">
          <mxGeometry x="280" y="247.5" width="30" height="30" as="geometry" />
        </mxCell>
        <mxCell id="UtTbLOX9hENFKroew6li-98" value="Coding Request&amp;nbsp;" style="rounded=0;whiteSpace=wrap;html=1;fillColor=#fff2cc;strokeColor=#d6b656;gradientColor=#ffd966;" parent="UtTbLOX9hENFKroew6li-74" vertex="1">
          <mxGeometry x="320" y="242.5" width="100" height="35" as="geometry" />
        </mxCell>
        <mxCell id="UtTbLOX9hENFKroew6li-99" value="10" style="rounded=0;whiteSpace=wrap;html=1;fillColor=#fff2cc;strokeColor=#d6b656;gradientColor=#ffd966;" parent="UtTbLOX9hENFKroew6li-74" vertex="1">
          <mxGeometry x="430" y="242.5" width="50" height="35" as="geometry" />
        </mxCell>
        <mxCell id="UtTbLOX9hENFKroew6li-100" value="40" style="rounded=0;whiteSpace=wrap;html=1;fillColor=#fff2cc;strokeColor=#d6b656;gradientColor=#ffd966;" parent="UtTbLOX9hENFKroew6li-74" vertex="1">
          <mxGeometry x="490" y="242.5" width="50" height="35" as="geometry" />
        </mxCell>
        <mxCell id="UtTbLOX9hENFKroew6li-101" style="edgeStyle=orthogonalEdgeStyle;orthogonalLoop=1;jettySize=auto;html=1;exitX=1;exitY=0.5;exitDx=0;exitDy=0;entryX=0;entryY=0.75;entryDx=0;entryDy=0;startArrow=none;startFill=0;endArrow=classic;endFill=1;strokeColor=#000000;rounded=1;" parent="UtTbLOX9hENFKroew6li-74" source="UtTbLOX9hENFKroew6li-102" target="UtTbLOX9hENFKroew6li-78" edge="1">
          <mxGeometry relative="1" as="geometry">
            <Array as="points">
              <mxPoint x="180" y="195" />
              <mxPoint x="180" y="93" />
            </Array>
          </mxGeometry>
        </mxCell>
        <mxCell id="UtTbLOX9hENFKroew6li-102" value="LPA Request&amp;nbsp;" style="rounded=0;whiteSpace=wrap;html=1;fillColor=#0050ef;strokeColor=#001DBC;fontColor=#ffffff;" parent="UtTbLOX9hENFKroew6li-74" vertex="1">
          <mxGeometry y="180" width="120" height="30" as="geometry" />
        </mxCell>
        <mxCell id="UtTbLOX9hENFKroew6li-103" style="edgeStyle=orthogonalEdgeStyle;rounded=1;orthogonalLoop=1;jettySize=auto;html=1;exitX=1;exitY=0.5;exitDx=0;exitDy=0;entryX=0;entryY=0.5;entryDx=0;entryDy=0;startArrow=none;startFill=0;endArrow=classic;endFill=1;strokeColor=#000000;" parent="UtTbLOX9hENFKroew6li-74" source="UtTbLOX9hENFKroew6li-104" target="UtTbLOX9hENFKroew6li-89" edge="1">
          <mxGeometry relative="1" as="geometry">
            <Array as="points">
              <mxPoint x="230" y="250" />
              <mxPoint x="230" y="140" />
            </Array>
          </mxGeometry>
        </mxCell>
        <mxCell id="UtTbLOX9hENFKroew6li-104" value="Diagnostic Request&amp;nbsp;" style="rounded=0;whiteSpace=wrap;html=1;fillColor=#0050ef;strokeColor=#001DBC;fontColor=#ffffff;" parent="UtTbLOX9hENFKroew6li-74" vertex="1">
          <mxGeometry y="235" width="120" height="30" as="geometry" />
        </mxCell>
        <mxCell id="UtTbLOX9hENFKroew6li-105" style="edgeStyle=orthogonalEdgeStyle;rounded=1;orthogonalLoop=1;jettySize=auto;html=1;exitX=1;exitY=0.5;exitDx=0;exitDy=0;startArrow=none;startFill=0;endArrow=classic;endFill=1;strokeColor=#000000;entryX=0;entryY=0.5;entryDx=0;entryDy=0;" parent="UtTbLOX9hENFKroew6li-74" source="UtTbLOX9hENFKroew6li-88" target="UtTbLOX9hENFKroew6li-97" edge="1">
          <mxGeometry relative="1" as="geometry">
            <Array as="points">
              <mxPoint x="190" y="140" />
              <mxPoint x="190" y="263" />
            </Array>
          </mxGeometry>
        </mxCell>
        <mxCell id="UtTbLOX9hENFKroew6li-106" value="" style="edgeStyle=elbowEdgeStyle;elbow=horizontal;endArrow=classic;html=1;strokeColor=#000000;exitX=1;exitY=0.25;exitDx=0;exitDy=0;entryX=0;entryY=0.5;entryDx=0;entryDy=0;" parent="UtTbLOX9hENFKroew6li-74" source="UtTbLOX9hENFKroew6li-76" target="UtTbLOX9hENFKroew6li-93" edge="1">
          <mxGeometry width="50" height="50" relative="1" as="geometry">
            <mxPoint x="-410" y="240" as="sourcePoint" />
            <mxPoint x="-360" y="190" as="targetPoint" />
          </mxGeometry>
        </mxCell>
        <mxCell id="UtTbLOX9hENFKroew6li-107" style="edgeStyle=orthogonalEdgeStyle;rounded=1;orthogonalLoop=1;jettySize=auto;html=1;entryX=0.5;entryY=1;entryDx=0;entryDy=0;dashed=1;exitX=0;exitY=0.5;exitDx=0;exitDy=0;" parent="UtTbLOX9hENFKroew6li-1" source="UtTbLOX9hENFKroew6li-118" edge="1">
          <mxGeometry x="-580" y="490" as="geometry">
            <mxPoint x="430" y="720" as="sourcePoint" />
            <mxPoint x="-100" y="710" as="targetPoint" />
            <Array as="points">
              <mxPoint x="435" y="720" />
              <mxPoint x="-100" y="720" />
            </Array>
          </mxGeometry>
        </mxCell>
        <mxCell id="UtTbLOX9hENFKroew6li-108" value="&lt;font color=&quot;#0000cc&quot;&gt;Signal&lt;/font&gt;" style="text;html=1;strokeColor=none;fillColor=none;align=center;verticalAlign=middle;whiteSpace=wrap;rounded=0;" parent="UtTbLOX9hENFKroew6li-1" vertex="1">
          <mxGeometry x="-40" y="540" width="110" height="20" as="geometry" />
        </mxCell>
        <mxCell id="UtTbLOX9hENFKroew6li-109" value="1" style="rounded=0;whiteSpace=wrap;html=1;fillColor=#f8cecc;strokeColor=#b85450;gradientColor=#ea6b66;" parent="UtTbLOX9hENFKroew6li-1" vertex="1">
          <mxGeometry x="-10" y="625.63" width="50" height="26.25" as="geometry" />
        </mxCell>
        <mxCell id="UtTbLOX9hENFKroew6li-110" value="0" style="rounded=0;whiteSpace=wrap;html=1;fillColor=#d5e8d4;strokeColor=#82b366;gradientColor=#97d077;" parent="UtTbLOX9hENFKroew6li-1" vertex="1">
          <mxGeometry x="-10" y="680" width="50" height="30" as="geometry" />
        </mxCell>
        <mxCell id="UtTbLOX9hENFKroew6li-111" value="0" style="rounded=0;whiteSpace=wrap;html=1;fillColor=#d5e8d4;strokeColor=#82b366;gradientColor=#97d077;" parent="UtTbLOX9hENFKroew6li-1" vertex="1">
          <mxGeometry x="-10" y="746.25" width="50" height="27.5" as="geometry" />
        </mxCell>
        <mxCell id="UtTbLOX9hENFKroew6li-112" value="0" style="rounded=0;whiteSpace=wrap;html=1;fillColor=#d5e8d4;strokeColor=#82b366;gradientColor=#97d077;" parent="UtTbLOX9hENFKroew6li-1" vertex="1">
          <mxGeometry x="-10" y="570" width="50" height="26.5" as="geometry" />
        </mxCell>
        <mxCell id="UtTbLOX9hENFKroew6li-113" value="End Heartbeat before timeout" style="text;html=1;strokeColor=none;fillColor=none;align=center;verticalAlign=middle;whiteSpace=wrap;rounded=0;" parent="UtTbLOX9hENFKroew6li-1" vertex="1">
          <mxGeometry y="578.25" width="250" height="10" as="geometry" />
        </mxCell>
        <mxCell id="UtTbLOX9hENFKroew6li-117" style="edgeStyle=orthogonalEdgeStyle;rounded=1;orthogonalLoop=1;jettySize=auto;html=1;entryX=0.5;entryY=1;entryDx=0;entryDy=0;dashed=1;startArrow=none;startFill=0;exitX=0;exitY=0.5;exitDx=0;exitDy=0;" parent="UtTbLOX9hENFKroew6li-1" source="UtTbLOX9hENFKroew6li-37" edge="1">
          <mxGeometry relative="1" as="geometry">
            <mxPoint x="530" y="730" as="sourcePoint" />
            <mxPoint x="-40" y="717.93" as="targetPoint" />
            <Array as="points">
              <mxPoint x="535" y="730" />
              <mxPoint x="-40" y="730" />
            </Array>
          </mxGeometry>
        </mxCell>
        <mxCell id="UtTbLOX9hENFKroew6li-118" value="" style="ellipse;whiteSpace=wrap;html=1;aspect=fixed;gradientColor=#ffd966;fillColor=#fff2cc;strokeColor=#d6b656;" parent="UtTbLOX9hENFKroew6li-1" vertex="1">
          <mxGeometry x="435" y="703.25" width="20" height="20" as="geometry" />
        </mxCell>
        <mxCell id="P0yZQ6XvEZQ3eqHVbaNc-0" value="" style="shape=mxgraph.bpmn.shape;html=1;verticalLabelPosition=bottom;labelBackgroundColor=#ffffff;verticalAlign=top;align=center;perimeter=ellipsePerimeter;outlineConnect=0;outline=standard;symbol=timer;" parent="UtTbLOX9hENFKroew6li-1" vertex="1">
          <mxGeometry x="435" y="607.5" width="40" height="36.25" as="geometry" />
        </mxCell>
        <mxCell id="P0yZQ6XvEZQ3eqHVbaNc-1" value="" style="shape=mxgraph.bpmn.shape;html=1;verticalLabelPosition=bottom;labelBackgroundColor=#ffffff;verticalAlign=top;align=center;perimeter=ellipsePerimeter;outlineConnect=0;outline=standard;symbol=timer;" parent="UtTbLOX9hENFKroew6li-1" vertex="1">
          <mxGeometry x="590" y="607.5" width="40" height="36.25" as="geometry" />
        </mxCell>
        <mxCell id="P0yZQ6XvEZQ3eqHVbaNc-2" value="" style="shape=mxgraph.bpmn.shape;html=1;verticalLabelPosition=bottom;labelBackgroundColor=#ffffff;verticalAlign=top;align=center;perimeter=ellipsePerimeter;outlineConnect=0;outline=standard;symbol=timer;" parent="UtTbLOX9hENFKroew6li-1" vertex="1">
          <mxGeometry x="770" y="607.5" width="40" height="36.25" as="geometry" />
        </mxCell>
        <mxCell id="P0yZQ6XvEZQ3eqHVbaNc-3" value="Limit time (timeout)" style="text;html=1;strokeColor=none;fillColor=none;align=center;verticalAlign=middle;whiteSpace=wrap;rounded=0;" parent="UtTbLOX9hENFKroew6li-1" vertex="1">
          <mxGeometry x="787.5" y="670" width="55" height="20" as="geometry" />
        </mxCell>
        <mxCell id="P0yZQ6XvEZQ3eqHVbaNc-4" value="End Heartbeat after timeout" style="text;html=1;strokeColor=none;fillColor=none;align=center;verticalAlign=middle;whiteSpace=wrap;rounded=0;" parent="UtTbLOX9hENFKroew6li-1" vertex="1">
          <mxGeometry y="633.75" width="250" height="10" as="geometry" />
        </mxCell>
        <mxCell id="P0yZQ6XvEZQ3eqHVbaNc-5" value="End Heartbeat before timeout" style="text;html=1;strokeColor=none;fillColor=none;align=center;verticalAlign=middle;whiteSpace=wrap;rounded=0;" parent="UtTbLOX9hENFKroew6li-1" vertex="1">
          <mxGeometry y="690" width="250" height="10" as="geometry" />
        </mxCell>
        <mxCell id="P0yZQ6XvEZQ3eqHVbaNc-6" value="End Heartbeat before timeout" style="text;html=1;strokeColor=none;fillColor=none;align=center;verticalAlign=middle;whiteSpace=wrap;rounded=0;" parent="UtTbLOX9hENFKroew6li-1" vertex="1">
          <mxGeometry y="755" width="250" height="10" as="geometry" />
        </mxCell>
        <mxCell id="P0yZQ6XvEZQ3eqHVbaNc-7" value="Timer" style="text;html=1;strokeColor=none;fillColor=none;align=center;verticalAlign=middle;whiteSpace=wrap;rounded=0;" parent="UtTbLOX9hENFKroew6li-1" vertex="1">
          <mxGeometry x="435" y="587.5" width="40" height="20" as="geometry" />
        </mxCell>
        <mxCell id="P0yZQ6XvEZQ3eqHVbaNc-8" value="Timer" style="text;html=1;strokeColor=none;fillColor=none;align=center;verticalAlign=middle;whiteSpace=wrap;rounded=0;" parent="UtTbLOX9hENFKroew6li-1" vertex="1">
          <mxGeometry x="590" y="587.5" width="40" height="20" as="geometry" />
        </mxCell>
        <mxCell id="P0yZQ6XvEZQ3eqHVbaNc-9" value="Timer" style="text;html=1;strokeColor=none;fillColor=none;align=center;verticalAlign=middle;whiteSpace=wrap;rounded=0;" parent="UtTbLOX9hENFKroew6li-1" vertex="1">
          <mxGeometry x="770" y="588.25" width="40" height="20" as="geometry" />
        </mxCell>
      </root>
    </mxGraphModel>
  </diagram>
  <diagram name="requestmonitorp2" id="cA1xSY5o5tw7sP56HUs2">
    <mxGraphModel dx="2062" dy="1182" grid="1" gridSize="10" guides="1" tooltips="1" connect="1" arrows="1" fold="1" page="1" pageScale="1" pageWidth="850" pageHeight="1100" math="0" shadow="0">
      <root>
        <mxCell id="xj_9vjyNsDIzcB9LBbxZ-0" />
        <mxCell id="xj_9vjyNsDIzcB9LBbxZ-1" parent="xj_9vjyNsDIzcB9LBbxZ-0" />
        <mxCell id="wA3-tx4EFTWJ0Bwcx0N--4" value="" style="group" parent="xj_9vjyNsDIzcB9LBbxZ-1" vertex="1" connectable="0">
          <mxGeometry x="70" y="20" width="810" height="470" as="geometry" />
        </mxCell>
        <mxCell id="xj_9vjyNsDIzcB9LBbxZ-2" value="" style="rounded=0;whiteSpace=wrap;html=1;" parent="wA3-tx4EFTWJ0Bwcx0N--4" vertex="1">
          <mxGeometry width="810" height="470" as="geometry" />
        </mxCell>
        <mxCell id="xj_9vjyNsDIzcB9LBbxZ-3" value="" style="endArrow=classic;html=1;" parent="wA3-tx4EFTWJ0Bwcx0N--4" edge="1">
          <mxGeometry width="50" height="50" relative="1" as="geometry">
            <mxPoint x="70" y="190" as="sourcePoint" />
            <mxPoint x="620" y="190" as="targetPoint" />
          </mxGeometry>
        </mxCell>
        <mxCell id="xj_9vjyNsDIzcB9LBbxZ-6" value="" style="endArrow=classic;startArrow=classic;html=1;" parent="wA3-tx4EFTWJ0Bwcx0N--4" edge="1">
          <mxGeometry width="50" height="50" relative="1" as="geometry">
            <mxPoint x="110" y="200" as="sourcePoint" />
            <mxPoint x="210" y="200" as="targetPoint" />
          </mxGeometry>
        </mxCell>
        <mxCell id="xj_9vjyNsDIzcB9LBbxZ-10" value="monitor health state" style="text;html=1;strokeColor=none;fillColor=none;align=center;verticalAlign=middle;whiteSpace=wrap;rounded=0;" parent="wA3-tx4EFTWJ0Bwcx0N--4" vertex="1">
          <mxGeometry x="50" y="90" width="70" height="40" as="geometry" />
        </mxCell>
        <mxCell id="xj_9vjyNsDIzcB9LBbxZ-13" value="WaitTime" style="text;html=1;strokeColor=none;fillColor=none;align=center;verticalAlign=middle;whiteSpace=wrap;rounded=0;" parent="wA3-tx4EFTWJ0Bwcx0N--4" vertex="1">
          <mxGeometry x="140" y="200" width="40" height="20" as="geometry" />
        </mxCell>
        <mxCell id="nGAJyBq7poAvgOkIVikq-1" value="" style="shape=flexArrow;endArrow=classic;html=1;endWidth=26;endSize=6.67;width=46;gradientColor=#97d077;fillColor=#d5e8d4;strokeColor=#82b366;" parent="wA3-tx4EFTWJ0Bwcx0N--4" edge="1">
          <mxGeometry width="50" height="50" relative="1" as="geometry">
            <mxPoint x="89.5" y="190" as="sourcePoint" />
            <mxPoint x="89.5" y="130" as="targetPoint" />
            <Array as="points">
              <mxPoint x="89.5" y="170" />
            </Array>
          </mxGeometry>
        </mxCell>
        <mxCell id="nGAJyBq7poAvgOkIVikq-2" value="" style="shape=flexArrow;endArrow=classic;html=1;endWidth=26;endSize=6.67;width=46;gradientColor=#97d077;fillColor=#d5e8d4;strokeColor=#82b366;" parent="wA3-tx4EFTWJ0Bwcx0N--4" edge="1">
          <mxGeometry width="50" height="50" relative="1" as="geometry">
            <mxPoint x="230" y="190" as="sourcePoint" />
            <mxPoint x="230" y="130" as="targetPoint" />
            <Array as="points">
              <mxPoint x="230" y="170" />
            </Array>
          </mxGeometry>
        </mxCell>
        <mxCell id="nGAJyBq7poAvgOkIVikq-3" value="" style="shape=flexArrow;endArrow=classic;html=1;endWidth=26;endSize=6.67;width=46;gradientColor=#97d077;fillColor=#d5e8d4;strokeColor=#82b366;" parent="wA3-tx4EFTWJ0Bwcx0N--4" edge="1">
          <mxGeometry width="50" height="50" relative="1" as="geometry">
            <mxPoint x="430" y="190" as="sourcePoint" />
            <mxPoint x="430" y="130" as="targetPoint" />
            <Array as="points">
              <mxPoint x="430" y="170" />
            </Array>
          </mxGeometry>
        </mxCell>
        <mxCell id="nGAJyBq7poAvgOkIVikq-4" value="" style="endArrow=classic;startArrow=classic;html=1;" parent="wA3-tx4EFTWJ0Bwcx0N--4" edge="1">
          <mxGeometry width="50" height="50" relative="1" as="geometry">
            <mxPoint x="250" y="200" as="sourcePoint" />
            <mxPoint x="410" y="200" as="targetPoint" />
          </mxGeometry>
        </mxCell>
        <mxCell id="nGAJyBq7poAvgOkIVikq-5" value="WaitTime" style="text;html=1;strokeColor=none;fillColor=none;align=center;verticalAlign=middle;whiteSpace=wrap;rounded=0;" parent="wA3-tx4EFTWJ0Bwcx0N--4" vertex="1">
          <mxGeometry x="280" y="200" width="40" height="20" as="geometry" />
        </mxCell>
        <mxCell id="nGAJyBq7poAvgOkIVikq-6" value="monitor health state" style="text;html=1;strokeColor=none;fillColor=none;align=center;verticalAlign=middle;whiteSpace=wrap;rounded=0;" parent="wA3-tx4EFTWJ0Bwcx0N--4" vertex="1">
          <mxGeometry x="200" y="90" width="70" height="40" as="geometry" />
        </mxCell>
        <mxCell id="nGAJyBq7poAvgOkIVikq-7" value="monitor health state" style="text;html=1;strokeColor=none;fillColor=none;align=center;verticalAlign=middle;whiteSpace=wrap;rounded=0;" parent="wA3-tx4EFTWJ0Bwcx0N--4" vertex="1">
          <mxGeometry x="390" y="90" width="70" height="40" as="geometry" />
        </mxCell>
        <mxCell id="nGAJyBq7poAvgOkIVikq-9" value="" style="rounded=0;whiteSpace=wrap;html=1;" parent="wA3-tx4EFTWJ0Bwcx0N--4" vertex="1">
          <mxGeometry x="60" y="240" width="510" height="30" as="geometry" />
        </mxCell>
        <mxCell id="nGAJyBq7poAvgOkIVikq-10" value="Running" style="rounded=0;whiteSpace=wrap;html=1;gradientColor=#97d077;fillColor=#d5e8d4;strokeColor=#82b366;" parent="wA3-tx4EFTWJ0Bwcx0N--4" vertex="1">
          <mxGeometry x="60" y="240" width="50" height="30" as="geometry" />
        </mxCell>
        <mxCell id="nGAJyBq7poAvgOkIVikq-11" value="Sleeping" style="rounded=0;whiteSpace=wrap;html=1;gradientColor=#b3b3b3;fillColor=#f5f5f5;strokeColor=#666666;" parent="wA3-tx4EFTWJ0Bwcx0N--4" vertex="1">
          <mxGeometry x="110" y="240" width="100" height="30" as="geometry" />
        </mxCell>
        <mxCell id="nGAJyBq7poAvgOkIVikq-12" value="Running" style="rounded=0;whiteSpace=wrap;html=1;gradientColor=#97d077;fillColor=#d5e8d4;strokeColor=#82b366;" parent="wA3-tx4EFTWJ0Bwcx0N--4" vertex="1">
          <mxGeometry x="210" y="240" width="50" height="30" as="geometry" />
        </mxCell>
        <mxCell id="nGAJyBq7poAvgOkIVikq-13" value="Sleeping" style="rounded=0;whiteSpace=wrap;html=1;gradientColor=#b3b3b3;fillColor=#f5f5f5;strokeColor=#666666;" parent="wA3-tx4EFTWJ0Bwcx0N--4" vertex="1">
          <mxGeometry x="260" y="240" width="150" height="30" as="geometry" />
        </mxCell>
        <mxCell id="nGAJyBq7poAvgOkIVikq-14" value="Running" style="rounded=0;whiteSpace=wrap;html=1;gradientColor=#97d077;fillColor=#d5e8d4;strokeColor=#82b366;" parent="wA3-tx4EFTWJ0Bwcx0N--4" vertex="1">
          <mxGeometry x="410" y="240" width="50" height="30" as="geometry" />
        </mxCell>
        <mxCell id="nGAJyBq7poAvgOkIVikq-15" value="" style="endArrow=classic;startArrow=classic;html=1;" parent="wA3-tx4EFTWJ0Bwcx0N--4" edge="1">
          <mxGeometry width="50" height="50" relative="1" as="geometry">
            <mxPoint x="450" y="200" as="sourcePoint" />
            <mxPoint x="570" y="200" as="targetPoint" />
          </mxGeometry>
        </mxCell>
        <mxCell id="nGAJyBq7poAvgOkIVikq-16" value="WaitTime" style="text;html=1;strokeColor=none;fillColor=none;align=center;verticalAlign=middle;whiteSpace=wrap;rounded=0;" parent="wA3-tx4EFTWJ0Bwcx0N--4" vertex="1">
          <mxGeometry x="480" y="200" width="40" height="20" as="geometry" />
        </mxCell>
        <mxCell id="nGAJyBq7poAvgOkIVikq-17" value="Sleeping" style="rounded=0;whiteSpace=wrap;html=1;gradientColor=#b3b3b3;fillColor=#f5f5f5;strokeColor=#666666;" parent="wA3-tx4EFTWJ0Bwcx0N--4" vertex="1">
          <mxGeometry x="460" y="240" width="110" height="30" as="geometry" />
        </mxCell>
        <mxCell id="nGAJyBq7poAvgOkIVikq-18" value="Internal state of monitoring thread" style="text;html=1;strokeColor=none;fillColor=none;align=center;verticalAlign=middle;whiteSpace=wrap;rounded=0;" parent="wA3-tx4EFTWJ0Bwcx0N--4" vertex="1">
          <mxGeometry x="285" y="290" width="105" height="20" as="geometry" />
        </mxCell>
        <mxCell id="wA3-tx4EFTWJ0Bwcx0N--3" value="" style="shape=image;verticalLabelPosition=bottom;labelBackgroundColor=#ffffff;verticalAlign=top;aspect=fixed;imageAspect=0;image=data:image/png,iVBORw0KGgoAAAANSUhEUgAAAtsAAAAXCAYAAADaxYNOAAAKWUlEQVR4Ae2c7ZEUOROE1wVswAV8wARswAU8wAM8wAIswAF+E4EH+DAXz3K55NWWetTz8b7dPVkRfeqWSlJVKlWq7h3u6RQJAkEgCASBIBAEgkAQCAJB4C4IPN1l1AwaBIJAEAgCQSAIBIEgEASCwCnJ9gOQ4Pfv36ePHz+e3rx5c3r//v0DeBwXg0AQCAJBYO8IfP78+fT09HT68OHD6cePH3t3J/Y/MAJJth9g8Umw3717l2D1AGsdF4NAEAgCR0Lg169fz8k2H4v4cBQJAntE4CXZJiHjDZILckv4IupfQ3m7lB7lGmGj0Ofbt2+L3Xz87t7fcGfHXJxwJ42X+gqGX79+feWlvhrQzn0nl85Zx7p2nI4HXveonKg43+o53LgVkhlnFoFwbhapx9MjJyHef//+/e7Oc1bBxbdv377kOo/wscrP0+4+Z+x11HvJliExAHsiLIJ7ss10nz59ev5JgoM/Y4bm8H6aQ/1p800FyUn4EfWXrtf5mN5+pHv5v9ZXx7PiAb51fV3n0jl9DO67cera1z563iMnZn2Tj1ssw437rMoRuHEfZE7Pf4FLPLo9ukfg3NI5divESLSJe1ycWQgfqpgbDPcms+ueM/b+K/sq2RbBmJrfSRH4avDj+cuXLzexjkQaYksgtr6y6muof5WttqhfyjECBArH0DVpu9Va+rgz93XtR332yIlZ30Y+b6E+3LjPKhyBG/dB5vSc1CQe3R7dvXNOSaPnJ7dH6fTyb5vIPVz4CcseZXbdc8bef3WHyTakJrEl8fUEly/fnhzLRN6MSM45oCEmAdP7cU8bX8UlPNdLbZTMRfvojbKOyQZRHX2xSX8Kwh5vd9uYizaIie3MWdvdLs1RbffnUX+3YY2NmlP4LY2jlxXZTN9aR5veZik7WTPnEr51HOZyrHTf2VDrtsQJ/YVH9sOfc74t7ZOlNR3h2/UR3t2aVzxHz+HGdfHiyNwYceba+nAunBtxiHyEOHtPUUI/+jDF3MRb5TmuJ/to72IyORP2o3euXT6i1+UkXX/lOR7zdS55qbGXypyxf3JVzlGkw/uSM/aFvQp0kAFhMO5ZPJ+URUXXBZKSpEIMDOPiWYmhdFl0FtKF8Zy03kb/LrF3HR8TfWzDXmzhGVsoVYetzEc/idvLfcVCercoL7WRudf4Klu1NhV32kngwH9J1swJ5h2+jO/jaL6ltZdOLcFvC5xQcMVfBCzxX9L5prUY7ZNLuDHqgz3Ocdk1W4Ybf2JIx+dz8eLo3Jjl0Fq9cC6cG3GGfdidISP9S+qJpczB/h6Jx1tPbLnXueQ6JOY8K2ZQnmtnbumrr+ck3r/Lc9z27hzy9u6e8eVL106dr8U5e0Z5wZKPzHG0OPo34/wXQBzkgiSIJ9vcA2wVdJWQq41k2xM8bRYAlqiOshMWvJtPuurvY9IGwWQ/z4yBPdIj2UZHAhmkD6l59nbp3bJca+Osr9jOhYiseq724/OoDd3ZOc/h242jOso1shVOKPh1L4oj32b2CVis5QZ9wMXXUmu/BlvXDTcujxdH54bz5Jb34Vw4t8QnfSTzJNf1yUFIApeumqfU/kvtrkuM9thPv5qr1Dju/blfaieWsx+QUU5S+9PHz4DROVTtqM85Y//8Th98Xa49Y9tkG+IoCVKyzYIzuRJWNwJyO/F02Lgu7RjrsvQlQ0TxhN37ct+NqX7YIGFe5pJASN8YvjlFNLdd/VSCj/fp7pc27SU2LvlKYiVhjXwtmIsXDa+T7qhe7UtzrsG3G2dp7TV/LYXbVjiBHWAIZxyPkW8z+0Q++njn+AtXGZu+EmzAtksl3LguXhyZG5dy6ly/cC6cG3FE59hS7B/1na0nho4SeR+D2IyucgTFX7eti+M+xrl2xtfV5STqv3T2j84ht6Pea1z3pep057n6rTm35B9l5yPzHimOvkq269uRkm2Sx24B9AXNF737glcTXIBc+pLBgrIIInRdcJ67MennSYY2gttHu3zp7O/mumXdWhtnfRXhK2asXQ0iChj0kXCvt+nZOc/hOxpnae1lTy23ygl8IVhIOt86nqFXX8ou4QZcrm/hPLM/EMas7bK1K8ON//4vxq6JF3vhBrG2crHjxr3qwrnH4RxxCb55YnaOV4qf5/SuaWef13OyG48k1uM9H+5qrlLjeB1nqV2+Uo6k9u/O/u4cGo2nesatvqhN5f8j79p6HBU2S+WrZBugPQGDfNThbCdaZAhI4gXxuFgQNhP1CIc9Y7GYSnQJ7ujST/qagzbmXZJuTMZxW5nLx/Ggztw/f/58bped+MMY2HkvWWsj+Mz4ig/4qnWQ/dRVf9D1BAy/CSDCgb4zc57Dd2T70trL7lpuhRNg6RxjPT34dr7N7pNLuEEf1gqsuXjm4OBee873gHClrjtcwo2/cWdtvNgTN7TH4Qn8hDN+wI/4QT9vU3IgLunZxwrn/p57a/f4uTNqb5yDC3BtjSh+dpxaM86SruIocyGUxHk/E6lHT/GeNnjPfmAfkVNIx8+I50r7T+WANT2Pw3iaFzvQ9zO89ke32tCdQz5Pd58z9vSct4IluHt+OjpjOxy7ur+nyr8BlEV0gUhsDBHQ23SPQRjHQnE4KQET8dCDeOgoIFMnkjJ+V68xNU8tuzEBRCRFHxuwS8KGYD70sBWBxNQxH/Vui/rdsrzExhlfCUT4QSCQb9iNXx6kaMMG6uvl/WbmnMG3G2e09iOcpY+9vp5Vv5vrEryXOEGb4yfeyxbZWnk9s08usZU+7FtxGAzqfgW3KtT5XqE93LguXuyRG+IFcYP4KOn44W2Kk8QWdOuzxxzvF87d9ozaG+eIMcQohNgJdzquiDMqZ/Wkv7aE+zo/mIurxnbGJL8h1hJ3uSfW8oyu4m6N49WWc+1L5w9j1f7ghw1+9o/OoWqLnqUvv1VfS2Gk/U57tWcmL1jycW+crhh1z69P4E4rdbtGgM0DeSPHQ4Dgzvp6ktR5iY6LXjp1OHhb7o+BwCw38JYEmMRBcg9+3GNM2ZtyGwjMcA6ucZF0k5TNnE0adyYp3wYSseIoCIh7587Yc/7+9wQ+p532XSLAGzdvvFsPVCSE3bVL0P9HRnNQ1US6m7rqcMj5XzG6Pluq63hRfdqSvVuwZZYb6NWE5x78uMeY98Q5nFuP7gzn9DUbfGcSGJId/eVuRn+91Y/TI5xev9YznJ4ZNcn2DEo71yFAKVgR6CLHQYB1JYDWZMk9JKmePdi8X+73jcAMN+CNuMOX7a2/kO97RY5v/QzniEUk0HwA4qcI/heVipB+2sBPF/b0caD6kef9IjDD6RnvkmzPoBSdILBTBPwrEoec/85upy7F7BshoD+PwgtdSbZvBG6GaRGAXyTZCEk2vNPLXtshlUHgIAgk2T7IQsaNIBAEgkAQCAJBIAgEge0hkGR7e2sSi4JAEAgCQSAIBIEgEAQOgkCS7YMsZNwIAkEgCASBIBAEgkAQ2B4CSba3tyaxKAgEgSAQBIJAEAgCQeAgCCTZPshCxo0gEASCQBAIAkEgCASB7SHwD67ieCdCubTxAAAAAElFTkSuQmCC;" parent="wA3-tx4EFTWJ0Bwcx0N--4" vertex="1">
          <mxGeometry x="50" y="370" width="731" height="23" as="geometry" />
        </mxCell>
      </root>
    </mxGraphModel>
  </diagram>
</mxfile>
